SplineFontDB: 3.0
FontName: gregall
FullName: gregall
FamilyName: gregall
Weight: Book

StartChar: clB
Encoding: 58368 58368 1
Width: 995
VWidth: 0
Flags: W
LayerCount: 2
Fore
SplineSet
14 -8 m 0,0,1
 -38 -3 -38 -3 -38 28 c 0,2,3
 -38 46 -38 46 -20 74 c 0,4,5
 242 482 242 482 560 548 c 0,6,7
 586 553 586 553 607 553 c 0,8,9
 690 551 690 551 776 470 c 0,10,11
 871 380 871 380 876 286 c 0,12,13
 876.167 283.833 876.167 283.833 876.167 281.639 c 0,14,15
 876.167 270.667 876.167 270.667 872 259 c 0,16,17
 807 76 807 76 522 -80 c 0,18,19
 491.684 -97.0526 491.684 -97.0526 464.958 -97.0526 c 0,20,21
 463.474 -97.0526 463.474 -97.0526 462 -97 c 0,22,23
 424 -96 424 -96 388 -64 c 0,24,25
 368 -46 368 -46 368 -16 c 0,26,27
 369 25 369 25 386 50 c 8,28,29
 395 63 395 63 488 156 c 16,30,31
 492 160 492 160 502 160 c 0,32,33
 521 160 521 160 528 124 c 0,34,35
 530 113 530 113 530 105 c 0,36,37
 529 74 529 74 510 52 c 0,38,39
 503 44 503 44 503 38 c 0,40,41
 504 25 504 25 538 18 c 0,42,43
 544 17 544 17 549 17 c 0,44,45
 576 18 576 18 602 36 c 0,46,47
 707 109 707 109 754 220 c 0,48,49
 757.556 228.444 757.556 228.444 757.556 239.457 c 0,50,51
 757.556 253.222 757.556 253.222 752 271 c 0,52,53
 718 380 718 380 602 425 c 0,54,55
 567.518 438.37 567.518 438.37 529.571 438.37 c 0,56,57
 513.593 438.37 513.593 438.37 497 436 c 0,58,59
 463 432 463 432 424 412 c 0,60,61
 126 259 126 259 126 144 c 0,62,63
 126 130 126 130 126 130 c 0,64,65
 126.083 123.667 126.083 123.667 126.083 117.722 c 0,66,67
 126.083 52.3333 126.083 52.3333 116 34 c 0,68,69
 94 -6 94 -6 30 -9 c 0,70,71
 24 -9 24 -9 14 -8 c 0,0,1
EndSplineSet
Validated: 1
Comment: "ancus" 
EndChar

StartChar: clNB
Encoding: 58369 58369 2
Width: 942
VWidth: 0
Flags: W
LayerCount: 2
Fore
SplineSet
61 80 m 0,0,1
 10.1787 42.5944 10.1787 42.5944 31 76 c 0,2,3
 243 408 243 408 369 506 c 0,4,5
 382.338 517.273 382.338 517.273 427 538 c 0,6,7
 465.331 555.789 465.331 555.789 413 566 c 24,8,9
 360.909 576.164 360.909 576.164 339 576 c 0,10,11
 318.132 575.844 318.132 575.844 337 604 c 24,12,13
 352.395 626.973 352.395 626.973 392 646 c 0,14,15
 406.148 652.9 406.148 652.9 421 634 c 24,16,17
 438.011 612.429 438.011 612.429 589 614 c 0,18,19
 686.038 615.01 686.038 615.01 783 640 c 24,20,21
 861.626 648.88 861.626 648.88 789 628 c 24,22,23
 703.713 603.48 703.713 603.48 679 588 c 0,24,25
 643.048 565.48 643.048 565.48 671 540 c 0,26,27
 703.725 510.169 703.725 510.169 709 504 c 0,28,29
 803.53 393.434 803.53 393.434 775 272 c 24,30,31
 735.674 104.61 735.674 104.61 519 36 c 0,32,33
 424.094 5.94763 424.094 5.94763 435 116 c 24,34,35
 446.275 229.778 446.275 229.778 505 264 c 0,36,37
 543.936 286.69 543.936 286.69 545 242 c 0,38,39
 546 165 546 165 567 144 c 24,40,41
 588.337 123.239 588.337 123.239 619 132 c 0,42,43
 679.729 148.034 679.729 148.034 685 202 c 0,44,45
 697.068 325.56 697.068 325.56 639 372 c 0,46,47
 520.576 466.711 520.576 466.711 435 476 c 0,48,49
 373.472 482.679 373.472 482.679 337 438 c 0,50,51
 100 147 100 147 61 80 c 0,0,1
EndSplineSet
Validated: 33
Comment: "clivis liquescens cum episema" 
EndChar

StartChar: bv
Encoding: 58370 58370 3
Width: 1012
VWidth: 0
Flags: W
LayerCount: 2
Fore
SplineSet
316 75 m 0,0,1
 306.303 71.1212 306.303 71.1212 300.544 71.1212 c 0,2,3
 292.119 71.1212 292.119 71.1212 292.119 79.4197 c 0,4,5
 292.119 88.8507 292.119 88.8507 303 109 c 0,6,7
 434 351 434 351 833 668 c 0,8,9
 849.293 680.569 849.293 680.569 860.819 680.569 c 0,10,11
 874.052 680.569 874.052 680.569 881 664 c 0,12,13
 886.357 651.143 886.357 651.143 886.357 637.01 c 0,14,15
 886.357 611.571 886.357 611.571 869 582 c 0,16,17
 849.588 549.971 849.588 549.971 815.104 549.971 c 0,18,19
 814.059 549.971 814.059 549.971 813 550 c 0,20,21
 801.5 550.5 801.5 550.5 788.5 550.5 c 128,-1,22
 775.5 550.5 775.5 550.5 761 550 c 8,23,24
 748 550 748 550 735 538 c 0,25,26
 470 296 470 296 316 75 c 0,0,1
60 57 m 0,27,28
 45.7143 38.203 45.7143 38.203 35.2445 38.203 c 0,29,30
 17.8647 38.203 17.8647 38.203 11 90 c 0,31,32
 10.9202 90.5814 10.9202 90.5814 10.9202 91.2292 c 0,33,34
 10.9202 147.396 10.9202 147.396 611 702 c 0,35,36
 633.257 722.629 633.257 722.629 651.389 722.629 c 0,37,38
 666.657 722.629 666.657 722.629 679 708 c 0,39,40
 696.161 687.518 696.161 687.518 696.161 660.294 c 0,41,42
 696.161 638.339 696.161 638.339 685 612 c 8,43,44
 674 587 674 587 623 578 c 0,45,46
 615.333 576.667 615.333 576.667 607 576.667 c 0,47,48
 590.333 576.667 590.333 576.667 571 582 c 0,49,50
 567.458 583.042 567.458 583.042 563.656 583.042 c 0,51,52
 549.208 583.042 549.208 583.042 531 568 c 0,53,54
 328 405 328 405 60 57 c 0,27,28
EndSplineSet
Validated: 1
Comment: "bivirga" 
EndChar

StartChar: bvN
Encoding: 58371 58371 4
Width: 1232
VWidth: 0
Flags: W
LayerCount: 2
Fore
SplineSet
302 14 m 0,0,1
 297.333 24 297.333 24 297.333 33.7778 c 0,2,3
 297.333 53.3333 297.333 53.3333 316 72 c 8,4,5
 809 565 809 565 904 612 c 0,6,7
 940 630 940 630 942 634 c 16,8,9
 942.727 635.636 942.727 635.636 942.727 637.802 c 0,10,11
 942.727 647.545 942.727 647.545 928 668 c 8,12,-1
 856 754 l 16,13,14
 853.222 760.667 853.222 760.667 853.222 767.179 c 0,15,16
 853.222 784.111 853.222 784.111 872 800 c 0,17,18
 889.727 815.364 889.727 815.364 903.963 815.364 c 0,19,20
 913.818 815.364 913.818 815.364 922 808 c 8,21,22
 1000 738 1000 738 1020 668 c 24,23,24
 1028 640 1028 640 1044 634 c 0,25,26
 1082 619 1082 619 1086 612 c 0,27,28
 1089.52 605.771 1089.52 605.771 1089.52 601.595 c 0,29,30
 1089.52 593.107 1089.52 593.107 1074.97 593.107 c 0,31,32
 1070.25 593.107 1070.25 593.107 1064 594 c 0,33,34
 1019 587.25 1019 587.25 995.375 587.25 c 0,35,36
 987.5 587.25 987.5 587.25 982 588 c 0,37,38
 976.844 588.781 976.844 588.781 971.59 588.781 c 0,39,40
 943.219 588.781 943.219 588.781 912 566 c 0,41,42
 665 387 665 387 338 24 c 0,43,44
 321.8 6 321.8 6 312.08 6 c 0,45,46
 305.6 6 305.6 6 302 14 c 0,0,1
0 0 m 16,47,48
 -23.0246 5.21311 -23.0246 5.21311 -23.0246 22.8822 c 0,49,50
 -23.0246 45.8852 -23.0246 45.8852 16 90 c 0,51,52
 381 503 381 503 608 636 c 0,53,54
 630.781 649.5 630.781 649.5 630.781 664.424 c 0,55,56
 630.781 667.188 630.781 667.188 630 670 c 0,57,58
 620 706 620 706 544 796 c 16,59,60
 539.2 808.4 539.2 808.4 539.2 821.76 c 0,61,62
 539.2 841.8 539.2 841.8 550 864 c 8,63,64
 568 901 568 901 596 902 c 24,65,66
 610 902 610 902 626 866 c 24,67,68
 689 724 689 724 704 714 c 0,69,70
 726 699 726 699 744 692 c 0,71,72
 752.167 688.889 752.167 688.889 752.167 683.358 c 0,73,74
 752.167 674.667 752.167 674.667 732 660 c 8,75,76
 376 415 376 415 224 246 c 0,77,78
 2 -0 2 -0 0 0 c 16,47,48
EndSplineSet
Validated: 1
Comment: "bivirga cum episema" 
EndChar

StartChar: bvB
Encoding: 58372 58372 5
Width: 1208
VWidth: 0
Flags: W
LayerCount: 2
Fore
SplineSet
880 513 m 0,0,1
 917.593 494.426 917.593 494.426 985 516 c 0,2,3
 1009.51 523.639 1009.51 523.639 993 564 c 0,4,5
 979.638 596.663 979.638 596.663 957 594 c 0,6,7
 891.645 587.464 891.645 587.464 879 570 c 0,8,9
 850.084 527.628 850.084 527.628 880 513 c 0,0,1
411 -8 m 24,10,11
 373.55 6.2669 373.55 6.2669 393 34 c 0,12,13
 680.185 438.716 680.185 438.716 829 588 c 24,14,15
 910.293 669.549 910.293 669.549 1069 696 c 0,16,17
 1129.07 706.013 1129.07 706.013 1109 592 c 24,18,19
 1085.99 460.348 1085.99 460.348 957 456 c 0,20,21
 868 453 868 453 831 450 c 24,22,23
 768.235 447.529 768.235 447.529 743 420 c 24,24,-1
 435 18 l 24,25,26
 413.958 -9.12676 413.958 -9.12676 411 -8 c 24,10,11
51 18 m 0,27,28
 -1.07505 4.3403 -1.07505 4.3403 34 61 c 0,29,30
 73 124 73 124 467 478 c 0,31,32
 482.682 492.183 482.682 492.183 473 518 c 0,33,34
 470 526 470 526 407 554 c 24,35,36
 386.819 564.112 386.819 564.112 409 588 c 24,37,38
 447.249 629.192 447.249 629.192 485 638 c 24,39,40
 506.238 642.956 506.238 642.956 529 616 c 0,41,42
 570.111 564.611 570.111 564.611 591 562 c 0,43,44
 620 559 620 559 639 544 c 24,45,46
 654.409 534.427 654.409 534.427 605 500 c 24,47,48
 548.5 460.885 548.5 460.885 509 454 c 24,49,50
 470.079 447.216 470.079 447.216 452 427 c 0,51,52
 66.0767 21.3979 66.0767 21.3979 51 18 c 0,27,28
EndSplineSet
Validated: 33
Comment: "bivirga liquescens" 
EndChar

StartChar: ciG
Encoding: 58373 58373 6
Width: 986
VWidth: 0
Flags: W
LayerCount: 2
Fore
SplineSet
450 -46 m 24,0,1
 348.477 -50.6411 348.477 -50.6411 424 8 c 24,2,3
 483.603 54.2797 483.603 54.2797 620 86 c 24,4,5
 714.012 107.863 714.012 107.863 768 88 c 24,6,7
 885.797 17.1491 885.797 17.1491 832 8 c 0,8,9
 560 -42 560 -42 450 -46 c 24,0,1
54 16 m 24,10,11
 21.3807 1.92894 21.3807 1.92894 0 34 c 24,12,13
 -5.30552 41.9583 -5.30552 41.9583 10 82 c 0,14,15
 208 600 208 600 558 798 c 0,16,17
 655.636 852 655.636 852 672 762 c 0,18,19
 682.437 706.489 682.437 706.489 642 632 c 24,20,21
 602 560 602 560 582 428 c 0,22,23
 568.642 348.92 568.642 348.92 608 344 c 0,24,25
 660.049 338.396 660.049 338.396 736 348 c 24,26,27
 777.429 348 777.429 348 774 312 c 0,28,29
 770 270 770 270 546 220 c 0,30,31
 464.34 200.478 464.34 200.478 404 234 c 0,32,33
 386.327 243.818 386.327 243.818 410 282 c 0,34,35
 517.512 455.405 517.512 455.405 520 540 c 0,36,37
 522.423 622.394 522.423 622.394 492 630 c 0,38,39
 448.403 641.373 448.403 641.373 404 616 c 0,40,41
 327.449 538.811 327.449 538.811 322 532 c 0,42,43
 150 290 150 290 102 78 c 24,44,45
 91.2141 32.0531 91.2141 32.0531 54 16 c 24,10,11
EndSplineSet
Validated: 33
Comment: "climacus with neumatic break" 
EndChar

StartChar: clM
Encoding: 58374 58374 7
Width: 1000
VWidth: 0
LayerCount: 2
Fore
SplineSet
46 50 m 0,0,1
 282 471 282 471 474 584 c 0,2,3
 501.45 600.2 501.45 600.2 525.255 600.2 c 0,4,5
 554.35 600.2 554.35 600.2 578 576 c 0,6,7
 597.22 558.64 597.22 558.64 597.22 532.823 c 0,8,9
 597.22 517 597.22 517 590 498 c 0,10,11
 337 -168 337 -168 26 -686 c 0,12,13
 8.78261 -714.174 8.78261 -714.174 -10.8847 -714.174 c 0,14,15
 -16.3478 -714.174 -16.3478 -714.174 -22 -712 c 0,16,17
 -33.025 -707.8 -33.025 -707.8 -33.025 -695.331 c 0,18,19
 -33.025 -684.05 -33.025 -684.05 -24 -666 c 0,20,21
 312 -3 312 -3 444 312 c 0,22,23
 460.82 352.02 460.82 352.02 460.82 379.257 c 0,24,25
 460.82 398.98 460.82 398.98 452 412 c 0,26,27
 443.84 423.52 443.84 423.52 427.386 423.52 c 0,28,29
 409.56 423.52 409.56 423.52 382 410 c 0,30,31
 337 388 337 388 104 14 c 16,32,33
 85.7097 -14.4516 85.7097 -14.4516 64.666 -14.4516 c 0,34,35
 54.6452 -14.4516 54.6452 -14.4516 44 -8 c 0,36,37
 32.9792 -1.29167 32.9792 -1.29167 32.9792 12.3047 c 0,38,39
 32.9792 27.0833 32.9792 27.0833 46 50 c 0,0,1
EndSplineSet
Validated: 1
Comment: "clivis melodic form" 
EndChar

StartChar: clMN
Encoding: 58375 58375 8
Width: 986
VWidth: 0
Flags: W
LayerCount: 2
Fore
SplineSet
23 24 m 0,0,1
 6.38185 32.7978 6.38185 32.7978 17 50 c 0,2,3
 273.231 491.541 273.231 491.541 385 554 c 24,4,5
 422.085 574.724 422.085 574.724 431 588 c 0,6,7
 451.614 618.698 451.614 618.698 429 632 c 0,8,9
 410 643 410 643 347 662 c 24,10,11
 328.727 676.024 328.727 676.024 343 698 c 24,12,13
 365.042 731.938 365.042 731.938 410 759 c 24,14,15
 426.873 769.157 426.873 769.157 446 760 c 24,16,17
 544.56 712.817 544.56 712.817 585 712 c 0,18,19
 762.446 708.416 762.446 708.416 823 724 c 24,20,21
 853.171 716.833 853.171 716.833 827 708 c 24,22,23
 717.26 665.85 717.26 665.85 689 658 c 0,24,25
 671 653 671 653 637 576 c 0,26,27
 610.674 517.837 610.674 517.837 579 502 c 0,28,29
 565 495 565 495 533 375 c 0,30,31
 419.947 -4.60075 419.947 -4.60075 85 -490 c 0,32,33
 76 -502 76 -502 59 -485 c 0,34,35
 41.8684 -465.126 41.8684 -465.126 63 -436 c 24,36,37
 361.918 -24.0042 361.918 -24.0042 449 302 c 0,38,39
 474.701 398.214 474.701 398.214 461 478 c 24,40,41
 455.683 508.964 455.683 508.964 415 500 c 24,42,43
 373.164 490.782 373.164 490.782 343 452 c 24,44,45
 133.378 182.486 133.378 182.486 51 32 c 0,46,47
 41.3133 14.3047 41.3133 14.3047 23 24 c 0,0,1
EndSplineSet
Validated: 33
Comment: "clivis melodic cum episema" 
EndChar

StartChar: pflsc2
Encoding: 58376 58376 9
Width: 1752
VWidth: 0
Flags: W
LayerCount: 2
Fore
SplineSet
802 948 m 24,0,1
 758.805 993.429 758.805 993.429 774 1038 c 24,2,3
 803 1128 803 1128 908 1166 c 0,4,5
 947.685 1180.88 947.685 1180.88 984 1160 c 24,6,7
 1018.7 1129.96 1018.7 1129.96 988 1120 c 24,8,9
 951 1108 951 1108 884 1106 c 0,10,11
 853.104 1104.05 853.104 1104.05 840 1050 c 0,12,13
 829.621 1014.71 829.621 1014.71 880 972 c 0,14,15
 907.037 948.285 907.037 948.285 1548 1040 c 24,16,17
 1588.95 1019.9 1588.95 1019.9 1558 1014 c 24,18,19
 1177 939 1177 939 890 916 c 0,20,21
 836.839 911.359 836.839 911.359 802 948 c 24,0,1
796 96 m 24,22,23
 759.31 114.345 759.31 114.345 768 136 c 0,24,25
 898 459 898 459 1218 662 c 24,26,27
 1276.03 699.825 1276.03 699.825 1302 666 c 24,28,29
 1330.28 629.169 1330.28 629.169 1304 550 c 24,30,31
 1243.08 366.491 1243.08 366.491 1140 178 c 24,32,33
 1121.97 145.025 1121.97 145.025 1094 166 c 24,34,35
 1075.08 180.187 1075.08 180.187 1100 208 c 0,36,37
 1148.1 261.443 1148.1 261.443 1188 414 c 0,38,39
 1205.85 483.094 1205.85 483.094 1186 531 c 24,40,41
 1170.62 568.115 1170.62 568.115 1130 554 c 24,42,43
 1122.6 551.43 1122.6 551.43 1068 490 c 0,44,45
 986 400 986 400 820 110 c 24,46,47
 807.776 90.1119 807.776 90.1119 796 96 c 24,22,23
19 4 m 0,48,49
 -7.59019 5.25692 -7.59019 5.25692 0 22 c 0,50,51
 145 347 145 347 446 530 c 24,52,53
 507.919 566.673 507.919 566.673 542 536 c 24,54,55
 571.852 509.133 571.852 509.133 546 440 c 24,56,57
 478.348 259.088 478.348 259.088 364 60 c 24,58,59
 346.437 29.4215 346.437 29.4215 322 50 c 24,60,61
 306.399 63.1374 306.399 63.1374 326 92 c 24,62,63
 420.476 231.118 420.476 231.118 444 298 c 0,64,65
 462.236 349.847 462.236 349.847 446 398 c 0,66,67
 431.155 442.027 431.155 442.027 396 430 c 0,68,69
 354.794 415.903 354.794 415.903 324 386 c 0,70,71
 193 261 193 261 58 30 c 0,72,73
 41.5384 1.56342 41.5384 1.56342 19 4 c 0,48,49
EndSplineSet
Validated: 33
Comment: "porrectus flexus celeriter" 
EndChar

StartChar: pflst2
Encoding: 58377 58377 10
Width: 1580
VWidth: 0
Flags: W
LayerCount: 2
Fore
SplineSet
829 1186 m 0,0,1
 787 1186 787 1186 787 1221 c 0,2,3
 787 1228 787 1228 789 1236 c 0,4,5
 807 1308 807 1308 807 1330 c 0,6,7
 807 1364 807 1364 787 1364 c 0,8,9
 785 1364 785 1364 785 1364 c 0,10,11
 479 1330 479 1330 466 1330 c 0,12,13
 465 1330 465 1330 465 1330 c 0,14,15
 425 1344 425 1344 425 1355 c 0,16,17
 425 1356 425 1356 425 1356 c 128,-1,18
 425 1356 425 1356 425 1357 c 0,19,20
 424.955 1357.23 424.955 1357.23 424.955 1357.46 c 0,21,22
 424.955 1362.27 424.955 1362.27 445 1368 c 0,23,24
 448 1369 448 1369 1385 1454 c 16,25,26
 1399 1455 1399 1455 1407 1455 c 0,27,28
 1461 1453 1461 1453 1473 1438 c 0,29,30
 1476 1434 1476 1434 1477 1425 c 0,31,-1
 1477 1424 l 0,32,33
 1477 1408 1477 1408 1433 1408 c 0,34,35
 1429 1408 1429 1408 1429 1408 c 0,36,37
 1376 1409 1376 1409 1328 1409 c 0,38,39
 1085 1408 1085 1408 991 1388 c 8,40,41
 945 1378 945 1378 935 1368 c 0,42,43
 889 1321 889 1321 887 1310 c 128,-1,44
 885 1299 885 1299 885 1290 c 0,45,46
 885 1268 885 1268 897 1254 c 0,47,48
 921 1226 921 1226 947 1226 c 0,49,-1
 949 1226 l 0,50,51
 976 1228 976 1228 989 1228 c 0,52,53
 1003 1228 1003 1228 1003 1226 c 0,54,55
 1003 1225 1003 1225 1004 1216 c 0,56,57
 1004 1214 1004 1214 1004 1214 c 0,58,59
 1004 1213 1004 1213 1004 1213 c 0,60,61
 1004.19 1211.76 1004.19 1211.76 1004.19 1210.62 c 0,62,63
 1004.19 1199.81 1004.19 1199.81 987 1198 c 0,64,65
 873 1186 873 1186 848 1186 c 0,66,67
 846 1186 846 1186 844 1186 c 0,68,69
 836 1186 836 1186 829 1186 c 0,0,1
875 140 m 0,70,71
 842 140 842 140 842 165 c 0,72,73
 842 168 842 168 842 168 c 0,74,75
 842 169 842 169 842 170 c 0,76,77
 841.889 170.667 841.889 170.667 841.889 171.457 c 0,78,79
 841.889 177.778 841.889 177.778 849 192 c 0,80,81
 1055 603 1055 603 1351 770 c 16,82,83
 1383 788 1383 788 1408 788 c 0,84,85
 1421 788 1421 788 1433 782 c 0,86,87
 1458 769 1458 769 1458 743 c 0,88,89
 1457 731 1457 731 1453 718 c 8,90,91
 1376 468 1376 468 1233 182 c 16,92,93
 1221 158 1221 158 1202 158 c 0,94,95
 1192 158 1192 158 1181 164 c 0,96,97
 1158 177 1158 177 1158 195 c 0,98,99
 1158 205 1158 205 1165 218 c 0,100,101
 1267 408 1267 408 1313 578 c 0,102,103
 1320 604 1320 604 1320 619 c 0,104,105
 1320 621 1320 621 1320 623 c 0,106,107
 1320 649 1320 649 1303 652 c 0,108,109
 1297 653 1297 653 1291 653 c 0,110,111
 1262 651 1262 651 1243 638 c 0,112,113
 1118 552 1118 552 951 188 c 16,114,115
 929 140 929 140 883 140 c 0,116,117
 881 140 881 140 879 140 c 128,-1,118
 877 140 877 140 875 140 c 0,70,71
19 0 m 0,119,120
 -27 0 -27 0 -27 25 c 0,121,122
 -27 28 -27 28 -25 32 c 0,123,124
 195 472 195 472 489 596 c 16,125,126
 508 604 508 604 523 604 c 0,127,128
 524 604 524 604 526 604 c 0,129,130
 554 604 554 604 575 584 c 0,131,132
 600 560 600 560 600 532 c 0,133,134
 600 516 600 516 593 500 c 8,135,136
 488 260 488 260 317 -18 c 16,137,138
 309 -31 309 -31 286 -31 c 0,139,140
 283 -31 283 -31 280 -31 c 8,141,142
 249 -31 249 -31 249 -14 c 16,143,144
 249 -13 249 -13 249 -12 c 128,-1,145
 249 -11 249 -11 249 -11 c 128,-1,146
 249 -11 249 -11 249 -10 c 0,147,148
 248.955 -9.72727 248.955 -9.72727 248.955 -9.39256 c 0,149,150
 248.955 -2.36364 248.955 -2.36364 269 32 c 8,151,152
 412 276 412 276 417 294 c 0,153,154
 431 341 431 341 431 382 c 0,155,156
 432 385 432 385 432 388 c 0,157,158
 432 392 432 392 431 396 c 0,159,160
 423 463 423 463 415 466 c 0,161,162
 412 467 412 467 409 467 c 0,163,164
 389 466 389 466 355 438 c 0,165,166
 179 292 179 292 43 20 c 16,167,168
 33 -0 33 -0 23 -0 c 0,169,-1
 21 -0 l 0,170,171
 20 -0 20 -0 19 0 c 0,119,120
EndSplineSet
Validated: 1025
Comment: "porrectus flexus tenete" 
EndChar

StartChar: pfB
Encoding: 58378 58378 11
Width: 1372
VWidth: 0
Flags: W
LayerCount: 2
Fore
SplineSet
-34 0 m 0,0,1
 -47.5645 13.0968 -47.5645 13.0968 -47.5645 29.2565 c 0,2,3
 -47.5645 47.6452 -47.5645 47.6452 -30 70 c 8,4,5
 240 413 240 413 498 664 c 16,6,7
 520.286 685.729 520.286 685.729 546.296 685.729 c 0,8,9
 566.971 685.729 566.971 685.729 590 672 c 0,10,11
 625.28 651 625.28 651 625.28 606.01 c 0,12,13
 625.28 597.44 625.28 597.44 624 588 c 8,14,15
 595 382 595 382 552 298 c 0,16,17
 522 240 522 240 522 240 c 0,18,19
 557 240 557 240 578 262 c 0,20,21
 810 505 810 505 944 524 c 0,22,23
 983.724 529.586 983.724 529.586 1016.32 529.586 c 0,24,25
 1088.76 529.586 1088.76 529.586 1126 502 c 0,26,27
 1260.47 402.709 1260.47 402.709 1260.47 299.751 c 0,28,29
 1260.47 271.018 1260.47 271.018 1250 242 c 0,30,31
 1152 -30 1152 -30 882 -152 c 16,32,33
 847.586 -167.557 847.586 -167.557 818.505 -167.557 c 0,34,35
 785.9 -167.557 785.9 -167.557 760 -148 c 0,36,37
 738.4 -131.8 738.4 -131.8 738.4 -100.48 c 0,38,39
 738.4 -79.6 738.4 -79.6 748 -52 c 8,40,41
 777 32 777 32 840 80 c 16,42,43
 866.613 100.161 866.613 100.161 879.893 100.161 c 128,-1,44
 893.122 100.161 893.122 100.161 893.122 80.157 c 0,45,46
 893.122 70.439 893.122 70.439 890 56 c 0,47,48
 884.857 32 884.857 32 884.857 12.4082 c 0,49,50
 884.857 -13.7143 884.857 -13.7143 894 -32 c 0,51,52
 899.344 -43.2812 899.344 -43.2812 915.264 -43.2812 c 0,53,54
 926.156 -43.2812 926.156 -43.2812 942 -38 c 0,55,56
 1058 1 1058 1 1112 138 c 16,57,58
 1123.05 165.818 1123.05 165.818 1123.05 196.983 c 0,59,60
 1123.05 242 1123.05 242 1100 294 c 8,61,62
 1060 384 1060 384 908 396 c 0,63,64
 895 397.25 895 397.25 883.125 397.25 c 0,65,66
 847.5 397.25 847.5 397.25 822 386 c 0,67,68
 671 319 671 319 466 44 c 0,69,70
 443.778 14.3704 443.778 14.3704 410.582 14.3704 c 0,71,72
 398.963 14.3704 398.963 14.3704 386 18 c 0,73,74
 342.25 30.5 342.25 30.5 342.25 54.7188 c 0,75,76
 342.25 69.25 342.25 69.25 358 88 c 0,77,78
 398 136 398 136 490 398 c 0,79,80
 504.58 440.12 504.58 440.12 504.58 472.909 c 0,81,82
 504.58 500.84 504.58 500.84 494 522 c 0,83,84
 484 542 484 542 458 542 c 0,85,86
 452 542 452 542 386 472 c 0,87,88
 317 399 317 399 72 -28 c 0,89,90
 61.5984 -46.1066 61.5984 -46.1066 43.4792 -46.1066 c 0,91,92
 14.5656 -46.1066 14.5656 -46.1066 -34 0 c 0,0,1
EndSplineSet
Validated: 1
Comment: "porrectus flexus liquescens" 
EndChar

StartChar: pf
Encoding: 58379 58379 12
Width: 1162
VWidth: 0
Flags: W
LayerCount: 2
Fore
SplineSet
14 -46 m 0,0,1
 -36 -29 -36 -29 -36 31 c 0,2,3
 -36 34 -36 34 -36 36 c 8,4,5
 -36 67 -36 67 16 164 c 0,6,7
 124 367 124 367 340 572 c 16,8,9
 360 591 360 591 382 591 c 0,10,11
 406 591 406 591 434 570 c 8,12,13
 466 546 466 546 474 470 c 16,14,15
 478 434 478 434 478 407 c 0,16,17
 478 346 478 346 458 330 c 0,18,19
 458 321 458 321 458 321 c 0,20,21
 457.938 316.875 457.938 316.875 457.938 312.949 c 0,22,23
 457.938 254.062 457.938 254.062 472 240 c 0,24,25
 478 234 478 234 483 234 c 0,26,27
 498 235 498 235 516 266 c 8,28,29
 583 380 583 380 680 540 c 0,30,31
 784 711 784 711 952 792 c 16,32,33
 979 805 979 805 999 805 c 0,34,35
 1021 805 1021 805 1034 788 c 0,36,37
 1064 749 1064 749 1064 711 c 0,38,39
 1063 697 1063 697 1060 684 c 0,40,41
 1051 643 1051 643 908 324 c 0,42,-1
 890 219 l 24,43,44
 864 161 864 161 826 146 c 16,45,46
 815 142 815 142 807 142 c 0,47,48
 781 143 781 143 774 178 c 0,49,50
 773 183 773 183 773 188 c 0,51,52
 774 220 774 220 802 272 c 8,53,54
 857 376 857 376 898 489 c 0,55,56
 917 542 917 542 917 575 c 0,57,58
 917 592 917 592 912 604 c 0,59,60
 898 638 898 638 868 638 c 0,61,62
 867 638 867 638 866 638 c 0,63,64
 865.207 638.069 865.207 638.069 864.395 638.069 c 0,65,66
 841.655 638.069 841.655 638.069 804 584 c 0,67,68
 655 370 655 370 632 322 c 0,69,70
 607 271 607 271 450 90 c 0,71,72
 423 59 423 59 392 59 c 0,73,74
 387 59 387 59 382 60 c 0,75,76
 344 68 344 68 344 108 c 0,77,78
 344 110 344 110 344 112 c 0,79,80
 344 194 344 194 356 260 c 0,81,82
 360 282 360 282 360 307 c 0,83,84
 360 337 360 337 354 370 c 128,-1,85
 348 403 348 403 302 420 c 0,86,87
 294 423 294 423 286 423 c 0,88,89
 255 423 255 423 220 382 c 0,90,91
 130 276 130 276 104 174 c 0,92,93
 101 161 101 161 101 148 c 0,94,95
 102 100 102 100 120 74 c 0,96,97
 123 70 123 70 122 66 c 0,98,99
 119 41 119 41 76 -8 c 0,100,101
 41.8537 -47.0244 41.8537 -47.0244 21.9845 -47.0244 c 0,102,103
 21.4878 -47.0244 21.4878 -47.0244 21 -47 c 0,104,105
 17 -47 17 -47 14 -46 c 0,0,1
EndSplineSet
Validated: 1
Comment: "porrectus flexus" 
EndChar

StartChar: pfM
Encoding: 58380 58380 13
Width: 1368
VWidth: 0
Flags: W
LayerCount: 2
Fore
SplineSet
43 126 m 24,0,1
 8.49755 115.188 8.49755 115.188 31 162 c 24,2,3
 159.78 416.699 159.78 416.699 223 482 c 24,4,5
 348.795 611.937 348.795 611.937 517 664 c 0,6,7
 563.831 677.312 563.831 677.312 533 598 c 0,8,9
 400.554 260.314 400.554 260.314 405 230 c 0,10,11
 416.444 140.74 416.444 140.74 465 126 c 0,12,13
 546.191 99.6677 546.191 99.6677 565 126 c 0,14,15
 575 140 575 140 585 184 c 24,16,17
 678.089 511.705 678.089 511.705 721 554 c 0,18,19
 943 772 943 772 1111 782 c 24,20,21
 1191.54 787.721 1191.54 787.721 1161 680 c 24,22,23
 1033.03 228.628 1033.03 228.628 853 -128 c 24,24,25
 639.355 -551.221 639.355 -551.221 531 -568 c 25,26,27
 1011.94 238.289 1011.94 238.289 1027 562 c 0,28,29
 1031.75 666.553 1031.75 666.553 997 674 c 0,30,31
 950.501 695.658 950.501 695.658 913 670 c 0,32,33
 846.487 623.441 846.487 623.441 819 554 c 0,34,35
 666.605 180.56 666.605 180.56 651 138 c 0,36,37
 607 20 607 20 357 22 c 24,38,39
 227.898 22.5106 227.898 22.5106 299 196 c 0,40,41
 407.273 460.187 407.273 460.187 411 490 c 0,42,43
 418.6 550.8 418.6 550.8 393 554 c 0,44,45
 326.468 530.973 326.468 530.973 323 528 c 0,46,47
 194.371 361.538 194.371 361.538 169 222 c 0,48,49
 166.708 209.396 166.708 209.396 119 176 c 0,50,51
 50 127 50 127 43 126 c 24,0,1
EndSplineSet
Validated: 33
EndChar

StartChar: pfMsut1
Encoding: 58382 58382 14
Width: 1396
VWidth: 0
Flags: W
LayerCount: 2
Fore
SplineSet
36 38 m 0,0,1
 -11.1469 16.6232 -11.1469 16.6232 16 98 c 24,2,3
 124.095 377.245 124.095 377.245 204 472 c 24,4,5
 317 606 317 606 532 612 c 0,6,7
 614.753 614.334 614.753 614.334 586 516 c 24,8,9
 538 347 538 347 488 226 c 0,10,11
 467.616 175.186 467.616 175.186 504 144 c 0,12,13
 544.104 104.159 544.104 104.159 586 136 c 0,14,15
 598.552 147.416 598.552 147.416 716 472 c 0,16,17
 805.127 722.503 805.127 722.503 1084 762 c 0,18,19
 1188.9 777.378 1188.9 777.378 1186 668 c 24,20,21
 1183.47 572.67 1183.47 572.67 1072 310 c 24,22,23
 1043.61 243.091 1043.61 243.091 984 192 c 0,24,25
 969 179 969 179 914 -100 c 24,26,27
 909.272 -120.291 909.272 -120.291 856 -150 c 0,28,29
 830.962 -171.887 830.962 -171.887 890 -200 c 0,30,31
 913 -211 913 -211 1004 -230 c 0,32,33
 1062.21 -243.225 1062.21 -243.225 994 -290 c 24,34,35
 971.588 -304.06 971.588 -304.06 724 -276 c 24,36,37
 686.341 -271.732 686.341 -271.732 694 -256 c 24,38,39
 777.999 -179.176 777.999 -179.176 798 -124 c 0,40,41
 827 -40 827 -40 908 256 c 24,42,43
 950.968 415.749 950.968 415.749 998 424 c 24,44,45
 1059 435 1059 435 1062 488 c 0,46,47
 1070.56 595.761 1070.56 595.761 1054 616 c 0,48,49
 1018.34 655.041 1018.34 655.041 976 650 c 0,50,51
 909.459 642.434 909.459 642.434 866 572 c 0,52,53
 826.592 504.276 826.592 504.276 724 218 c 0,54,55
 684 124 684 124 530 14 c 0,56,57
 494.365 -10.8406 494.365 -10.8406 378 110 c 24,58,59
 352 137 352 137 372 174 c 0,60,61
 459.098 348.373 459.098 348.373 466 422 c 24,62,63
 472 486 472 486 438 504 c 0,64,65
 408.264 518.635 408.264 518.635 336 494 c 0,66,67
 289.978 477.384 289.978 477.384 224 368 c 0,68,69
 151.804 185.9 151.804 185.9 142 152 c 24,70,71
 119.364 73.7276 119.364 73.7276 36 38 c 0,0,1
EndSplineSet
Validated: 33
EndChar

StartChar: pf1lsc2
Encoding: 58384 58384 15
Width: 1158
VWidth: 0
Flags: W
LayerCount: 2
Fore
SplineSet
338 960 m 0,0,1
 319 999 319 999 319 1034 c 0,2,3
 319 1081 319 1081 352 1124 c 0,4,5
 441 1240 441 1240 570 1240 c 16,6,7
 583 1240 583 1240 583 1240 c 0,8,9
 588.949 1240.41 588.949 1240.41 594.287 1240.41 c 0,10,11
 641 1240.41 641 1240.41 641 1209 c 0,12,13
 641 1205 641 1205 640 1202 c 8,14,15
 621 1147 621 1147 590 1128 c 0,16,17
 576 1120 576 1120 563 1119 c 0,18,19
 562.259 1118.96 562.259 1118.96 561.528 1118.96 c 0,20,21
 542.519 1118.96 542.519 1118.96 530 1144 c 0,22,23
 518 1168 518 1168 500 1168 c 0,24,25
 499 1168 499 1168 498 1168 c 0,26,27
 438 1168 438 1168 412 1100 c 16,28,29
 404 1079 404 1079 404 1066 c 0,30,31
 404 1048 404 1048 418 1042 c 0,32,33
 451 1028 451 1028 454 1015 c 0,34,35
 460 986 460 986 482 986 c 0,36,37
 483.5 985.75 483.5 985.75 485.125 985.75 c 0,38,39
 490 985.75 490 985.75 496 988 c 0,40,41
 519 996 519 996 537 996 c 0,42,43
 552 996 552 996 554 988 c 0,44,45
 554 986 554 986 555 976 c 0,46,47
 555.071 974.535 555.071 974.535 555.071 973.105 c 0,48,49
 555.071 914 555.071 914 434 914 c 0,50,51
 427 914 427 914 421 914 c 0,52,53
 415.821 913.554 415.821 913.554 410.906 913.554 c 0,54,55
 360.768 913.554 360.768 913.554 338 960 c 0,0,1
392 194 m 0,56,57
 393 235 393 235 402 277 c 0,58,59
 409 310 409 310 410 324 c 0,60,61
 410.762 335.238 410.762 335.238 410.762 344.88 c 0,62,63
 410.762 385.857 410.762 385.857 397 398 c 0,64,65
 391.265 402.971 391.265 402.971 382.313 402.971 c 0,66,67
 367.853 402.971 367.853 402.971 345 390 c 0,68,69
 334 383 334 383 310 358 c 0,70,71
 237 282 237 282 176 178 c 0,72,73
 109 64 109 64 92 0 c 0,74,75
 80 -47 80 -47 43 -49 c 0,76,77
 41.8 -49.0667 41.8 -49.0667 40.5689 -49.0667 c 0,78,79
 23.3333 -49.0667 23.3333 -49.0667 0 -36 c 0,80,81
 -30 -19 -30 -19 -30 8 c 0,82,83
 -30 29 -30 29 -12 56 c 8,84,85
 197 370 197 370 372 514 c 0,86,87
 428 560 428 560 472 560 c 0,88,89
 481 560 481 560 490 558 c 8,90,91
 515 552 515 552 520 482 c 0,92,93
 521 465 521 465 521 455 c 0,94,95
 520 399 520 399 508 356 c 0,96,97
 490 291 490 291 490 281 c 0,98,99
 490 280 490 280 490 280 c 0,100,101
 490 265 490 265 506 265 c 0,102,103
 506.39 264.976 506.39 264.976 506.785 264.976 c 0,104,105
 522.585 264.976 522.585 264.976 546 304 c 0,106,107
 732 615 732 615 912 722 c 0,108,109
 978.818 762.091 978.818 762.091 1018.3 762.091 c 0,110,111
 1020.18 762.091 1020.18 762.091 1022 762 c 0,112,113
 1041 761 1041 761 1054 754 c 0,114,115
 1073 744 1073 744 1073 706 c 0,116,117
 1073 660 1073 660 1048 586 c 0,118,119
 999 441 999 441 820 172 c 16,120,121
 800 142 800 142 780 142 c 0,122,-1
 756 152 l 0,123,124
 744 162 744 162 744 177 c 0,125,126
 743.955 177.818 743.955 177.818 743.955 178.651 c 0,127,128
 743.955 196.136 743.955 196.136 764 220 c 8,129,130
 901 383 901 383 920 456 c 0,131,132
 925 475 925 475 925 494 c 0,133,134
 925 528 925 528 910 564 c 0,135,136
 900 588 900 588 882 588 c 0,137,138
 863 588 863 588 840 564 c 8,139,140
 690 408 690 408 576 228 c 0,141,142
 535 164 535 164 450 140 c 0,143,144
 434.783 135.652 434.783 135.652 423.346 135.652 c 0,145,146
 408.478 135.652 408.478 135.652 400 143 c 0,147,148
 391.9 150.2 391.9 150.2 391.9 185.75 c 0,149,150
 391.9 189.7 391.9 189.7 392 194 c 0,56,57
EndSplineSet
Validated: 1
Comment: "porrectus flexus celeriter" 
EndChar

StartChar: pfEclMN
Encoding: 58385 58385 16
Width: 2164
VWidth: 0
Flags: W
LayerCount: 2
Fore
SplineSet
46.6934 88.5518 m 24,0,1
 2.71484 93.8828 2.71484 93.8828 18.6934 118.552 c 0,2,3
 90.6934 223.552 90.6934 223.552 162.693 328.552 c 24,4,5
 236.26 416.832 236.26 416.832 298.693 454.552 c 24,6,7
 479.079 563.535 479.079 563.535 546.693 560.552 c 24,8,9
 637.453 556.548 637.453 556.548 570.693 442.552 c 0,10,11
 464.198 259.989 464.198 259.989 462.693 232.552 c 0,12,13
 459.057 166.249 459.057 166.249 494.693 136.552 c 0,14,15
 532.938 105.956 532.938 105.956 542.693 110.552 c 0,16,17
 598.854 137.01 598.854 137.01 610.693 162.552 c 0,18,19
 688.243 328.273 688.243 328.273 772.693 404.552 c 24,20,21
 884.293 505.348 884.293 505.348 1044.69 554.552 c 24,22,23
 1131.33 581.128 1131.33 581.128 1098.69 504.552 c 0,24,25
 985.094 243.066 985.094 243.066 986.693 216.552 c 0,26,27
 989.424 171.223 989.424 171.223 1008.69 172.552 c 0,28,29
 1070.76 174.938 1070.76 174.938 1086.69 202.552 c 0,30,31
 1116.85 251.337 1116.85 251.337 1158.69 384.552 c 24,32,33
 1206.95 538.206 1206.95 538.206 1272.69 590.552 c 0,34,35
 1426.18 712.773 1426.18 712.773 1442.69 718.552 c 0,36,37
 1476.12 729.691 1476.12 729.691 1462.69 756.552 c 0,38,39
 1458.69 764.552 1458.69 764.552 1436.69 794.552 c 24,40,41
 1429.09 817.352 1429.09 817.352 1438.69 828.552 c 24,42,43
 1465.94 860.342 1465.94 860.342 1508.69 878.552 c 24,44,45
 1536.69 890.472 1536.69 890.472 1546.69 874.552 c 0,46,47
 1649.65 707.373 1649.65 707.373 1672.17 687.463 c 0,48,49
 1707.5 656.227 1707.5 656.227 1724.69 660.552 c 0,50,51
 1740.85 664.618 1740.85 664.618 1784.69 682.552 c 0,52,53
 1970.24 758.952 1970.24 758.952 1982.69 762.552 c 0,54,55
 2039.9 784.162 2039.9 784.162 2004.69 742.552 c 0,56,57
 1977.86 712.217 1977.86 712.217 1640.69 576.552 c 24,58,59
 1630.73 572.546 1630.73 572.546 1600.69 576.552 c 0,60,61
 1577.56 579.636 1577.56 579.636 1566.69 554.552 c 0,62,63
 1566.18 553.38 1566.18 553.38 1526.69 210.552 c 24,64,65
 1516.05 119.723 1516.05 119.723 1444.69 -95.4482 c 0,66,67
 1428.41 -144.53 1428.41 -144.53 1402.69 -169.448 c 24,68,69
 1298.28 -270.593 1298.28 -270.593 1252.69 -281.448 c 25,70,71
 1307.69 -214.448 1307.69 -214.448 1318.69 -189.448 c 0,72,73
 1347.45 -128.727 1347.45 -128.727 1358.69 -73.4482 c 24,74,75
 1376.22 12.7471 1376.22 12.7471 1416.69 292.552 c 24,76,77
 1443.65 478.906 1443.65 478.906 1444.69 484.552 c 0,78,79
 1450.23 514.515 1450.23 514.515 1472.69 548.552 c 24,80,81
 1505.69 598.552 1505.69 598.552 1506.69 614.552 c 0,82,83
 1508.4 654.798 1508.4 654.798 1494.69 666.552 c 0,84,85
 1479.27 680.572 1479.27 680.572 1452.69 670.552 c 0,86,87
 1439.81 665.697 1439.81 665.697 1362.69 574.552 c 0,88,89
 1328.69 534.552 1328.69 534.552 1212.69 252.552 c 24,90,91
 1160.37 176.837 1160.37 176.837 1040.69 108.552 c 24,92,93
 950.634 57.1689 950.634 57.1689 886.693 66.5518 c 24,94,95
 831.233 74.6904 831.233 74.6904 856.693 135.552 c 0,96,97
 897.693 233.552 897.693 233.552 914.693 264.552 c 24,98,99
 949.584 319.489 949.584 319.489 970.693 400.552 c 24,100,101
 980.903 439.745 980.903 439.745 964.693 456.552 c 24,102,103
 943.953 478.058 943.953 478.058 916.693 456.552 c 24,104,105
 886.733 432.914 886.733 432.914 784.693 314.552 c 0,106,107
 759.563 285.554 759.563 285.554 732.693 222.552 c 0,108,109
 703.693 154.552 703.693 154.552 494.693 48.5518 c 24,110,111
 343.546 -25.5059 343.546 -25.5059 344.693 48.5518 c 24,112,113
 346.693 177.552 346.693 177.552 374.693 232.552 c 0,114,115
 458.146 388.869 458.146 388.869 460.693 404.552 c 24,116,117
 471.427 469.758 471.427 469.758 442.693 472.552 c 24,118,119
 377.985 471.331 377.985 471.331 316.693 418.552 c 0,120,121
 278.693 385.552 278.693 385.552 84.6934 110.552 c 24,122,123
 66.4922 86.1523 66.4922 86.1523 46.6934 88.5518 c 24,0,1
EndSplineSet
Validated: 33
EndChar

StartChar: pfEclN
Encoding: 58386 58386 17
Width: 1958
VWidth: 0
Flags: W
LayerCount: 2
Fore
SplineSet
51 18 m 24,0,1
 -7.9602 11.6828 -7.9602 11.6828 25 72 c 0,2,3
 226.715 455.653 226.715 455.653 461 550 c 24,4,5
 555.283 587.968 555.283 587.968 529 506 c 0,6,7
 454.662 278.029 454.662 278.029 455 276 c 0,8,9
 450.942 190.786 450.942 190.786 481 172 c 0,10,11
 532.984 139.51 532.984 139.51 553 188 c 0,12,13
 619.886 353.305 619.886 353.305 688 456 c 0,14,15
 755.151 557.244 755.151 557.244 909 602 c 24,16,17
 983.434 623.652 983.434 623.652 963 536 c 0,18,19
 923.093 364.821 923.093 364.821 919 322 c 24,20,21
 914.456 274.467 914.456 274.467 937 264 c 24,22,23
 961.692 252.536 961.692 252.536 975 296 c 0,24,25
 1005.84 397.136 1005.84 397.136 1115 522 c 24,26,27
 1220.33 642.489 1220.33 642.489 1301 664 c 0,28,29
 1336.07 673.051 1336.07 673.051 1323 702 c 24,30,31
 1309 733 1309 733 1313 750 c 0,32,33
 1321.3 788.178 1321.3 788.178 1343 782 c 0,34,35
 1479.54 736.812 1479.54 736.812 1521 732 c 0,36,37
 1635 720 1635 720 1803 724 c 24,38,39
 1868.73 723.922 1868.73 723.922 1813 708 c 24,40,41
 1746.3 688.945 1746.3 688.945 1480 678 c 0,42,43
 1432.21 675.974 1432.21 675.974 1439 654 c 0,44,45
 1446.56 629.543 1446.56 629.543 1445 622 c 0,46,47
 1383.04 312.259 1383.04 312.259 1220 209 c 0,48,49
 1136.47 183.757 1136.47 183.757 1167 212 c 0,50,51
 1250 288 1250 288 1267 326 c 24,52,53
 1321.75 436.317 1321.75 436.317 1347 552 c 24,54,55
 1356.28 594.501 1356.28 594.501 1329 610 c 24,56,57
 1294.56 629.568 1294.56 629.568 1259 602 c 24,58,59
 1163.69 489.606 1163.69 489.606 1151 472 c 0,60,61
 1091.08 391.341 1091.08 391.341 1073 296 c 0,62,63
 1062 238 1062 238 871 130 c 24,64,65
 834.533 109.652 834.533 109.652 815 162 c 24,66,67
 800.788 200.087 800.788 200.087 821 264 c 0,68,69
 860 381 860 381 859 418 c 24,70,71
 859.638 499.275 859.638 499.275 847 516 c 24,72,73
 828.319 540.725 828.319 540.725 791 508 c 24,74,75
 737.691 461.252 737.691 461.252 717 402 c 24,76,77
 651 213 651 213 635 178 c 0,78,79
 604.339 104.54 604.339 104.54 453 82 c 24,80,81
 381.792 71.3945 381.792 71.3945 353 136 c 24,82,83
 331.458 184.338 331.458 184.338 371 266 c 0,84,85
 417 361 417 361 417 392 c 24,86,87
 418.835 437.031 418.835 437.031 393 442 c 24,88,89
 350.745 450.126 350.745 450.126 313 412 c 24,90,91
 254.527 352.936 254.527 352.936 195 242 c 24,92,-1
 137 84 l 24,93,94
 97.7945 23.0137 97.7945 23.0137 51 18 c 24,0,1
EndSplineSet
Validated: 33
EndChar

StartChar: pfN
Encoding: 58387 58387 18
Width: 1892
VWidth: 0
Flags: W
LayerCount: 2
Fore
SplineSet
-18 -18 m 0,0,1
 -27.1912 -11.3824 -27.1912 -11.3824 -27.1912 3.61548 c 0,2,3
 -27.1912 29.4118 -27.1912 29.4118 0 80 c 0,4,5
 108 280 108 280 430 574 c 16,6,7
 473.47 613.69 473.47 613.69 515.352 613.69 c 0,8,9
 539.95 613.69 539.95 613.69 564 600 c 0,10,11
 587.674 586.37 587.674 586.37 587.674 533.626 c 0,12,13
 587.674 512.848 587.674 512.848 584 486 c 8,14,15
 563 332 563 332 526 314 c 16,16,17
 524.958 309.208 524.958 309.208 524.958 305.285 c 0,18,19
 524.958 290.375 524.958 290.375 540 288 c 0,20,21
 542.625 287.625 542.625 287.625 545.188 287.625 c 0,22,23
 563.125 287.625 563.125 287.625 578 306 c 0,24,25
 856 669 856 669 1080 760 c 0,26,27
 1113.35 773.611 1113.35 773.611 1113.35 790.927 c 0,28,29
 1113.35 799.056 1113.35 799.056 1106 808 c 0,30,31
 1077 843 1077 843 1068 900 c 16,32,33
 1066.25 910.5 1066.25 910.5 1066.25 919.375 c 0,34,35
 1066.25 946 1066.25 946 1082 958 c 0,36,37
 1111.56 981.112 1111.56 981.112 1128.99 981.112 c 0,38,39
 1143.99 981.112 1143.99 981.112 1150 964 c 0,40,41
 1183 870 1183 870 1210 848 c 0,42,43
 1233 829 1233 829 1308 828 c 0,44,45
 1311.87 827.947 1311.87 827.947 1315.79 827.947 c 0,46,47
 1461.03 827.947 1461.03 827.947 1684 900 c 0,48,49
 1760.28 908.926 1760.28 908.926 1798.22 908.926 c 0,50,51
 1835.76 908.926 1835.76 908.926 1835.76 900.185 c 0,52,53
 1835.76 885.103 1835.76 885.103 1724 844 c 0,54,55
 1537.37 775.789 1537.37 775.789 1381.25 775.789 c 0,56,57
 1372.58 775.789 1372.58 775.789 1364 776 c 0,58,59
 1361.89 776.056 1361.89 776.056 1359.85 776.056 c 0,60,61
 1325.22 776.056 1325.22 776.056 1312 760 c 0,62,63
 1298.5 743.5 1298.5 743.5 1298.5 723.625 c 0,64,65
 1298.5 717 1298.5 717 1300 710 c 0,66,67
 1301.56 702.188 1301.56 702.188 1301.56 694.57 c 0,68,69
 1301.56 677.812 1301.56 677.812 1294 662 c 0,70,71
 1145 354 1145 354 998 184 c 0,72,73
 975.231 157.673 975.231 157.673 953.474 157.673 c 0,74,75
 944.654 157.673 944.654 157.673 936 162 c 0,76,77
 918.345 170.828 918.345 170.828 918.345 186.961 c 0,78,79
 918.345 200.069 918.345 200.069 930 218 c 0,80,81
 1071 436 1071 436 1134 576 c 0,82,83
 1167.92 651.923 1167.92 651.923 1167.92 680.876 c 0,84,85
 1167.92 687.769 1167.92 687.769 1166 692 c 0,86,87
 1156.83 712.167 1156.83 712.167 1136.46 712.167 c 0,88,89
 1123.5 712.167 1123.5 712.167 1106 704 c 0,90,91
 813 566 813 566 588 200 c 0,92,93
 540 122 540 122 440 82 c 16,94,95
 421.826 74.1522 421.826 74.1522 408.77 74.1522 c 0,96,97
 390.217 74.1522 390.217 74.1522 382 90 c 0,98,99
 375.75 102.083 375.75 102.083 375.75 119.722 c 0,100,101
 375.75 144.417 375.75 144.417 388 180 c 0,102,103
 439 332 439 332 440 404 c 16,104,105
 440.167 412.333 440.167 412.333 440.167 419.444 c 0,106,107
 440.167 455 440.167 455 436 460 c 0,108,109
 430.886 465.114 430.886 465.114 423.681 465.114 c 0,110,111
 409.75 465.114 409.75 465.114 388 446 c 0,112,113
 242 318 242 318 96 46 c 0,114,115
 55.0069 -29.5137 55.0069 -29.5137 14.0137 -29.5137 c 0,116,-1
 -18 -18 l 0,0,1
EndSplineSet
Validated: 1
Comment: "porrectus flexus cum episema" 
EndChar

StartChar: pfEclT
Encoding: 58388 58388 19
Width: 1808
VWidth: 0
Flags: W
LayerCount: 2
Fore
SplineSet
1258.84 722 m 0,0,1
 1348.65 702.74 1348.65 702.74 1396.84 720 c 0,2,3
 1483.52 751.04 1483.52 751.04 1510.84 804 c 0,4,5
 1526.45 834.23 1526.45 834.23 1514.84 878 c 0,6,7
 1503.51 920.75 1503.51 920.75 1466.84 928 c 0,8,9
 1410.67 939.1 1410.67 939.1 1364.84 922 c 0,10,11
 1332.42 910 1332.42 910 1252.84 818 c 24,12,13
 1182.66 739 1182.66 739 1258.84 722 c 0,0,1
37.4238 44 m 24,14,15
 5.58496 37.9033 5.58496 37.9033 19.4238 78 c 0,16,17
 59.4238 191 59.4238 191 87.4238 248 c 0,18,19
 136.558 341.238 136.558 341.238 327.424 452 c 24,20,21
 415.215 502.946 415.215 502.946 473.424 472 c 24,22,23
 523.284 445.491 523.284 445.491 485.424 368 c 0,24,25
 468.64 333.646 468.64 333.646 419.424 186 c 0,26,27
 401.351 131.782 401.351 131.782 437.424 116 c 0,28,29
 478.959 97.8281 478.959 97.8281 517.424 148 c 0,30,31
 563.424 208 563.424 208 577.424 340 c 24,32,33
 612.014 427.931 612.014 427.931 635.424 448 c 24,34,35
 750.854 546.942 750.854 546.942 843.424 568 c 24,36,37
 895.984 579.956 895.984 579.956 921.404 513.057 c 24,38,39
 947.484 444.412 947.484 444.412 919.424 368 c 0,40,41
 898.174 310.145 898.174 310.145 905.424 270 c 24,42,43
 912.594 230.314 912.594 230.314 945.424 224 c 24,44,45
 1003.12 212.904 1003.12 212.904 1009.42 250 c 0,46,47
 1049.41 473.96 1049.41 473.96 1101.42 628 c 24,48,49
 1167.75 824.45 1167.75 824.45 1219.42 872 c 24,50,51
 1377.79 1017.73 1377.79 1017.73 1527.42 1020 c 0,52,53
 1660.47 1022.01 1660.47 1022.01 1649.42 896 c 0,54,55
 1637.41 756.64 1637.41 756.64 1391.42 664 c 0,56,57
 1325 636.86 1325 636.86 1254.42 663 c 24,58,59
 1227.42 673 1227.42 673 1215.42 666 c 0,60,61
 1208.15 661.85 1208.15 661.85 1205.42 640 c 0,62,63
 1201.42 605 1201.42 605 1103.42 244 c 24,64,65
 1081.33 162.928 1081.33 162.928 879.424 122 c 24,66,67
 800.794 106.065 800.794 106.065 807.424 184 c 0,68,69
 821.424 332 821.424 332 823.424 372 c 24,70,71
 827.104 420.967 827.104 420.967 797.424 452 c 24,72,73
 768.624 482.109 768.624 482.109 735.424 464 c 24,74,75
 690.854 439.69 690.854 439.69 687.424 392 c 0,76,77
 675.424 257 675.424 257 587.424 138 c 24,78,79
 520.824 45.4219 520.824 45.4219 361.424 10 c 24,80,81
 315.895 -0.118164 315.895 -0.118164 299.424 74 c 24,82,83
 289.488 118.714 289.488 118.714 321.424 190 c 0,84,85
 377.424 315 377.424 315 373.424 334 c 24,86,87
 368.059 384.369 368.059 384.369 353.424 396 c 24,88,89
 324.005 419.384 324.005 419.384 295.424 396 c 24,90,91
 198.205 298.285 198.205 298.285 177.424 252 c 0,92,93
 151.424 197 151.424 197 113.424 96 c 24,94,95
 98.7119 55.7363 98.7119 55.7363 37.4238 44 c 24,14,15
EndSplineSet
Validated: 33
EndChar

StartChar: pfEpr
Encoding: 58389 58389 20
Width: 1770
VWidth: 0
Flags: W
LayerCount: 2
Fore
SplineSet
1463 278 m 24,0,1
 1392.61 274.421 1392.61 274.421 1411 348 c 0,2,3
 1430 424 1430 424 1489 430 c 24,4,5
 1542.66 433.836 1542.66 433.836 1529 354 c 24,6,7
 1516.46 280.718 1516.46 280.718 1463 278 c 24,0,1
35 20 m 24,8,9
 0.470913 40.3112 0.470913 40.3112 21 74 c 0,10,11
 227.728 410.851 227.728 410.851 441 506 c 24,12,13
 550.05 554.652 550.05 554.652 527 496 c 0,14,15
 475.374 364.636 475.374 364.636 434 219 c 24,16,17
 418.368 163.976 418.368 163.976 427 144 c 24,18,19
 437.706 119.224 437.706 119.224 469 138 c 24,20,21
 489.517 150.31 489.517 150.31 507 192 c 0,22,23
 597.252 402.589 597.252 402.589 623 440 c 24,24,25
 738.936 608.454 738.936 608.454 863 631 c 0,26,27
 974.679 651.296 974.679 651.296 945 540 c 0,28,29
 884 317 884 317 861 258 c 24,30,31
 846.071 191.886 846.071 191.886 861 168 c 24,32,33
 880.615 136.615 880.615 136.615 921 162 c 24,34,35
 980.66 199.501 980.66 199.501 1001 256 c 0,36,37
 1020 307 1020 307 1069 500 c 24,38,39
 1136.61 610.136 1136.61 610.136 1249 660 c 24,40,41
 1329.73 695.816 1329.73 695.816 1353 626 c 0,42,43
 1375.88 556 1375.88 556 1405 556 c 0,44,45
 1430.38 556.438 1430.38 556.438 1493 580 c 0,46,47
 1544.09 599.221 1544.09 599.221 1571 592 c 24,48,49
 1621.85 578.358 1621.85 578.358 1575 558 c 0,50,51
 1494.19 522.885 1494.19 522.885 1418 512 c 0,52,53
 1400.27 509.467 1400.27 509.467 1377 492 c 0,54,55
 1336.92 461.912 1336.92 461.912 1327 464 c 24,56,57
 1292.88 471.184 1292.88 471.184 1263 516 c 0,58,59
 1243.5 545 1243.5 545 1237 556 c 24,60,61
 1203.43 574.016 1203.43 574.016 1181 560 c 24,62,63
 1165.22 550.139 1165.22 550.139 1157 506 c 0,64,65
 1125.4 331.632 1125.4 331.632 1115 316 c 24,66,67
 1038.54 201.027 1038.54 201.027 887 100 c 24,68,69
 819.538 55.0252 819.538 55.0252 755 76 c 24,70,71
 696.226 95.1015 696.226 95.1015 727 152 c 0,72,73
 797.21 279.07 797.21 279.07 809 318 c 24,74,75
 834.752 403.028 834.752 403.028 833 502 c 24,76,77
 832.5 530.25 832.5 530.25 805 544 c 24,78,79
 789.323 551.838 789.323 551.838 765 536 c 24,80,81
 729.604 512.952 729.604 512.952 719 488 c 0,82,83
 666.831 376.438 666.831 376.438 619 258 c 0,84,85
 577.834 158.088 577.834 158.088 375 42 c 24,86,87
 331.631 17.1785 331.631 17.1785 301 76 c 24,88,89
 289.673 97.7521 289.673 97.7521 318.5 150.5 c 0,90,91
 390 279.5 390 279.5 391 316 c 24,92,93
 394.381 369.278 394.381 369.278 385 380 c 24,94,95
 367.727 399.74 367.727 399.74 335 380 c 24,96,97
 304.358 357.758 304.358 357.758 259 304 c 0,98,99
 204 238.5 204 238.5 49 36 c 24,100,-1
 35 20 l 24,8,9
EndSplineSet
Validated: 33
EndChar

StartChar: pfS
Encoding: 58390 58390 21
Width: 1192
VWidth: 0
Flags: W
LayerCount: 2
Fore
SplineSet
26.4523 20.558 m 24,0,1
 2.26538 37.3028 2.26538 37.3028 14.4523 57.558 c 0,2,3
 247.452 426.558 247.452 426.558 476.452 542.558 c 24,4,5
 513.63 561.263 513.63 561.263 528.452 536.558 c 24,6,7
 551.863 497.539 551.863 497.539 530.452 452.558 c 0,8,9
 414.182 216.236 414.182 216.236 405.452 173.558 c 0,10,11
 392.728 111.351 392.728 111.351 414.452 105.558 c 0,12,13
 461.373 92.9876 461.373 92.9876 493.452 121.558 c 0,14,15
 560.538 180.512 560.538 180.512 629.452 309.558 c 0,16,17
 736.452 509.558 736.452 509.558 885.452 584.558 c 24,18,19
 906.375 595.477 906.375 595.477 930.452 557.558 c 24,20,21
 1064.45 346.526 1064.45 346.526 1092.45 258.558 c 24,22,23
 1103.87 222.696 1103.87 222.696 1043.45 202.558 c 24,24,25
 1034.71 199.643 1034.71 199.643 1011.45 231.558 c 24,26,27
 865.089 453.33 865.089 453.33 855.452 460.558 c 0,28,29
 846.629 467.911 846.629 467.911 825.452 465.558 c 0,30,31
 798.475 461.879 798.475 461.879 784.452 447.558 c 0,32,33
 739.451 401.081 739.451 401.081 640.452 206.558 c 0,34,35
 583.452 93.558 583.452 93.558 389.452 28.558 c 24,36,37
 336.137 10.2654 336.137 10.2654 313.452 57.558 c 24,38,39
 293.463 99.2313 293.463 99.2313 330.452 151.558 c 0,40,41
 406.649 258.05 406.649 258.05 414.452 277.558 c 0,42,43
 444.813 349.956 444.813 349.956 439.452 403.558 c 0,44,45
 436.784 435.573 436.784 435.573 414.452 434.558 c 0,46,47
 397.56 447.169 397.56 447.169 357.452 415.558 c 0,48,49
 243.452 321.558 243.452 321.558 53.4523 30.558 c 24,50,51
 40.4937 10.837 40.4937 10.837 26.4523 20.558 c 24,0,1
EndSplineSet
Validated: 33
EndChar

StartChar: clEpo
Encoding: 58391 58391 22
Width: 1866
VWidth: 0
Flags: W
LayerCount: 2
Fore
SplineSet
39 14 m 24,0,1
 -8.16253 23.1705 -8.16253 23.1705 17 78 c 0,2,3
 137.535 345.604 137.535 345.604 353 628 c 24,4,5
 420.701 716.731 420.701 716.731 487 694 c 24,6,7
 516.877 683.756 516.877 683.756 493 580 c 24,8,9
 446.287 377.011 446.287 377.011 445 368 c 0,10,11
 441.907 316.969 441.907 316.969 475 328 c 0,12,13
 480.756 329.919 480.756 329.919 515 372 c 0,14,15
 786.057 716.713 786.057 716.713 943 826 c 24,16,17
 1023.28 881.901 1023.28 881.901 1009 794 c 0,18,19
 965.875 544.127 965.875 544.127 961.937 506.064 c 0,20,21
 953.101 420.644 953.101 420.644 965 418 c 0,22,23
 983 414 983 414 1025 438 c 24,24,-1
 1639 814 l 24,25,26
 1716.57 852.216 1716.57 852.216 1703 772 c 24,27,28
 1695.11 725.35 1695.11 725.35 1617 684 c 24,29,30
 1566 657 1566 657 1527 692 c 0,31,32
 1516.24 701.11 1516.24 701.11 1473 674 c 24,33,34
 955 344 955 344 873 282 c 0,35,36
 841.345 259.822 841.345 259.822 819 296 c 24,37,38
 809.755 310.968 809.755 310.968 831 350 c 24,39,40
 873 428 873 428 903 544 c 0,41,42
 912.446 584.385 912.446 584.385 891 638 c 0,43,44
 879.016 663.822 879.016 663.822 849 646 c 24,45,46
 785 610 785 610 745 557 c 0,47,48
 405.527 156.343 405.527 156.343 401 160 c 24,49,50
 371.557 129.448 371.557 129.448 347 144 c 24,51,52
 338.49 149.043 338.49 149.043 347 192 c 24,53,54
 380.856 315.99 380.856 315.99 389 356 c 24,55,56
 409.782 465.105 409.782 465.105 395 518 c 0,57,58
 387.693 544.149 387.693 544.149 359 544 c 0,59,60
 344.921 543.927 344.921 543.927 317 518 c 24,61,-1
 89 64 l 24,62,63
 59.2489 10.0627 59.2489 10.0627 39 14 c 24,0,1
EndSplineSet
Validated: 33
EndChar

StartChar: clEpoN1
Encoding: 58392 58392 23
Width: 1868
VWidth: 0
Flags: W
LayerCount: 2
Fore
SplineSet
71 28 m 24,0,1
 17.2108 42.155 17.2108 42.155 35 84 c 24,2,3
 149.52 353.382 149.52 353.382 247 442 c 24,4,5
 460 636 460 636 499 602 c 0,6,7
 527.774 575.245 527.774 575.245 499 494 c 0,8,9
 412.404 260.869 412.404 260.869 409 250 c 0,10,11
 380.572 192.249 380.572 192.249 425 162 c 24,12,13
 464.927 134.816 464.927 134.816 503 186 c 24,14,15
 527.086 218.38 527.086 218.38 576 365 c 0,16,17
 622.134 500.634 622.134 500.634 771 636 c 24,18,19
 868.925 725.045 868.925 725.045 973 726 c 24,20,21
 1007.34 726.315 1007.34 726.315 989 638 c 24,22,23
 892.327 412.985 892.327 412.985 897 360 c 24,24,25
 903.619 284.947 903.619 284.947 917 294 c 0,26,27
 1521.43 702.908 1521.43 702.908 1555 706 c 0,28,29
 1609.54 710.782 1609.54 710.782 1611 716 c 24,30,31
 1618 741 1618 741 1603 754 c 0,32,33
 1571.63 779.024 1571.63 779.024 1575 804 c 0,34,35
 1581.62 853.052 1581.62 853.052 1643 860 c 24,36,37
 1676.41 863.782 1676.41 863.782 1681 816 c 24,38,39
 1686.43 759.528 1686.43 759.528 1735 696 c 0,40,41
 1762.35 660.226 1762.35 660.226 1715 638 c 24,42,43
 1708.59 634.99 1708.59 634.99 1637 650 c 24,44,45
 1590.78 659.692 1590.78 659.692 1591 664 c 0,46,47
 1589.75 639.668 1589.75 639.668 1579 634 c 0,48,49
 1091.16 376.81 1091.16 376.81 813 160 c 0,50,51
 791.306 143.012 791.306 143.012 775 172 c 24,52,53
 765.974 188.046 765.974 188.046 777 224 c 24,54,55
 863.889 446.079 863.889 446.079 867 472 c 24,56,57
 877.304 547.216 877.304 547.216 863 568 c 0,58,59
 844.843 594.383 844.843 594.383 825 590 c 0,60,61
 789.187 582.089 789.187 582.089 763 542 c 0,62,63
 707.476 456.999 707.476 456.999 629 252 c 24,64,65
 551.491 149.079 551.491 149.079 397 56 c 24,66,67
 345.054 24.7031 345.054 24.7031 307 58 c 24,68,69
 284.405 77.7703 284.405 77.7703 301 140 c 24,70,71
 382.107 308.372 382.107 308.372 387 358 c 24,72,73
 394.699 425.37 394.699 425.37 377 442 c 0,74,75
 355.232 462.453 355.232 462.453 333 442 c 0,76,77
 222.322 342.284 222.322 342.284 111 64 c 0,78,79
 94.1607 21.9051 94.1607 21.9051 71 28 c 24,0,1
EndSplineSet
Validated: 33
EndChar

StartChar: poT
Encoding: 58393 58393 24
Width: 1432
VWidth: 0
Flags: W
LayerCount: 2
Fore
SplineSet
80 0 m 24,0,1
 -22.2899 10.2414 -22.2899 10.2414 0 46 c 0,2,3
 501.219 842.403 501.219 842.403 894 1022 c 24,4,5
 961.292 1052.77 961.292 1052.77 984 996 c 0,6,7
 990.566 979.586 990.566 979.586 936 900 c 24,8,9
 805.985 710.369 805.985 710.369 800 658 c 0,10,11
 791.51 583.709 791.51 583.709 840 556 c 0,12,13
 929.943 502.462 929.943 502.462 964 538 c 0,14,15
 1056 636 1056 636 1232 972 c 24,16,17
 1258.9 1009.18 1258.9 1009.18 1294 994 c 24,18,19
 1326.14 980.103 1326.14 980.103 1306 940 c 24,20,21
 1128 585.488 1128 585.488 1056 520 c 24,22,23
 938.243 412.888 938.243 412.888 764.005 446.998 c 24,24,25
 601.241 478.862 601.241 478.862 678 594 c 0,26,27
 786 756 786 756 790 766 c 24,28,29
 810.213 824.531 810.213 824.531 802 854 c 24,30,31
 791.356 892.195 791.356 892.195 756 888 c 24,32,33
 723.909 884.193 723.909 884.193 684 840 c 0,34,35
 280.717 409.221 280.717 409.221 150 126 c 0,36,37
 138 100 138 100 144 36 c 24,38,39
 146.97 -4.6505 146.97 -4.6505 80 0 c 24,0,1
EndSplineSet
Validated: 33
Comment: "porrectus diminutus" 
EndChar

StartChar: clNEpi
Encoding: 58394 58394 25
Width: 1536
VWidth: 0
Flags: W
LayerCount: 2
Fore
SplineSet
1081 22 m 24,0,1
 990 33 990 33 1001 84 c 0,2,3
 1016.41 147.967 1016.41 147.967 1124 154 c 24,4,5
 1235.94 160.277 1235.94 160.277 1215 96 c 24,6,7
 1186.73 9.21937 1186.73 9.21937 1081 22 c 24,0,1
31 20 m 24,8,9
 -7.00999 23.4555 -7.00999 23.4555 9 60 c 24,10,11
 151.023 384.184 151.023 384.184 215 440 c 0,12,13
 394.285 595.623 394.285 595.623 469 616 c 0,14,15
 480 619 480 619 483 664 c 24,16,17
 484.581 677.86 484.581 677.86 515 688 c 0,18,19
 542 697 542 697 533 710 c 24,20,-1
 521 746 l 0,21,22
 502.27 788.568 502.27 788.568 499 818 c 24,23,24
 497 836 497 836 513 864 c 0,25,26
 528.794 892.523 528.794 892.523 583 900 c 24,27,28
 615.176 904.438 615.176 904.438 629 880 c 0,29,30
 684 781 684 781 705 758 c 24,31,32
 722.986 736.272 722.986 736.272 757 756 c 0,33,34
 821 795 821 795 917 876 c 24,35,36
 950.445 878.935 950.445 878.935 935 866 c 0,37,38
 750.952 693.981 750.952 693.981 643 652 c 24,39,40
 625 645 625 645 583 646 c 0,41,42
 554.174 647.87 554.174 647.87 549 622 c 24,43,44
 539.218 584.177 539.218 584.177 529 510 c 24,45,46
 495.217 264.761 495.217 264.761 495 230 c 24,47,48
 494.811 199.835 494.811 199.835 527 190 c 24,49,50
 554.824 181.498 554.824 181.498 567 208 c 0,51,52
 630.619 346.465 630.619 346.465 673 406 c 0,53,54
 716 466 716 466 865 518 c 24,55,56
 910.812 533.195 910.812 533.195 939 474 c 0,57,58
 969 411 969 411 989 330 c 0,59,60
 993.69 305.893 993.69 305.893 1051 320 c 0,61,62
 1117 337 1117 337 1325 404 c 24,63,64
 1376.65 421.032 1376.65 421.032 1361 348 c 24,65,66
 1347.82 286.498 1347.82 286.498 1295 264 c 24,67,68
 1271.89 254.155 1271.89 254.155 1253 302 c 0,69,70
 1246.53 318.383 1246.53 318.383 1215 320 c 0,71,72
 1170.61 322.219 1170.61 322.219 1121 306 c 0,73,74
 1107.24 301.503 1107.24 301.503 947 220 c 24,75,76
 904.841 198.557 904.841 198.557 889 242 c 0,77,78
 839.41 377.993 839.41 377.993 833 390 c 0,79,80
 822.821 407.803 822.821 407.803 811 418 c 0,81,82
 783.337 437.736 783.337 437.736 771 416 c 0,83,84
 749 378 749 378 625 206 c 0,85,86
 577.46 141.071 577.46 141.071 423 78 c 24,87,88
 377.187 59.2932 377.187 59.2932 385 108 c 0,89,90
 435 401 435 401 437 440 c 24,91,92
 441.214 490.314 441.214 490.314 423 518 c 24,93,94
 413.637 532.232 413.637 532.232 387 516 c 24,95,96
 314.496 471.818 314.496 471.818 295 440 c 24,97,-1
 137 108 l 24,98,99
 116.819 68.4536 116.819 68.4536 97 52 c 24,100,101
 55.7449 17.7505 55.7449 17.7505 31 20 c 24,8,9
EndSplineSet
Validated: 33
EndChar

StartChar: clEpi
Encoding: 58395 58395 26
Width: 1328
VWidth: 0
Flags: W
LayerCount: 2
Fore
SplineSet
911 -38 m 24,0,1
 888.972 -8.73043 888.972 -8.73043 922 37 c 24,2,3
 965.654 97.4442 965.654 97.4442 1002 88 c 24,4,5
 1052.35 74.9158 1052.35 74.9158 1049 4 c 24,6,7
 1046.72 -44.2599 1046.72 -44.2599 995 -60 c 24,8,9
 940.125 -76.701 940.125 -76.701 911 -38 c 24,0,1
53 14 m 0,10,11
 -24.6264 -34.8729 -24.6264 -34.8729 9 58 c 0,12,13
 110.085 312.187 110.085 312.187 207 420 c 24,14,15
 374.773 606.639 374.773 606.639 507 612 c 24,16,17
 581 615 581 615 555 520 c 0,18,19
 500.43 333.421 500.43 333.421 511 270 c 0,20,21
 517.317 228.714 517.317 228.714 533 220 c 0,22,23
 539.899 217.324 539.899 217.324 569 244 c 0,24,25
 694 350 694 350 787 406 c 0,26,27
 838.474 438.348 838.474 438.348 843 378 c 0,28,29
 849 298 849 298 880 275 c 152,-1,30
 911 252 911 252 939 258 c 0,31,32
 991.755 269.305 991.755 269.305 1067 324 c 0,33,34
 1126.68 366.126 1126.68 366.126 1141 308 c 24,35,36
 1153.54 257.088 1153.54 257.088 1101 186 c 24,37,38
 1059.72 141.314 1059.72 141.314 1039 170 c 24,39,40
 1026 188 1026 188 1021 212 c 0,41,42
 1017.18 228.024 1017.18 228.024 987 224 c 0,43,44
 933.211 216.211 933.211 216.211 895 178 c 0,45,46
 861.944 147.301 861.944 147.301 839 150 c 0,47,48
 810 155 810 155 807 186 c 0,49,50
 792.675 270.472 792.675 270.472 755 292 c 0,51,52
 700.16 319.447 700.16 319.447 693 292 c 0,53,54
 662.587 223.99 662.587 223.99 607 174 c 0,55,56
 593.165 167.016 593.165 167.016 543 162 c 0,57,58
 531 161 531 161 421 44 c 0,59,60
 399.868 22.3952 399.868 22.3952 369 64 c 24,61,62
 361.671 73.8786 361.671 73.8786 375 106 c 24,63,64
 437 245 437 245 443 366 c 0,65,66
 449.521 470.77 449.521 470.77 417 494 c 0,67,68
 389.34 515.809 389.34 515.809 341 476 c 0,69,70
 262.98 407.437 262.98 407.437 177 228 c 0,71,72
 85 37 85 37 53 14 c 0,10,11
EndSplineSet
Validated: 33
Comment: "clivis pressus minor" 
EndChar

StartChar: clEpilsc1lst3
Encoding: 58396 58396 27
Width: 2270
VWidth: 0
Flags: W
LayerCount: 2
Fore
SplineSet
1381 844 m 24,0,1
 1320.94 840.225 1320.94 840.225 1329 896 c 0,2,3
 1335 937.542 1335 937.542 1335 990 c 0,4,5
 1335 1017.07 1335 1017.07 1273 1022.53 c 128,-1,6
 1211 1028 1211 1028 1025 1034 c 24,7,8
 983 1039.43 983 1039.43 983 1060 c 24,9,10
 983 1075.97 983 1075.97 1025 1076 c 24,11,12
 1363.93 1100.78 1363.93 1100.78 1485 1090 c 0,13,14
 1683.29 1073.36 1683.29 1073.36 1803 1068 c 0,15,16
 1881 1064 1881 1064 2121 1076 c 0,17,18
 2173.59 1078.43 2173.59 1078.43 2119 1044 c 0,19,20
 2110.83 1034.83 2110.83 1034.83 2080 1033 c 0,21,22
 1524 1000 1524 1000 1433 1006 c 0,23,24
 1398.06 1007.81 1398.06 1007.81 1411 932 c 0,25,26
 1418 891 1418 891 1441 892 c 0,27,28
 1485 891 1485 891 1514.05 906.012 c 24,29,30
 1582.57 936.385 1582.57 936.385 1543 888 c 0,31,32
 1489.03 850.79 1489.03 850.79 1381 844 c 24,0,1
439 1062 m 24,33,34
 354.066 1092.17 354.066 1092.17 367 1126 c 24,35,36
 392 1194 392 1194 463 1268 c 0,37,38
 499.12 1304.74 499.12 1304.74 567 1274 c 24,39,40
 605.545 1256.55 605.545 1256.55 569 1220 c 24,41,42
 536 1187 536 1187 533 1202 c 0,43,44
 527.716 1233.7 527.716 1233.7 517 1230 c 24,45,46
 496 1237 496 1237 475 1226 c 0,47,48
 453.095 1214.86 453.095 1214.86 447 1160 c 0,49,50
 443.986 1123.23 443.986 1123.23 473 1106 c 0,51,52
 490.544 1096.31 490.544 1096.31 539 1106 c 24,53,54
 564.846 1112.19 564.846 1112.19 519 1072 c 24,55,56
 470.688 1050.74 470.688 1050.74 439 1062 c 24,33,34
975 -10 m 24,57,58
 923.06 19.2752 923.06 19.2752 945 62 c 24,59,60
 981.158 132.413 981.158 132.413 1051 138 c 24,61,62
 1143.05 145.362 1143.05 145.362 1145 78 c 24,63,64
 1145.9 47.0525 1145.9 47.0525 1055 0 c 24,65,66
 1004.05 -26.3739 1004.05 -26.3739 975 -10 c 24,57,58
39 0 m 24,67,68
 -35.4636 -9.60821 -35.4636 -9.60821 0 64 c 0,69,70
 294 669 294 669 545 772 c 24,71,72
 613.831 799.629 613.831 799.629 635 778 c 24,73,74
 653.774 758.818 653.774 758.818 637 678 c 24,75,76
 595.798 479.479 595.798 479.479 547 354 c 0,77,78
 525.893 299.726 525.893 299.726 547 288 c 0,79,80
 565.568 277.685 565.568 277.685 595 308 c 0,81,82
 702 422 702 422 915 540 c 24,83,84
 998.885 586.482 998.885 586.482 1007 554 c 0,85,86
 1034.91 442.288 1034.91 442.288 1031 420 c 0,87,88
 1022.23 365.424 1022.23 365.424 1047 370 c 0,89,90
 1114.92 382.546 1114.92 382.546 1183 422 c 24,91,92
 1217.09 433.494 1217.09 433.494 1219 428 c 24,93,94
 1249.52 340.417 1249.52 340.417 1229 290 c 24,95,96
 1210.75 245.167 1210.75 245.167 1138 229 c 24,97,98
 1104.1 221.465 1104.1 221.465 1103 262 c 0,99,100
 1102 299 1102 299 1093 310 c 24,101,102
 1082.66 327.646 1082.66 327.646 1051 312 c 24,103,104
 980 275 980 275 945 262 c 0,105,106
 877 238.435 877 238.435 877 290 c 0,107,108
 877 384 877 384 873 416 c 24,109,110
 870.616 442.252 870.616 442.252 849 440 c 24,111,112
 815.784 436.54 815.784 436.54 777 406 c 24,113,-1
 435 114 l 24,114,115
 409.582 95.4906 409.582 95.4906 387 122 c 24,116,117
 377.443 133.22 377.443 133.22 389 168 c 0,118,119
 497 476 497 476 503 558 c 24,120,121
 508.482 620.608 508.482 620.608 493 646 c 24,122,123
 483.793 661.099 483.793 661.099 453 640 c 24,124,125
 411.611 611.641 411.611 611.641 385 572 c 0,126,127
 297.79 447.627 297.79 447.627 163 208 c 0,128,129
 154 192 154 192 155 84 c 24,130,131
 154.842 14.9449 154.842 14.9449 39 0 c 24,67,68
EndSplineSet
Validated: 33
Comment: "clivis pressus minor celeriter tenete" 
EndChar

StartChar: clEpr
Encoding: 58397 58397 28
Width: 1342
VWidth: 0
Flags: W
LayerCount: 2
Fore
SplineSet
1025 134 m 24,0,1
 933.695 131.147 933.695 131.147 963 182 c 0,2,3
 999 243 999 243 1047 248 c 24,4,5
 1104.12 253.995 1104.12 253.995 1091 186 c 24,6,7
 1081.3 135.759 1081.3 135.759 1025 134 c 24,0,1
33 22 m 24,8,9
 -21.3106 6.33351 -21.3106 6.33351 19 70 c 0,10,11
 266.891 462.845 266.891 462.845 489 518 c 24,12,13
 604.988 546.899 604.988 546.899 552 449 c 0,14,15
 443.989 249.441 443.989 249.441 429 202 c 24,16,17
 406.979 132.302 406.979 132.302 443 104 c 24,18,19
 509.583 51.6849 509.583 51.6849 541 114 c 0,20,21
 735.016 487.334 735.016 487.334 783 516 c 24,22,23
 903.448 588.591 903.448 588.591 921 490 c 0,24,25
 937.66 399.056 937.66 399.056 987 397 c 0,26,27
 1017 396 1017 396 1117 428 c 24,28,29
 1138.7 433.628 1138.7 433.628 1143 410 c 24,30,31
 1020.14 339.971 1020.14 339.971 917 314 c 24,32,33
 882.099 305.212 882.099 305.212 865 340 c 0,34,35
 836 399 836 399 817 412 c 24,36,37
 765.088 436.872 765.088 436.872 757 418 c 0,38,39
 711 321 711 321 631 148 c 24,40,41
 589.022 59.7705 589.022 59.7705 363 8 c 24,42,43
 213.736 -26.1891 213.736 -26.1891 273 66 c 0,44,45
 400 262 400 262 429 324 c 24,46,47
 457.683 382.635 457.683 382.635 449 400 c 24,48,49
 414.258 436.839 414.258 436.839 383 416 c 0,50,51
 299 363 299 363 123 100 c 24,52,53
 78.9276 35.2483 78.9276 35.2483 33 22 c 24,8,9
EndSplineSet
Validated: 33
EndChar

StartChar: clEpilsc2
Encoding: 58398 58398 29
Width: 1400
VWidth: 0
Flags: W
LayerCount: 2
Fore
SplineSet
731 1130 m 0,0,1
 655.761 1127.77 655.761 1127.77 615 1176 c 24,2,3
 577.554 1220.31 577.554 1220.31 611 1272 c 24,4,5
 645.238 1324.91 645.238 1324.91 725 1346 c 24,6,7
 770.948 1358.15 770.948 1358.15 785 1318 c 24,8,9
 792.219 1297.38 792.219 1297.38 753 1266 c 24,10,11
 743 1258 743 1258 711 1272 c 0,12,13
 691.47 1282.01 691.47 1282.01 673 1258 c 0,14,15
 654.918 1228.95 654.918 1228.95 673 1212 c 0,16,17
 713.064 1177.49 713.064 1177.49 747 1176 c 24,18,19
 923 1166 923 1166 1145 1184 c 0,20,21
 1224.26 1190.87 1224.26 1190.87 1191 1154 c 24,22,23
 947 1140 947 1140 731 1130 c 0,0,1
973 -42 m 24,24,25
 926.33 2.72505 926.33 2.72505 955 46 c 24,26,27
 1004.4 120.572 1004.4 120.572 1079 118 c 24,28,29
 1141.95 115.83 1141.95 115.83 1129 40 c 24,30,31
 1120.56 -9.43663 1120.56 -9.43663 1051 -46 c 24,32,33
 1003.32 -71.0605 1003.32 -71.0605 973 -42 c 24,24,25
71 34 m 24,34,35
 -22.0191 3.78868 -22.0191 3.78868 0 62 c 24,36,37
 99.3131 324.552 99.3131 324.552 245 494 c 24,38,39
 501.243 792.036 501.243 792.036 607 768 c 0,40,41
 652.726 757.609 652.726 757.609 629 632 c 0,42,43
 595 452 595 452 553 360 c 24,44,45
 531.304 308.508 531.304 308.508 559 296 c 24,46,47
 571.747 285.259 571.747 285.259 615 332 c 0,48,49
 750 475 750 475 927 572 c 24,50,51
 970.154 595.074 970.154 595.074 987 540 c 0,52,53
 1013 455 1013 455 1019 410 c 24,54,55
 1023.25 370.589 1023.25 370.589 1039 362 c 24,56,57
 1053.83 353.912 1053.83 353.912 1085 374 c 0,58,59
 1138 410 1138 410 1231 444 c 24,60,61
 1288.88 466.342 1288.88 466.342 1281 400 c 24,62,63
 1263.29 256.684 1263.29 256.684 1207 242 c 0,64,65
 1194.63 238.774 1194.63 238.774 1153 270 c 24,66,67
 1137 282 1137 282 1139 312 c 0,68,69
 1138.56 327.596 1138.56 327.596 1105 320 c 24,70,-1
 1033 288 l 24,71,72
 965 254 965 254 931 258 c 0,73,74
 900.704 262.887 900.704 262.887 849 418 c 0,75,76
 843.514 435.086 843.514 435.086 801 428 c 24,77,78
 768.16 422.527 768.16 422.527 741 400 c 24,79,-1
 461 146 l 24,80,81
 431.717 123.283 431.717 123.283 411 144 c 24,82,83
 396.119 158.881 396.119 158.881 409 198 c 24,84,85
 463 362 463 362 491 494 c 0,86,87
 512.781 598.349 512.781 598.349 495 614 c 0,88,89
 478.32 628.681 478.32 628.681 449 620 c 0,90,91
 407.348 607.667 407.348 607.667 355 526 c 0,92,93
 197.667 280.548 197.667 280.548 117 100 c 0,94,95
 90.3146 40.2731 90.3146 40.2731 71 34 c 24,34,35
EndSplineSet
Validated: 33
Comment: "clivis pressus minor celeriter" 
EndChar

StartChar: clS1
Encoding: 58400 58400 30
Width: 796
VWidth: 0
Flags: W
LayerCount: 2
Fore
SplineSet
49 20 m 24,0,1
 33.6967 27.9633 33.6967 27.9633 36.665 32.6631 c 0,2,3
 244 442 244 442 409 590 c 24,4,5
 438.439 617.808 438.439 617.808 469 606 c 24,6,7
 492.554 596.9 492.554 596.9 497 556 c 0,8,9
 535.334 252.71 535.334 252.71 587 228 c 0,10,11
 610 217 610 217 623 150 c 24,12,13
 631.339 111.423 631.339 111.423 529 52 c 24,14,15
 512.278 42.2906 512.278 42.2906 499 78 c 0,16,17
 396 355 396 355 385 376 c 24,18,19
 370.845 408.605 370.845 408.605 355 412 c 24,20,21
 323.352 418.782 323.352 418.782 301 394 c 0,22,23
 246 333 246 333 61 20 c 24,24,25
 57.8848 15.3766 57.8848 15.3766 49 20 c 24,0,1
EndSplineSet
Validated: 33
Comment: "clivis modified" 
EndChar

StartChar: clSN1
Encoding: 58401 58401 31
Width: 1082
VWidth: 0
Flags: W
LayerCount: 2
Fore
SplineSet
113 30 m 24,0,1
 82.1326 -4.08837 82.1326 -4.08837 31 30 c 24,2,3
 18.3036 38.4643 18.3036 38.4643 41 78 c 0,4,5
 266.027 451.498 266.027 451.498 279 462 c 0,6,7
 319 500 319 500 435 552 c 0,8,9
 476.232 572.061 476.232 572.061 453 586 c 0,10,11
 403 614 403 614 403 632 c 0,12,13
 401.47 657.233 401.47 657.233 421 672 c 24,14,15
 465.34 705.525 465.34 705.525 485 694 c 0,16,17
 547.436 654.688 547.436 654.688 597 654 c 0,18,19
 753 652 753 652 899 706 c 24,20,21
 957.06 689.812 957.06 689.812 915 674 c 24,22,23
 651 578 651 578 601 590 c 0,24,25
 561.789 597.668 561.789 597.668 533 556 c 24,26,27
 516.005 531.402 516.005 531.402 525 480 c 24,28,29
 553 320 553 320 743 8 c 0,30,31
 752.786 -9.39483 752.786 -9.39483 787 -22 c 24,32,33
 832.732 -41.649 832.732 -41.649 807 -72 c 24,34,35
 768.469 -117.447 768.469 -117.447 709 -114 c 24,36,37
 698.887 -113.414 698.887 -113.414 669 -64 c 24,38,39
 426.882 336.301 426.882 336.301 409 382 c 24,40,41
 391.438 426.882 391.438 426.882 357 420 c 0,42,43
 299.614 408.533 299.614 408.533 299 384 c 0,44,45
 297.242 384.203 297.242 384.203 261 284 c 0,46,47
 206.463 133.216 206.463 133.216 113 30 c 24,0,1
EndSplineSet
Validated: 33
Comment: "clivis modified cum episema" 
EndChar

StartChar: clS
Encoding: 58402 58402 32
Width: 633
VWidth: 0
Flags: W
LayerCount: 2
Fore
SplineSet
39 15 m 24,0,1
 7.50035 39.8179 7.50035 39.8179 20 68 c 24,2,3
 157.844 378.788 157.844 378.788 255 502 c 24,4,5
 347.773 619.654 347.773 619.654 501 678 c 24,6,7
 558.903 700.048 558.903 700.048 536 609 c 24,8,9
 480.688 389.113 480.688 389.113 379 193 c 0,10,11
 359.507 155.055 359.507 155.055 383 147 c 0,12,13
 421.351 134.216 421.351 134.216 466 139 c 0,14,15
 489 141 489 141 461 92 c 24,16,17
 417.941 64.2598 417.941 64.2598 362 72 c 24,18,19
 308.605 79.3879 308.605 79.3879 302 114 c 24,20,21
 298.407 132.829 298.407 132.829 337 203 c 0,22,23
 395.465 312.594 395.465 312.594 412.971 358.771 c 0,24,25
 452.13 457.749 452.13 457.749 449.5 504.001 c 0,26,27
 446.282 546.899 446.282 546.899 432 552 c 0,28,29
 390.358 569.147 390.358 569.147 374 554 c 0,30,31
 227.701 414.251 227.701 414.251 100 95 c 0,32,33
 94 80 94 80 86 16 c 24,34,35
 67.8848 -7.7577 67.8848 -7.7577 39 15 c 24,0,1
EndSplineSet
Validated: 33
Comment: "clivis modified" 
EndChar

StartChar: clSN
Encoding: 58403 58403 33
Width: 1000
VWidth: 0
LayerCount: 2
Fore
SplineSet
0 50 m 0,0,1
 151 431 151 431 460 602 c 0,2,3
 486.303 616.561 486.303 616.561 508.635 616.561 c 0,4,5
 533.848 616.561 533.848 616.561 554 598 c 0,6,7
 561 591.5 561 591.5 561 571 c 128,-1,8
 561 550.5 561 550.5 554 516 c 8,9,10
 513 312 513 312 482 248 c 0,11,12
 473.862 231.015 473.862 231.015 473.862 218.413 c 0,13,14
 473.862 195.4 473.862 195.4 501 187 c 0,15,16
 507.353 184.882 507.353 184.882 516.073 184.882 c 0,17,18
 532.059 184.882 532.059 184.882 556 192 c 0,19,20
 604.45 206.45 604.45 206.45 684.69 206.45 c 0,21,22
 698.85 206.45 698.85 206.45 714 206 c 0,23,24
 744.25 205.083 744.25 205.083 744.25 177.278 c 0,25,26
 744.25 174.75 744.25 174.75 744 172 c 0,27,28
 734 57 734 57 678 -72 c 16,29,30
 667.439 -97.4697 667.439 -97.4697 652.248 -97.4697 c 0,31,32
 642.985 -97.4697 642.985 -97.4697 632 -88 c 0,33,34
 623.972 -80.9167 623.972 -80.9167 623.972 -68.4815 c 0,35,36
 623.972 -54.5833 623.972 -54.5833 634 -34 c 0,37,38
 657 11 657 11 670 80 c 0,39,40
 672.893 96.0714 672.893 96.0714 672.893 106.564 c 0,41,42
 672.893 126.296 672.893 126.296 662.661 126.296 c 0,43,44
 661.407 126.296 661.407 126.296 660 126 c 0,45,46
 495 92 495 92 440 82 c 0,47,48
 375.25 69.75 375.25 69.75 344.528 69.75 c 0,49,50
 322.583 69.75 322.583 69.75 318 76 c 0,51,52
 314.479 80.875 314.479 80.875 314.479 86.4835 c 0,53,54
 314.479 101.583 314.479 101.583 340 122 c 0,55,56
 413 182 413 182 450 392 c 0,57,58
 452 403.25 452 403.25 452 414.125 c 0,59,60
 452 446.75 452 446.75 434 476 c 0,61,62
 419.243 499.838 419.243 499.838 400.621 499.838 c 0,63,64
 386.432 499.838 386.432 499.838 370 486 c 0,65,66
 202 342 202 342 80 46 c 0,67,68
 62 3 62 3 28 0 c 0,69,70
 23.8333 -0.416667 23.8333 -0.416667 20.1667 -0.416667 c 0,71,72
 -6.72222 -0.416667 -6.72222 -0.416667 -6.72222 21.9907 c 0,73,74
 -6.72222 33.1944 -6.72222 33.1944 0 50 c 0,0,1
EndSplineSet
Validated: 1
Comment: "clivis cum episema ultima" 
EndChar

StartChar: clSNsu2
Encoding: 58404 58404 34
Width: 1005
VWidth: 0
Flags: W
LayerCount: 2
Fore
SplineSet
389 -368 m 24,0,1
 347.504 -309.905 347.504 -309.905 401 -268 c 24,2,3
 467.504 -215.905 467.504 -215.905 509 -274 c 24,4,5
 537.504 -313.905 537.504 -313.905 471 -366 c 24,6,7
 417.504 -407.905 417.504 -407.905 389 -368 c 24,0,1
431 -110 m 24,8,9
 388.176 -56.7597 388.176 -56.7597 447 0 c 24,10,11
 502.176 53.2403 502.176 53.2403 545 0 c 24,12,13
 576.176 -38.7597 576.176 -38.7597 521 -92 c 24,14,15
 462.176 -148.76 462.176 -148.76 431 -110 c 24,8,9
43 0 m 24,16,17
 -18.0868 -13.2355 -18.0868 -13.2355 23 80 c 24,18,19
 140.594 346.848 140.594 346.848 251 472 c 24,20,21
 519.652 776.533 519.652 776.533 607 742 c 0,22,23
 650 725 650 725 549 464 c 24,24,25
 505.806 355.582 505.806 355.582 511 340 c 0,26,27
 526.984 298.265 526.984 298.265 569 302 c 0,28,29
 624 307 624 307 765 350 c 24,30,31
 830.178 369.001 830.178 369.001 811 312 c 24,32,33
 778.041 214.037 778.041 214.037 693 136 c 24,34,35
 618.209 67.3685 618.209 67.3685 641 156 c 0,36,37
 659.5 206.002 659.5 206.002 659 214 c 0,38,39
 657.384 241.472 657.384 241.472 625 240 c 0,40,41
 570 237 570 237 423 194 c 24,42,43
 374.943 181.123 374.943 181.123 403 244 c 0,44,45
 521 498.31 521 498.31 521 540 c 0,46,47
 521 598.316 521 598.316 503 604 c 0,48,49
 438.869 624.522 438.869 624.522 411 590 c 0,50,51
 175 281 175 281 143 106 c 4,52,53
 125.613 17.8995 125.613 17.8995 43 0 c 24,16,17
EndSplineSet
Validated: 33
EndChar

StartChar: cl
Encoding: 58405 58405 35
Width: 608
VWidth: 0
Flags: W
LayerCount: 2
Fore
SplineSet
-27 25 m 8,0,1
 -24 43 -24 43 -10 65 c 0,2,3
 149 371 149 371 403 532 c 0,4,5
 464.535 573.023 464.535 573.023 494.587 573.023 c 0,6,7
 495.302 573.023 495.302 573.023 496 573 c 0,8,9
 536 572 536 572 541 533 c 0,10,11
 541.806 526.71 541.806 526.71 541.806 520.003 c 0,12,13
 541.806 485.129 541.806 485.129 520 439 c 0,14,15
 448 286 448 286 333 86 c 24,16,17
 316 58 316 58 298 53 c 16,18,19
 295.188 52.2188 295.188 52.2188 292.985 52.2188 c 0,20,21
 285.04 52.2188 285.04 52.2188 285.04 62.3888 c 0,22,23
 285.04 67.44 285.04 67.44 287 75 c 0,24,25
 290 88 290 88 321 131 c 0,26,27
 406 249 406 249 437 395 c 16,28,29
 439.893 409.786 439.893 409.786 439.893 422.608 c 0,30,31
 439.893 449.679 439.893 449.679 427 468 c 0,32,33
 416.535 482.535 416.535 482.535 402.352 482.535 c 0,34,35
 392.14 482.535 392.14 482.535 380 475 c 0,36,37
 301 426 301 426 206 303 c 0,38,39
 70 125 70 125 39 14 c 0,40,41
 31.1132 -13.2453 31.1132 -13.2453 8.31862 -13.2453 c 0,42,43
 -0.679245 -13.2453 -0.679245 -13.2453 -12 -9 c 0,44,45
 -28 -2.6 -28 -2.6 -28 15.32 c 0,46,47
 -28 19.8 -28 19.8 -27 25 c 8,0,1
EndSplineSet
Validated: 1
Comment: "clivis" 
EndChar

StartChar: cllsc3
Encoding: 58406 58406 36
Width: 1070
VWidth: 0
Flags: W
LayerCount: 2
Fore
SplineSet
943 1091 m 0,0,1
 878 1012 878 1012 774 983 c 0,2,3
 746.129 975.161 746.129 975.161 724.917 975.161 c 0,4,5
 673.065 975.161 673.065 975.161 661 1022 c 0,6,7
 657.016 1037.93 657.016 1037.93 657.016 1054.26 c 0,8,9
 657.016 1148.59 657.016 1148.59 790 1256 c 0,10,11
 803.299 1266.88 803.299 1266.88 815.46 1266.88 c 0,12,13
 833.478 1266.88 833.478 1266.88 849 1243 c 0,14,15
 859.286 1227.14 859.286 1227.14 859.286 1214.96 c 0,16,17
 859.286 1198.71 859.286 1198.71 841 1189 c 0,18,19
 834.094 1194.28 834.094 1194.28 825.042 1194.28 c 0,20,21
 811.812 1194.28 811.812 1194.28 794 1183 c 0,22,23
 710.641 1130.68 710.641 1130.68 710.641 1077.57 c 0,24,25
 710.641 1070.79 710.641 1070.79 712 1064 c 0,26,27
 715.224 1044.66 715.224 1044.66 738.08 1044.66 c 0,28,29
 757.761 1044.66 757.761 1044.66 792 1059 c 8,30,-1
 913 1122 l 0,31,32
 946.75 1111.5 946.75 1111.5 946.75 1099.31 c 0,33,34
 946.75 1095.25 946.75 1095.25 943 1091 c 0,0,1
-13 -30 m 0,35,36
 -27.0488 -20.6341 -27.0488 -20.6341 -27.0488 -5.44319 c 0,37,38
 -27.0488 5.31707 -27.0488 5.31707 -20 19 c 0,39,40
 225 495 225 495 405 619 c 0,41,42
 426.877 633.754 426.877 633.754 447.201 633.754 c 0,43,44
 466.825 633.754 466.825 633.754 485 620 c 0,45,46
 497.903 609.677 497.903 609.677 497.903 571.051 c 0,47,48
 497.903 549.806 497.903 549.806 494 520 c 0,49,50
 458 257 458 257 286 -26 c 0,51,52
 265.592 -59.5282 265.592 -59.5282 256.753 -59.5282 c 0,53,54
 250 -59.5282 250 -59.5282 250 -39.9592 c 0,55,56
 250 -32.4286 250 -32.4286 251 -22 c 0,57,58
 381 321 381 321 382 325 c 0,59,60
 391.443 362.377 391.443 362.377 391.443 390.931 c 0,61,62
 391.443 434.951 391.443 434.951 369 458 c 0,63,64
 363.571 463.714 363.571 463.714 355.367 463.714 c 0,65,66
 334.857 463.714 334.857 463.714 297 428 c 0,67,68
 218 354 218 354 29 -14 c 0,69,70
 17.78 -35.78 17.78 -35.78 3.0752 -35.78 c 0,71,72
 -4.5 -35.78 -4.5 -35.78 -13 -30 c 0,35,36
EndSplineSet
Validated: 1
Comment: "clivis celeriter" 
EndChar

StartChar: cllst2
Encoding: 58407 58407 37
Width: 1262
VWidth: 0
Flags: W
LayerCount: 2
Fore
SplineSet
-46 1004 m 0,0,1
 63 1103 63 1103 1114 1314 c 0,2,3
 1121 1315 1121 1315 1123 1315 c 0,4,5
 1147 1312 1147 1312 1162 1282 c 0,6,7
 1163 1280 1163 1280 1163 1278 c 0,8,9
 1159 1258 1159 1258 1110 1252 c 0,10,11
 767 1210 767 1210 724 1194 c 0,12,13
 693 1182 693 1182 682 1154 c 0,14,15
 669.929 1122.43 669.929 1122.43 669.929 1102.07 c 0,16,17
 669.929 1100.5 669.929 1100.5 670 1099 c 0,18,19
 671 1073 671 1073 686 1058 c 0,20,21
 690 1054 690 1054 700 1054 c 0,22,23
 724 1055 724 1055 758 1066 c 0,24,25
 787.091 1075.09 787.091 1075.09 798 1075.09 c 0,26,27
 799.091 1075.09 799.091 1075.09 800 1075 c 0,28,29
 809 1074 809 1074 809 1070 c 0,30,31
 808 1060 808 1060 768 1030 c 0,32,33
 721 995 721 995 684 992 c 0,34,35
 682.5 991.875 682.5 991.875 681.031 991.875 c 0,36,37
 670.75 991.875 670.75 991.875 662 998 c 0,38,39
 613 1032 613 1032 613 1084 c 0,40,41
 613 1092 613 1092 614 1102 c 128,-1,42
 615 1112 615 1112 615 1116 c 0,43,44
 615 1139 615 1139 600 1144 c 0,45,46
 573 1153 573 1153 531 1153 c 0,47,48
 528.957 1153.01 l 0,49,50
 358.755 1153.01 358.755 1153.01 -14 988 c 0,51,52
 -66 965 -66 965 -66 964 c 0,53,54
 -68 967 -68 967 -68 971 c 0,55,56
 -68.0417 971.5 -68.0417 971.5 -68.0417 972.016 c 0,57,58
 -68.0417 983.875 -68.0417 983.875 -46 1004 c 0,0,1
-32 0 m 0,59,60
 164 425 164 425 366 534 c 16,61,62
 433 570 433 570 467 570 c 0,63,64
 488 570 488 570 496 556 c 8,65,66
 512 528 512 528 512 460 c 0,67,68
 512 458 512 458 512 458 c 0,69,70
 512.016 457.064 512.016 457.064 512.016 456.114 c 0,71,72
 512.016 338.272 512.016 338.272 266 0 c 0,73,74
 250 -22 250 -22 235 -22 c 0,75,76
 232 -22 232 -22 228 -20 c 0,77,78
 214 -13 214 -13 214 -0 c 0,79,80
 215 10 215 10 222 22 c 0,81,82
 370 276 370 276 376 318 c 0,83,84
 380 349 380 349 380 365 c 0,85,86
 379 406 379 406 362 410 c 0,87,88
 358 411 358 411 352 411 c 0,89,90
 310 409 310 409 274 362 c 0,91,92
 78 106 78 106 32 0 c 0,93,-1
 0 -20 l 16,94,95
 -18 -28 -18 -28 -27 -28 c 0,96,97
 -37 -28 -37 -28 -38 -19 c 0,98,99
 -38 -13 -38 -13 -32 0 c 0,59,60
EndSplineSet
Validated: 1
Comment: "clivis tenete" 
EndChar

StartChar: poG
Encoding: 58408 58408 38
Width: 1484
VWidth: 0
Flags: W
LayerCount: 2
Fore
SplineSet
675 92 m 0,0,1
 668.554 101.839 668.554 101.839 668.554 113.981 c 0,2,3
 668.554 137.625 668.554 137.625 693 170 c 0,4,5
 900 445 900 445 1309 710 c 0,6,7
 1326.08 721.077 1326.08 721.077 1338.04 721.077 c 0,8,9
 1352 721.077 1352 721.077 1359 706 c 0,10,11
 1365.88 691.429 1365.88 691.429 1365.88 680.789 c 0,12,13
 1365.88 665.143 1365.88 665.143 1351 658 c 0,14,15
 1105 542 1105 542 735 106 c 0,16,17
 712 78.8718 712 78.8718 695.26 78.8718 c 0,18,19
 683.615 78.8718 683.615 78.8718 675 92 c 0,0,1
11 0 m 0,20,21
 -3.58 9.72 -3.58 9.72 -3.58 25.8552 c 0,22,23
 -3.58 39.6 -3.58 39.6 7 58 c 0,24,25
 261 499 261 499 377 520 c 0,26,27
 427 529 427 529 433 554 c 0,28,29
 436.361 568.361 436.361 568.361 436.361 578.054 c 0,30,31
 436.361 598.18 436.361 598.18 421.87 598.18 c 0,32,33
 420.5 598.18 420.5 598.18 419 598 c 0,34,35
 402.571 596.214 402.571 596.214 389.714 596.214 c 0,36,37
 366.571 596.214 366.571 596.214 355 602 c 0,38,39
 345.471 606.765 345.471 606.765 345.471 618.256 c 0,40,41
 345.471 628.471 345.471 628.471 353 644 c 0,42,43
 374.371 689.306 374.371 689.306 400.126 689.306 c 0,44,45
 404.5 689.306 404.5 689.306 409 688 c 0,46,47
 469.5 670.714 469.5 670.714 525.061 670.714 c 0,48,49
 540.214 670.714 540.214 670.714 555 672 c 8,50,-1
 733 686 l 0,51,52
 739.429 686.595 739.429 686.595 745.063 686.595 c 0,53,54
 785.071 686.595 785.071 686.595 785.071 656.589 c 0,55,56
 785.071 655.321 785.071 655.321 785 654 c 8,57,58
 783 617 783 617 729 610 c 0,59,60
 697 606 697 606 647 606 c 24,61,62
 597 602 597 602 593 600 c 16,63,64
 568.5 587.75 568.5 587.75 568.5 566.312 c 0,65,66
 568.5 563.25 568.5 563.25 569 560 c 0,67,68
 571.262 540.056 571.262 540.056 571.262 519.224 c 0,69,70
 571.262 337.421 571.262 337.421 399 88 c 0,71,72
 365.476 39.2381 365.476 39.2381 329.63 39.2381 c 0,73,74
 318.429 39.2381 318.429 39.2381 307 44 c 0,75,76
 297.069 48.1379 297.069 48.1379 297.069 56.3853 c 0,77,78
 297.069 68.069 297.069 68.069 317 88 c 0,79,80
 401 187 401 187 443 356 c 0,81,82
 457.235 412.941 457.235 412.941 457.235 433.875 c 0,83,84
 457.235 445.294 457.235 445.294 453 446 c 0,85,86
 431.15 464.05 431.15 464.05 409.3 464.05 c 0,87,-1
 407 464 l 0,88,89
 369 462 369 462 343 428 c 24,90,91
 109 121 109 121 67 18 c 0,92,93
 55.6857 -9.65714 55.6857 -9.65714 36.4694 -9.65714 c 0,94,95
 25.1143 -9.65714 25.1143 -9.65714 11 0 c 0,20,21
EndSplineSet
Validated: 1
Comment: "porrectus with neumatic break" 
EndChar

StartChar: poGN
Encoding: 58409 58409 39
Width: 1804
VWidth: 0
Flags: W
LayerCount: 2
Fore
SplineSet
821 242 m 24,0,1
 800.121 261.651 800.121 261.651 821 284 c 24,2,3
 992.007 467.05 992.007 467.05 1105 546 c 0,4,5
 1306.17 684.227 1306.17 684.227 1467 770 c 0,6,7
 1493.09 783.913 1493.09 783.913 1471 806 c 0,8,9
 1463 814 1463 814 1419 844 c 24,10,11
 1404.85 853.498 1404.85 853.498 1429 884 c 24,12,13
 1465.57 930.189 1465.57 930.189 1495 940 c 24,14,15
 1523.74 949.581 1523.74 949.581 1555 926 c 24,16,17
 1595.08 895.766 1595.08 895.766 1609 854 c 24,18,19
 1616.18 832.468 1616.18 832.468 1593 812 c 24,20,21
 1496.41 726.703 1496.41 726.703 1455 718 c 0,22,23
 1320 692 1320 692 855 252 c 24,24,25
 832.309 231.356 832.309 231.356 821 242 c 24,0,1
45 16 m 0,26,27
 6.89466 3.26262 6.89466 3.26262 31 64 c 24,28,29
 112.204 254.653 112.204 254.653 183 340 c 24,30,31
 451.124 663.233 451.124 663.233 537 674 c 0,32,33
 569.981 678.135 569.981 678.135 561 704 c 0,34,35
 557.321 714.595 557.321 714.595 521 718 c 0,36,37
 486.532 720.958 486.532 720.958 301 726 c 24,38,39
 263.554 732.569 263.554 732.569 293 758 c 24,40,41
 300.824 764.757 300.824 764.757 345 764 c 24,42,43
 628.482 759.14 628.482 759.14 643 752 c 0,44,45
 702.562 724.51 702.562 724.51 793 712 c 0,46,47
 814.296 709.054 814.296 709.054 865 722 c 0,48,49
 959 746 959 746 1059 800 c 24,50,51
 1104.02 811.344 1104.02 811.344 1119 786 c 24,52,53
 1128 770.766 1128 770.766 1085 756 c 24,54,55
 835.83 670.442 835.83 670.442 787 672 c 24,56,57
 689 676 689 676 659 684 c 0,58,59
 617.758 697.214 617.758 697.214 621 660 c 24,60,61
 622.953 634.161 622.953 634.161 604 567 c 0,62,63
 557 405 557 405 525 236 c 0,64,65
 517.573 199.034 517.573 199.034 547 198 c 0,66,67
 587.528 196.576 587.528 196.576 565 168 c 0,68,69
 513.671 102.891 513.671 102.891 407 54 c 24,70,71
 370.324 37.1904 370.324 37.1904 373 80 c 24,72,73
 379.719 187.498 379.719 187.498 421 278 c 24,74,75
 497.508 445.73 497.508 445.73 499 494 c 0,76,77
 501.447 573.179 501.447 573.179 491 578 c 0,78,79
 462.897 594.332 462.897 594.332 447 576 c 0,80,81
 258.532 358.663 258.532 358.663 157 138 c 0,82,83
 111.019 38.0681 111.019 38.0681 45 16 c 0,26,27
EndSplineSet
Validated: 33
EndChar

StartChar: ciG1
Encoding: 58410 58410 40
Width: 922
VWidth: 0
Flags: W
LayerCount: 2
Fore
SplineSet
423 -376 m 24,0,1
 445.137 -327.774 445.137 -327.774 509 -326 c 24,2,3
 561.16 -324.551 561.16 -324.551 567 -372 c 24,4,5
 573.37 -423.754 573.37 -423.754 525 -456 c 24,6,7
 491.595 -478.27 491.595 -478.27 453 -448 c 24,8,9
 406.641 -411.64 406.641 -411.64 423 -376 c 24,0,1
437 -168 m 24,10,11
 361.448 -173.666 361.448 -173.666 387 -118 c 24,12,13
 417.448 -51.6664 417.448 -51.6664 493 -46 c 24,14,15
 577.448 -39.6663 577.448 -39.6663 547 -106 c 24,16,17
 521.448 -161.666 521.448 -161.666 437 -168 c 24,10,11
59 26 m 24,18,19
 -13.5616 10.2783 -13.5616 10.2783 17 66 c 0,20,21
 248 478 248 478 579 670 c 24,22,23
 629.295 700.052 629.295 700.052 659 666 c 24,24,25
 688.163 632.569 688.163 632.569 661 576 c 0,26,27
 613.725 441.957 613.725 441.957 539 312 c 0,28,29
 516.129 272.223 516.129 272.223 515 244 c 0,30,31
 514 219 514 219 553 214 c 0,32,33
 587.389 208.662 587.389 208.662 685 228 c 24,34,35
 770.842 246.612 770.842 246.612 709 194 c 0,36,37
 675.213 167.028 675.213 167.028 439 114 c 24,38,39
 403.695 106.623 403.695 106.623 385 136 c 24,40,41
 377.544 147.717 377.544 147.717 397 180 c 0,42,43
 536 397 536 397 545 428 c 0,44,45
 560.451 485.078 560.451 485.078 549 518 c 0,46,47
 535.919 558.877 535.919 558.877 489 544 c 0,48,49
 478.885 549.65 478.885 549.65 397 478 c 0,50,51
 357 443 357 443 149 162 c 0,52,53
 129.314 136.193 129.314 136.193 137 92 c 24,54,55
 144.177 44.4556 144.177 44.4556 59 26 c 24,18,19
EndSplineSet
Validated: 33
Comment: "climacus with neumatic break" 
EndChar

StartChar: clSsu1sut1
Encoding: 58411 58411 41
Width: 1296
VWidth: 0
Flags: W
LayerCount: 2
Fore
SplineSet
863 -174 m 24,0,1
 821.792 -168.892 821.792 -168.892 821 -138 c 24,2,3
 820.516 -119.134 820.516 -119.134 861 -96 c 24,4,5
 882.841 -83.5193 882.841 -83.5193 919 -82 c 24,6,7
 1059.76 -76.0858 1059.76 -76.0858 1099 -86 c 24,8,9
 1125.39 -92.6669 1125.39 -92.6669 1109 -130 c 24,10,11
 1094.82 -162.309 1094.82 -162.309 1063 -168 c 24,12,13
 961.314 -186.188 961.314 -186.188 863 -174 c 24,0,1
775 136 m 24,14,15
 739.125 187.57 739.125 187.57 811 228 c 24,16,17
 867.125 259.57 867.125 259.57 903 208 c 24,18,19
 931.125 167.57 931.125 167.57 875 136 c 24,20,21
 803.125 95.5703 803.125 95.5703 775 136 c 24,14,15
57 24 m 24,22,23
 -28.1487 52.3829 -28.1487 52.3829 29 110 c 24,24,25
 273 356 273 356 359 478 c 0,26,27
 447.644 606.79 447.644 606.79 659 620 c 24,28,29
 747.447 624.802 747.447 624.802 699 476 c 0,30,31
 684.738 434.131 684.738 434.131 725 414 c 0,32,33
 756.497 400.221 756.497 400.221 783 412 c 0,34,35
 906.036 434.5 906.036 434.5 925 436 c 24,36,37
 944.535 441.915 944.535 441.915 923 414 c 0,38,39
 811 368 811 368 601 310 c 24,40,41
 550.58 295.761 550.58 295.761 557 330 c 24,42,43
 563 362 563 362 589 408 c 0,44,45
 607.26 442.457 607.26 442.457 565 490 c 0,46,47
 538.14 516.793 538.14 516.793 495 512 c 0,48,49
 472.558 510.581 472.558 510.581 413 454 c 0,50,51
 362.522 403.432 362.522 403.432 161 66 c 24,52,53
 124.052 1.64926 124.052 1.64926 57 24 c 24,22,23
EndSplineSet
Validated: 33
EndChar

StartChar: clSsut2
Encoding: 58414 58414 42
Width: 1263
VWidth: 0
Flags: W
LayerCount: 2
Fore
SplineSet
799 -260 m 24,0,1
 753.173 -248.751 753.173 -248.751 783 -216 c 24,2,3
 843.008 -150.109 843.008 -150.109 901 -148 c 0,4,5
 1024.54 -145.23 1024.54 -145.23 1145 -172 c 0,6,7
 1202.94 -165.046 1202.94 -165.046 1119 -228 c 24,8,9
 1083 -255 1083 -255 1003 -270 c 0,10,11
 913.284 -288.054 913.284 -288.054 799 -260 c 24,0,1
623 64 m 24,12,13
 577.41 69.98 577.41 69.98 609 104 c 24,14,15
 647.27 145.214 647.27 145.214 701 148 c 0,16,17
 836 155 836 155 933 140 c 24,18,19
 987.904 130.677 987.904 130.677 953 92 c 24,20,21
 923.957 59.817 923.957 59.817 859 58 c 0,22,23
 716 54 716 54 623 64 c 24,12,13
45 12 m 24,24,25
 -3.39131 -3.36232 -3.39131 -3.36232 21 40 c 24,26,27
 32.4094 59.396 32.4094 59.396 69 110 c 0,28,29
 92.5 142.5 92.5 142.5 207 492 c 24,30,31
 223.833 543.248 223.833 543.248 301 606 c 0,32,33
 481 754 481 754 657 764 c 24,34,35
 765 770.997 765 770.997 765 712 c 0,36,37
 765 610 765 610 731 542 c 0,38,39
 684.911 447.397 684.911 447.397 721 436 c 0,40,41
 763 422 763 422 829 434 c 24,42,43
 938.828 450.851 938.828 450.851 977 410 c 24,44,45
 1028.59 354.793 1028.59 354.793 943 312 c 0,46,47
 911 296 911 296 835 330 c 24,48,49
 783.827 352 783.827 352 727 352 c 0,50,51
 675 352 675 352 611 338 c 24,52,53
 551.415 325.938 551.415 325.938 563 380 c 0,54,55
 578.067 449.055 578.067 449.055 615 526 c 0,56,57
 643.41 585.188 643.41 585.188 605 630 c 0,58,59
 569 672 569 672 525 668 c 0,60,61
 453.628 659.447 453.628 659.447 389 602 c 0,62,63
 350.292 569.005 350.292 569.005 329 514 c 24,64,-1
 229 220 l 24,65,66
 191.283 130.059 191.283 130.059 147 80 c 24,67,68
 103.187 30.472 103.187 30.472 45 12 c 24,24,25
EndSplineSet
EndChar

StartChar: clN1su2
Encoding: 58415 58415 43
Width: 1076
VWidth: 0
Flags: W
LayerCount: 2
Fore
SplineSet
481 -368 m 24,0,1
 506.289 -313.158 506.289 -313.158 555.581 -289.962 c 24,2,3
 612.163 -263.335 612.163 -263.335 617 -304 c 24,4,5
 625.731 -377.403 625.731 -377.403 572 -428 c 24,6,7
 547.984 -450.616 547.984 -450.616 497 -417 c 24,8,9
 467.403 -397.486 467.403 -397.486 481 -368 c 24,0,1
536 -136 m 24,10,11
 481.46 -123.305 481.46 -123.305 500 -66 c 24,12,13
 512.017 -28.856 512.017 -28.856 580 0 c 24,14,15
 628.347 20.5212 628.347 20.5212 639 -7 c 24,16,17
 653.911 -45.5195 653.911 -45.5195 616 -93 c 24,18,19
 574.51 -144.964 574.51 -144.964 536 -136 c 24,10,11
18 20 m 0,20,21
 -27.6628 37.6185 -27.6628 37.6185 0 86 c 0,22,23
 247 511 247 511 644 782 c 24,24,25
 699.433 819.019 699.433 819.019 742 778 c 24,26,27
 777.29 743.993 777.29 743.993 754 676 c 24,28,29
 694 507 694 507 660 428 c 0,30,31
 638.964 383.405 638.964 383.405 676 350 c 24,32,33
 701.43 327.063 701.43 327.063 762 336 c 24,34,35
 866 352 866 352 902 362 c 0,36,37
 938.024 373.863 938.024 373.863 932 346 c 24,38,39
 905 245 905 245 854 140 c 0,40,41
 842.442 119.077 842.442 119.077 816 136 c 24,42,43
 795.301 149.248 795.301 149.248 804 172 c 24,44,45
 817 206 817 206 830.5 232.5 c 128,-1,46
 844 259 844 259 824 268 c 0,47,48
 812.975 272.479 812.975 272.479 778 264 c 24,49,50
 648.727 239.273 648.727 239.273 544 232 c 0,51,52
 509.495 228.523 509.495 228.523 504 256 c 0,53,54
 494 306 494 306 510 336 c 24,55,56
 576.726 448.354 576.726 448.354 628 566 c 0,57,58
 655.734 629.633 655.734 629.633 622 658 c 24,59,60
 586.388 687.947 586.388 687.947 540 640 c 0,61,62
 183 283 183 283 78 45 c 0,63,64
 59.5974 3.9501 59.5974 3.9501 18 20 c 0,20,21
EndSplineSet
Validated: 33
Comment: "climacus with neumatic break" 
EndChar

StartChar: clN
Encoding: 58418 58418 44
Width: 925
VWidth: 0
Flags: W
LayerCount: 2
Fore
SplineSet
-37 27 m 0,0,1
 37 162 37 162 186 377 c 0,2,3
 260 484 260 484 389 563 c 0,4,5
 420 581 420 581 423 597 c 0,6,7
 423.694 600.611 423.694 600.611 423.694 603.759 c 0,8,9
 423.694 623.278 423.694 623.278 397 625 c 0,10,11
 372.975 626.55 372.975 626.55 372.975 661.735 c 0,12,13
 372.975 671.95 372.975 671.95 375 685 c 0,14,15
 382 732 382 732 407 737 c 0,16,17
 415.444 738.778 415.444 738.778 422.605 738.778 c 0,18,19
 447.667 738.778 447.667 738.778 457 717 c 0,20,21
 490 638 490 638 557 617 c 0,22,23
 586.644 607.656 586.644 607.656 619.819 607.656 c 0,24,25
 689.6 607.656 689.6 607.656 775 649 c 0,26,27
 800.083 661.25 800.083 661.25 817 661.25 c 0,28,29
 829.083 661.25 829.083 661.25 837 655 c 0,30,31
 854.361 640.417 854.361 640.417 854.361 624.869 c 0,32,33
 854.361 618.028 854.361 618.028 851 611 c 0,34,35
 842 591 842 591 706 583 c 0,36,37
 576.97 575.12 576.97 575.12 576.97 559.479 c 0,38,39
 576.97 559.241 576.97 559.241 577 559 c 0,40,41
 577.571 555 577.571 555 577.571 550.306 c 0,42,43
 577.571 522.143 577.571 522.143 557 469 c 0,44,45
 466 230 466 230 329 23 c 0,46,47
 319.667 8.48148 319.667 8.48148 308.182 8.48148 c 0,48,49
 297.519 8.48148 297.519 8.48148 285 21 c 0,50,51
 279.333 26.6667 279.333 26.6667 279.333 35.8889 c 0,52,53
 279.333 54.3333 279.333 54.3333 302 87 c 0,54,55
 379 200 379 200 475 429 c 16,56,57
 481.4 444.2 481.4 444.2 481.4 459.08 c 0,58,59
 481.4 481.4 481.4 481.4 467 503 c 0,60,61
 452.267 525.533 452.267 525.533 422.511 525.533 c 0,62,63
 417.933 525.533 417.933 525.533 413 525 c 8,64,65
 389 522 389 522 359 491 c 0,66,67
 217 343 217 343 23 -9 c 0,68,69
 13.4545 -26.8182 13.4545 -26.8182 -3.38016 -26.8182 c 0,70,71
 -13 -26.8182 -13 -26.8182 -25 -21 c 0,72,73
 -44.22 -11.7 -44.22 -11.7 -44.22 4.5192 c 0,74,75
 -44.22 14.46 -44.22 14.46 -37 27 c 0,0,1
EndSplineSet
Validated: 1
Comment: "clivis cum episema" 
EndChar

StartChar: clNlst2
Encoding: 58419 58419 45
Width: 1442
VWidth: 0
Flags: W
LayerCount: 2
Fore
SplineSet
771 872 m 24,0,1
 737 870.729 737 870.729 737 932 c 24,2,3
 737 955.254 737 955.254 771 1024 c 0,4,5
 786.463 1055.43 786.463 1055.43 745.601 1057.02 c 0,6,7
 680.252 1061.02 680.252 1061.02 499 1040 c 24,8,9
 457.589 1040.44 457.589 1040.44 463 1060 c 24,10,11
 468.622 1080.33 468.622 1080.33 512 1087 c 24,12,13
 795.603 1130.63 795.603 1130.63 918 1130 c 0,14,15
 1070.2 1130 1070.2 1130 1273 1148 c 0,16,17
 1394.25 1158.76 1394.25 1158.76 1325 1112 c 0,18,19
 1319.64 1108.29 1319.64 1108.29 929.601 1069.02 c 24,20,21
 864.856 1062.5 864.856 1062.5 835 1038 c 0,22,23
 823.597 1028.06 823.597 1028.06 821 996 c 0,24,25
 816.765 943.732 816.765 943.732 825 934 c 0,26,27
 843.742 915.528 843.742 915.528 877 928 c 0,28,29
 914.06 942.118 914.06 942.118 943 956 c 0,30,31
 983.387 975.373 983.387 975.373 951 940 c 0,32,33
 892.913 876.558 892.913 876.558 771 872 c 24,0,1
80 78 m 0,34,35
 -14.9605 -32.6734 -14.9605 -32.6734 47 106 c 0,36,37
 89 200 89 200 331 472 c 0,38,39
 361.482 504.439 361.482 504.439 371 508 c 0,40,41
 380.091 517.242 380.091 517.242 331 524 c 24,42,43
 248.178 535.401 248.178 535.401 237 544 c 0,44,45
 223.676 555.026 223.676 555.026 283 620 c 24,46,47
 303.932 642.835 303.932 642.835 349 642 c 0,48,49
 357.755 641.838 357.755 641.838 381 616 c 0,50,51
 443.576 546.444 443.576 546.444 685 568 c 24,52,53
 758.845 574.24 758.845 574.24 695 552 c 24,54,55
 610.477 524 610.477 524 585 524 c 0,56,57
 532.964 524 532.964 524 527.5 502.5 c 0,58,59
 523.489 486.718 523.489 486.718 523 482 c 0,60,61
 503.578 357.144 503.578 357.144 422.5 268 c 0,62,63
 406.416 250.316 406.416 250.316 419 186 c 0,64,65
 423.139 164.844 423.139 164.844 440 166.5 c 0,66,67
 470.471 168.209 470.471 168.209 441.5 143 c 0,68,69
 369.975 80.7631 369.975 80.7631 345 72 c 24,70,71
 303.3 57.3685 303.3 57.3685 299 93 c 24,72,73
 294.998 126.161 294.998 126.161 331 188 c 0,74,75
 420.451 338.819 420.451 338.819 429 366 c 24,76,77
 438.74 396.967 438.74 396.967 409 436 c 24,78,79
 391.582 458.861 391.582 458.861 365 450 c 24,80,81
 344.273 443.091 344.273 443.091 313 404 c 0,82,83
 278.222 352.461 278.222 352.461 80 78 c 0,34,35
EndSplineSet
Validated: 33
Comment: "clivis cum episema tenete" 
EndChar

StartChar: clNB1
Encoding: 58420 58420 46
Width: 1120
VWidth: 0
Flags: W
LayerCount: 2
Fore
SplineSet
49 34 m 24,0,1
 -29.2729 -1.96325 -29.2729 -1.96325 21 70 c 24,2,3
 268 425 268 425 469 598 c 0,4,5
 509.498 634.208 509.498 634.208 603 642 c 0,6,7
 624 643 624 643 623 664 c 24,8,9
 623.188 702.333 623.188 702.333 611 704 c 0,10,11
 505.737 713.263 505.737 713.263 499 720 c 0,12,13
 491.22 727.308 491.22 727.308 526 754 c 24,14,15
 563.48 782.764 563.48 782.764 585 786 c 24,16,17
 625.23 792.05 625.23 792.05 659 774 c 24,18,19
 728.092 737.071 728.092 737.071 769 744 c 0,20,21
 785.148 746.735 785.148 746.735 949 764 c 0,22,23
 1031 772.641 1031 772.641 961 742 c 24,24,25
 856.995 696.477 856.995 696.477 737 692 c 0,26,27
 664.526 689.296 664.526 689.296 681 642 c 0,28,29
 709.405 560.451 709.405 560.451 683 480 c 0,30,31
 654.959 394.566 654.959 394.566 655 394 c 24,32,33
 660.512 317.38 660.512 317.38 702 305 c 0,34,35
 900.047 245.902 900.047 245.902 901 98 c 0,36,37
 901.196 -61.3968 901.196 -61.3968 777 -114 c 0,38,39
 566.335 -203.227 566.335 -203.227 507 -116 c 0,40,41
 479.271 -75.2367 479.271 -75.2367 505 10 c 0,42,43
 519.099 56.7072 519.099 56.7072 609 66 c 0,44,45
 642.122 69.4237 642.122 69.4237 635 0 c 0,46,47
 629.921 -49.5093 629.921 -49.5093 653 -56 c 0,48,49
 717.181 -76.4046 717.181 -76.4046 769 -54 c 0,50,51
 811.282 -35.7188 811.282 -35.7188 793 48 c 0,52,53
 763.368 183.692 763.368 183.692 709 194 c 0,54,55
 573.279 219.451 573.279 219.451 571 262 c 0,56,57
 565.44 386.534 565.44 386.534 569 438 c 24,58,59
 573.926 509.218 573.926 509.218 527 524 c 0,60,61
 496.09 533.737 496.09 533.737 435 514 c 0,62,63
 374 494 374 494 95 104 c 0,64,-1
 49 34 l 24,0,1
EndSplineSet
Validated: 33
Comment: "clivis liquescens cum episema" 
EndChar

StartChar: clB1
Encoding: 58421 58421 47
Width: 902
VWidth: 0
Flags: W
LayerCount: 2
Fore
SplineSet
39 0 m 0,0,1
 -9.14728 -42.1298 -9.14728 -42.1298 15 26 c 0,2,3
 71 184 71 184 351 464 c 24,4,5
 407.894 520.337 407.894 520.337 455 530 c 24,6,7
 488.011 536.771 488.011 536.771 507 496 c 24,8,9
 533.458 439.194 533.458 439.194 523 384 c 24,10,11
 516.922 351.922 516.922 351.922 471 306 c 0,12,13
 451.824 286.824 451.824 286.824 479 248 c 0,14,15
 504.29 213.227 504.29 213.227 549 210 c 0,16,17
 755.954 197.583 755.954 197.583 773 74 c 0,18,19
 789.312 -44.2618 789.312 -44.2618 629 -190 c 0,20,21
 614.204 -203.451 614.204 -203.451 541 -176 c 0,22,23
 505.571 -162.714 505.571 -162.714 483 -174 c 0,24,25
 475 -178 475 -178 443 -204 c 24,26,27
 394.981 -228.606 394.981 -228.606 379 -178 c 24,28,29
 361.308 -121.976 361.308 -121.976 395 -52 c 24,30,31
 414.755 -10.9708 414.755 -10.9708 457 -16 c 24,32,33
 479.983 -18.7366 479.983 -18.7366 479 -62 c 24,34,35
 477 -107 477 -107 501 -116 c 0,36,37
 542.981 -134.587 542.981 -134.587 613 -112 c 0,38,39
 681 -88.3391 681 -88.3391 681 -44 c 0,40,41
 682.058 18.8978 682.058 18.8978 657 40 c 0,42,43
 589.039 101.405 589.039 101.405 451 128 c 0,44,45
 388.494 141.342 388.494 141.342 397 186 c 0,46,47
 417 281 417 281 410.5 331 c 136,-1,48
 404 381 404 381 393 386 c 0,49,50
 351.891 404.686 351.891 404.686 325 386 c 0,51,52
 295.543 367.306 295.543 367.306 273 338 c 0,53,54
 85.1251 103.781 85.1251 103.781 39 0 c 0,0,1
EndSplineSet
Validated: 33
Comment: "clivis liquescens" 
EndChar

StartChar: ciN
Encoding: 58423 58423 48
Width: 1034
VWidth: 0
Flags: W
LayerCount: 2
Fore
SplineSet
735 -34 m 0,0,1
 767.867 4.53333 767.867 4.53333 802.018 4.53333 c 0,2,3
 828.133 4.53333 828.133 4.53333 855 -18 c 0,4,5
 884 -42 884 -42 884 -71 c 128,-1,6
 884 -100 884 -100 855 -134 c 0,7,8
 824.143 -170.571 824.143 -170.571 791.98 -170.571 c 0,9,10
 767.857 -170.571 767.857 -170.571 743 -150 c 0,11,12
 709.862 -122.207 709.862 -122.207 709.862 -90.9857 c 0,13,14
 709.862 -63.7931 709.862 -63.7931 735 -34 c 0,0,1
563 216 m 0,15,16
 588.045 243.009 588.045 243.009 614.054 243.009 c 0,17,18
 641.009 243.009 641.009 243.009 669 214 c 0,19,20
 694.5 187.5 694.5 187.5 694.5 160.5 c 128,-1,21
 694.5 133.5 694.5 133.5 669 106 c 0,22,23
 641.536 76.4636 641.536 76.4636 614.61 76.4636 c 0,24,25
 589.573 76.4636 589.573 76.4636 565 102 c 0,26,27
 536.991 131.028 536.991 131.028 536.991 160.056 c 0,28,29
 536.991 188.028 536.991 188.028 563 216 c 0,15,16
-21 -28 m 0,30,31
 -31.2857 -13.8571 -31.2857 -13.8571 -31.2857 0.285715 c 0,32,33
 -31.2857 19.1429 -31.2857 19.1429 -13 38 c 0,34,35
 488 555 488 555 691 646 c 0,36,37
 721.244 659.64 721.244 659.64 721.244 677.499 c 0,38,39
 721.244 689.756 721.244 689.756 707 704 c 8,40,41
 670 741 670 741 657 766 c 0,42,43
 649.957 779.696 649.957 779.696 649.957 793.085 c 0,44,45
 649.957 813.913 649.957 813.913 667 834 c 0,46,47
 696.167 868.722 696.167 868.722 713.759 868.722 c 0,48,49
 721.5 868.722 721.5 868.722 727 862 c 0,50,51
 816 751 816 751 909 622 c 16,52,53
 916.225 611.8 916.225 611.8 916.225 594.375 c 0,54,55
 916.225 570.8 916.225 570.8 903 534 c 0,56,57
 896.457 516.117 896.457 516.117 885.349 516.117 c 0,58,59
 870.989 516.117 870.989 516.117 849 546 c 0,60,61
 809 600 809 600 783 604 c 16,62,63
 773.75 605.5 773.75 605.5 764.875 605.5 c 0,64,65
 738.25 605.5 738.25 605.5 715 592 c 0,66,67
 346 389 346 389 27 -18 c 0,68,69
 10.2344 -39.3906 10.2344 -39.3906 -3.18896 -39.3906 c 0,70,71
 -12.9844 -39.3906 -12.9844 -39.3906 -21 -28 c 0,30,31
EndSplineSet
Validated: 1
Comment: "climacus cum episema" 
EndChar

StartChar: viNsu4
Encoding: 58426 58426 49
Width: 1794
VWidth: 0
Flags: W
LayerCount: 2
Fore
SplineSet
1452 -334 m 24,0,1
 1407.27 -293.427 1407.27 -293.427 1444 -242 c 24,2,3
 1477.27 -195.427 1477.27 -195.427 1522 -236 c 24,4,5
 1563.27 -273.427 1563.27 -273.427 1530 -320 c 24,6,7
 1493.27 -371.427 1493.27 -371.427 1452 -334 c 24,0,1
1156 -78 m 24,8,9
 1119.58 -17.2947 1119.58 -17.2947 1176 22 c 24,10,11
 1231.58 60.7054 1231.58 60.7054 1268 0 c 24,12,13
 1291.58 -39.2947 1291.58 -39.2947 1236 -78 c 24,14,15
 1179.58 -117.295 1179.58 -117.295 1156 -78 c 24,8,9
942 48 m 24,16,17
 887.332 29.4838 887.332 29.4838 882 118 c 24,18,19
 877.332 195.484 877.332 195.484 932 214 c 24,20,21
 1001.33 237.483 1001.33 237.483 1006 160 c 24,22,23
 1011.33 71.4832 1011.33 71.4832 942 48 c 24,16,17
664 334 m 24,24,25
 605.765 394.432 605.765 394.432 652 438 c 24,26,27
 709.765 492.432 709.765 492.432 768 432 c 24,28,29
 815.765 382.432 815.765 382.432 758 328 c 24,30,31
 711.765 284.432 711.765 284.432 664 334 c 24,24,25
40 32 m 24,32,33
 -3.45175 67.0417 -3.45175 67.0417 22 100 c 24,34,35
 241.361 384.058 241.361 384.058 474 594 c 24,36,37
 694.88 772.911 694.88 772.911 842 840 c 0,38,39
 871.723 853.554 871.723 853.554 866 936 c 24,40,41
 864.862 971.294 864.862 971.294 928 996 c 24,42,43
 952.183 1005.46 952.183 1005.46 958 972 c 0,44,45
 973.723 881.554 973.723 881.554 1002 840 c 24,46,47
 1043.18 771.953 1043.18 771.953 1084 752 c 0,48,49
 1123.19 732.633 1123.19 732.633 1074 714 c 24,50,51
 991.658 682.81 991.658 682.81 952 702 c 24,52,53
 915.723 719.554 915.723 719.554 890 764 c 0,54,55
 877.681 783.809 877.681 783.809 840 772 c 0,56,57
 792.705 761.645 792.705 761.645 786 756 c 0,58,59
 294.51 400.195 294.51 400.195 84 50 c 0,60,61
 63.1343 13.3433 63.1343 13.3433 40 32 c 24,32,33
EndSplineSet
Validated: 2081
EndChar

StartChar: viNsu1suu1su1
Encoding: 58429 58429 50
Width: 1398
VWidth: 0
Flags: W
LayerCount: 2
Fore
SplineSet
1084 -318 m 24,0,1
 1035.74 -283.527 1035.74 -283.527 1052 -246 c 24,2,3
 1073.17 -197.139 1073.17 -197.139 1136 -198 c 24,4,5
 1187.22 -198.701 1187.22 -198.701 1198 -248 c 24,6,7
 1209.02 -298.359 1209.02 -298.359 1164 -326 c 24,8,9
 1127 -348.717 1127 -348.717 1084 -318 c 24,0,1
860 -34 m 0,10,11
 789.547 -33.1104 789.547 -33.1104 826 24 c 24,12,13
 850.747 62.7701 850.747 62.7701 920 60 c 0,14,15
 1087.31 53.3077 1087.31 53.3077 1094 60 c 0,16,17
 1104 70 1104 70 1138 108 c 24,18,19
 1191.05 130.042 1191.05 130.042 1176 102 c 0,20,21
 1132 20 1132 20 1104 -50 c 24,22,23
 1076.6 -80.6023 1076.6 -80.6023 1054 -58 c 24,24,25
 1048.5 -52.5 1048.5 -52.5 1044 -32 c 0,26,27
 1041.27 -24.9295 1041.27 -24.9295 1022 -26 c 24,28,29
 868 -33 868 -33 860 -34 c 0,10,11
710 238 m 24,30,31
 668.367 297.911 668.367 297.911 718 338 c 24,32,33
 772.367 381.912 772.367 381.912 814 322 c 24,34,35
 854.367 263.911 854.367 263.911 800 220 c 24,36,37
 750.367 179.911 750.367 179.911 710 238 c 24,30,31
44 20 m 24,38,39
 7.61285 49.4565 7.61285 49.4565 34 74 c 24,40,41
 216.329 243.59 216.329 243.59 502 446 c 24,42,43
 760.764 629.346 760.764 629.346 830 638 c 0,44,45
 860.061 641.758 860.061 641.758 852 674 c 0,46,47
 850 682 850 682 834 730 c 24,48,49
 824.759 765.941 824.759 765.941 912 792 c 24,50,51
 960.589 806.514 960.589 806.514 988 776 c 24,52,53
 1043.44 714.282 1043.44 714.282 1018 674 c 24,54,55
 966.188 591.964 966.188 591.964 892 624 c 24,56,-1
 788 576 l 24,57,58
 222 188 222 188 76 40 c 0,59,60
 51.987 13.5343 51.987 13.5343 44 20 c 24,38,39
EndSplineSet
Validated: 33
EndChar

StartChar: viNsu1suu2
Encoding: 58430 58430 51
Width: 1244
VWidth: 0
Flags: W
LayerCount: 2
Fore
SplineSet
719 -296 m 0,0,1
 666.689 -297.814 666.689 -297.814 699 -256 c 24,2,3
 728.093 -218.351 728.093 -218.351 787 -208 c 0,4,5
 863.102 -189.776 863.102 -189.776 1001 -166 c 0,6,7
 1030 -161 1030 -161 1037 -140 c 24,8,9
 1085.95 -100.562 1085.95 -100.562 1077 -138 c 0,10,11
 1043.2 -326.463 1043.2 -326.463 1041 -330 c 24,12,13
 1000.04 -369.044 1000.04 -369.044 1003 -332 c 0,14,15
 1004 -319.5 1004 -319.5 1007 -288 c 0,16,17
 1009.65 -268.658 1009.65 -268.658 975 -272 c 24,18,19
 748.5 -293.5 748.5 -293.5 719 -296 c 0,0,1
665 22 m 24,20,21
 599.617 22.7666 599.617 22.7666 647 84 c 24,22,23
 679.5 125 679.5 125 739 130 c 0,24,25
 810.822 134.557 810.822 134.557 875 126 c 0,26,27
 905 122 905 122 917 132 c 0,28,29
 927 140 927 140 947 200 c 24,30,31
 989.264 225.748 989.264 225.748 975 196 c 0,32,33
 903.5 49.5 903.5 49.5 889 -40 c 0,34,35
 885.596 -63.7854 885.596 -63.7854 859 -24 c 0,36,37
 855.307 -14.2233 855.307 -14.2233 857 14 c 0,38,39
 857.161 23.0054 857.161 23.0054 827 22 c 0,40,41
 807.5 21.5 807.5 21.5 665 22 c 24,20,21
551 274 m 24,42,43
 513.573 316.226 513.573 316.226 569 376 c 24,44,45
 615.573 426.226 615.573 426.226 653 384 c 24,46,47
 693.573 338.226 693.573 338.226 647 288 c 24,48,49
 591.573 228.226 591.573 228.226 551 274 c 24,42,43
37 22 m 24,50,51
 -19.7622 20.7923 -19.7622 20.7923 19 74 c 24,52,53
 204.565 328.72 204.565 328.72 359 464 c 0,54,55
 548.091 629.819 548.091 629.819 655 710 c 0,56,57
 676.356 733.483 676.356 733.483 657 748 c 0,58,59
 633 766 633 766 605 798 c 24,60,61
 577.505 831.801 577.505 831.801 643 860 c 24,62,63
 708.276 888.105 708.276 888.105 749 860 c 24,64,65
 824.999 807.55 824.999 807.55 785 762 c 24,66,67
 379.244 416.518 379.244 416.518 259 302 c 0,68,69
 205 250 205 250 113 76 c 24,70,71
 84.2785 23.0059 84.2785 23.0059 37 22 c 24,50,51
EndSplineSet
Validated: 33
EndChar

StartChar: viNsu1sut1su2
Encoding: 58431 58431 52
Width: 1227
VWidth: 0
Flags: W
LayerCount: 2
Fore
SplineSet
1010 -518.207 m 28,0,1
 954.176 -496.66 954.176 -496.66 975.385 -450.706 c 28,2,3
 995.715 -406.659 995.715 -406.659 1051.54 -428.205 c 28,4,5
 1094.37 -444.736 1094.37 -444.736 1074.04 -488.783 c 28,6,7
 1052.83 -534.738 1052.83 -534.738 1010 -518.207 c 28,0,1
881.922 -251.664 m 28,8,9
 857.496 -208.124 857.496 -208.124 906.152 -173.778 c 28,10,11
 945.768 -145.814 945.768 -145.814 970.193 -189.355 c 28,12,13
 985.576 -216.777 985.576 -216.777 945.961 -244.74 c 28,14,15
 897.305 -279.086 897.305 -279.086 881.922 -251.664 c 28,8,9
700.188 -43.9678 m 28,16,17
 646.623 -41.8428 646.623 -41.8428 665.572 -2.42871 c 28,18,19
 681.635 30.9814 681.635 30.9814 743.459 46.0332 c 4,20,21
 960.174 92.7402 960.174 92.7402 968.463 82.3809 c 4,22,23
 984.039 65.0723 984.039 65.0723 947.693 21.8027 c 28,24,25
 933.107 2.05957 933.107 2.05957 883.652 -11.083 c 28,26,27
 752.143 -46.0293 752.143 -46.0293 700.188 -43.9678 c 28,16,17
587.686 277.961 m 28,28,29
 533.139 313.416 533.139 313.416 570.379 350.654 c 28,30,31
 617.949 398.226 617.949 398.226 672.496 362.771 c 28,32,33
 721.797 330.724 721.797 330.724 674.227 283.153 c 28,34,35
 636.988 245.915 636.988 245.915 587.686 277.961 c 28,28,29
26.9062 21.8027 m 28,36,37
 -8.66016 35.4814 -8.66016 35.4814 9.59961 59.8799 c 4,38,39
 257.104 361.039 257.104 361.039 428.453 537.581 c 4,40,41
 570.021 680.542 570.021 680.542 649.994 707.199 c 4,42,43
 690.496 720.699 690.496 720.699 681.148 748.738 c 4,44,45
 675.957 764.315 675.957 764.315 670.764 800.662 c 28,46,47
 661.064 865.073 661.064 865.073 667.303 876.817 c 28,48,49
 681.264 903.098 681.264 903.098 729.611 911.434 c 28,50,51
 756.861 916.132 756.861 916.132 767.689 894.126 c 4,52,53
 821.344 781.624 821.344 781.624 864.613 759.123 c 28,54,55
 912.246 730.358 912.246 730.358 854.229 700.276 c 28,56,57
 757.596 652.871 757.596 652.871 698.457 672.583 c 4,58,59
 669.686 681.436 669.686 681.436 618.84 644.891 c 4,60,61
 497.684 563.543 497.684 563.543 144.602 132.573 c 28,62,63
 119.844 103.979 119.844 103.979 54.5996 42.5723 c 28,64,65
 30.9004 20.2666 30.9004 20.2666 26.9062 21.8027 c 28,36,37
EndSplineSet
Validated: 2081
EndChar

StartChar: viNsu1sut2su1
Encoding: 58432 58432 53
Width: 1476
VWidth: 0
Flags: W
LayerCount: 2
Fore
SplineSet
1041 -602 m 24,0,1
 997.724 -552.542 997.724 -552.542 1057 -526 c 24,2,3
 1131.72 -492.542 1131.72 -492.542 1175 -542 c 24,4,5
 1215.72 -588.542 1215.72 -588.542 1141 -622 c 24,6,7
 1081.72 -648.542 1081.72 -648.542 1041 -602 c 24,0,1
815 -382 m 24,8,9
 778.029 -384.054 778.029 -384.054 797 -352 c 24,10,11
 830.332 -295.68 830.332 -295.68 873 -284 c 24,12,13
 982.592 -254 982.592 -254 1155 -254 c 24,14,15
 1193.75 -254 1193.75 -254 1181 -284 c 24,16,17
 1164.73 -322.292 1164.73 -322.292 1121 -334 c 24,18,19
 974.914 -373.116 974.914 -373.116 815 -382 c 24,8,9
699 -92 m 24,20,21
 646.913 -93.8298 646.913 -93.8298 707 -38 c 24,22,23
 759.463 -1.84328 759.463 -1.84328 847 10 c 24,24,25
 957.149 24.9026 957.149 24.9026 1047 8 c 24,26,27
 1064.28 4.74873 1064.28 4.74873 1049 -28 c 24,28,29
 1021 -88 1021 -88 985 -90 c 0,30,31
 940.702 -91.1387 940.702 -91.1387 881 -86 c 0,32,33
 838.526 -85.2488 838.526 -85.2488 699 -92 c 24,20,21
645 182 m 24,34,35
 567.74 182.878 567.74 182.878 581 240 c 24,36,37
 593.74 294.878 593.74 294.878 671 294 c 24,38,39
 769.74 292.878 769.74 292.878 757 238 c 24,40,41
 743.74 180.878 743.74 180.878 645 182 c 24,34,35
35 20 m 24,42,43
 -2.97113 36.5515 -2.97113 36.5515 27 70 c 24,44,45
 198.418 261.306 198.418 261.306 397 424 c 24,46,47
 628.912 614 628.912 614 691 614 c 0,48,49
 706.539 614 706.539 614 713 642 c 0,50,51
 721 672 721 672 731 744 c 24,52,53
 737.958 783.942 737.958 783.942 779 802 c 24,54,55
 828.757 823.893 828.757 823.893 831 788 c 0,56,57
 835.662 676.115 835.662 676.115 855 660 c 24,58,59
 903 620 903 620 905 602 c 0,60,61
 901.995 553.94 901.995 553.94 823 540 c 24,62,63
 794.787 535.021 794.787 535.021 769 578 c 0,64,65
 763 588 763 588 731 588 c 0,66,67
 719 588 719 588 683 578 c 24,68,69
 344.567 360.931 344.567 360.931 105 36 c 0,70,71
 78.899 0.864512 78.899 0.864512 35 20 c 24,42,43
EndSplineSet
Validated: 2081
EndChar

StartChar: viNsuu1su2
Encoding: 58433 58433 54
Width: 956
VWidth: 0
Flags: W
LayerCount: 2
Fore
SplineSet
720 -334 m 24,0,1
 682.82 -293.885 682.82 -293.885 728 -260 c 24,2,3
 778.82 -221.885 778.82 -221.885 816 -262 c 24,4,5
 854.82 -303.885 854.82 -303.885 804 -342 c 24,6,7
 758.82 -375.885 758.82 -375.885 720 -334 c 24,0,1
558 -73 m 24,8,9
 520.538 -32.7964 520.538 -32.7964 576 14 c 24,10,11
 616.538 48.2036 616.538 48.2036 654 8 c 24,12,13
 698.538 -39.7964 698.538 -39.7964 658 -74 c 24,14,15
 602.538 -120.796 602.538 -120.796 558 -73 c 24,8,9
408 154 m 24,16,17
 381.669 150.297 381.669 150.297 388 202 c 24,18,19
 393.477 246.725 393.477 246.725 420 252 c 24,20,21
 589 283 589 283 676 296 c 0,22,23
 689.692 296.887 689.692 296.887 706 344 c 24,24,25
 722.588 387.612 722.588 387.612 736 340 c 24,26,27
 752.532 281.312 752.532 281.312 746 202 c 24,28,29
 743.899 176.489 743.899 176.489 722 170 c 24,30,31
 699.018 163.191 699.018 163.191 692 186 c 0,32,33
 689.706 193.457 689.706 193.457 656 190 c 0,34,35
 557 178 557 178 408 154 c 24,16,17
22 0 m 0,36,37
 -7.13909 2.724 -7.13909 2.724 24 40 c 24,38,39
 501 628 501 628 570 656 c 0,40,41
 596.052 686.55 596.052 686.55 568 698 c 0,42,43
 519 720 519 720 518 746 c 24,44,45
 515.476 778.627 515.476 778.627 570 792 c 24,46,47
 613.541 802.68 613.541 802.68 624 772 c 0,48,49
 641.143 724.857 641.143 724.857 656.071 711.429 c 0,50,51
 665.14 703.271 665.14 703.271 704 686 c 24,52,53
 761.098 656.031 761.098 656.031 683.549 648.016 c 132,-1,54
 606 640 606 640 584 616 c 0,55,56
 360.97 419.713 360.97 419.713 46 26 c 24,57,58
 24.8639 -7.47738e-07 24.8639 -7.47738e-07 22 0 c 0,36,37
EndSplineSet
EndChar

StartChar: viNsuu2su2
Encoding: 58434 58434 55
Width: 1050
VWidth: 0
Flags: W
LayerCount: 2
Fore
SplineSet
860 -380 m 24,0,1
 946.033 -354.373 946.033 -354.373 958 -424 c 24,2,3
 968.033 -482.373 968.033 -482.373 882 -508 c 24,4,5
 780.033 -538.373 780.033 -538.373 770 -480 c 24,6,7
 758.033 -410.373 758.033 -410.373 860 -380 c 24,0,1
688 -158 m 24,8,9
 746.215 -105.329 746.215 -105.329 778 -154 c 24,10,11
 810.215 -203.329 810.215 -203.329 752 -256 c 24,12,13
 684.215 -317.329 684.215 -317.329 652 -268 c 24,14,15
 620.215 -219.329 620.215 -219.329 688 -158 c 24,8,9
474 -8 m 24,16,17
 488.9 69.8097 488.9 69.8097 532 74 c 24,18,19
 723.638 100.183 723.638 100.183 730 104 c 0,20,21
 736.023 107.614 736.023 107.614 748 166 c 0,22,23
 760 228 760 228 800 158 c 24,24,25
 836.728 91.5017 836.728 91.5017 798 -14 c 24,26,27
 758.45 -45.2361 758.45 -45.2361 742 0 c 0,28,29
 734 22 734 22 514 -20 c 24,30,31
 470.149 -28.11 470.149 -28.11 474 -8 c 24,16,17
408 182 m 24,32,33
 336.533 186.097 336.533 186.097 400 240 c 24,34,35
 479.254 307.311 479.254 307.311 554 306 c 0,36,37
 675.157 311.471 675.157 311.471 676 314 c 0,38,39
 686 344 686 344 698 366 c 24,40,41
 723.364 418 723.364 418 750 320 c 24,42,43
 758.877 240.108 758.877 240.108 714 222 c 24,44,45
 589.136 171.616 589.136 171.616 408 182 c 24,32,33
26 8 m 24,46,47
 -14.7169 53.2411 -14.7169 53.2411 0 70 c 24,48,49
 409.301 534.935 409.301 534.935 496 612 c 0,50,51
 523.313 636.582 523.313 636.582 498 658 c 0,52,53
 470 682 470 682 466 730 c 24,54,55
 455.143 827.496 455.143 827.496 510 792 c 0,56,57
 612 726 612 726 694 720 c 24,58,59
 746.325 677.372 746.325 677.372 668 648 c 0,60,61
 636 636 636 636 556 630 c 0,62,63
 561.112 611.806 561.112 611.806 542 588 c 0,64,65
 416 444 416 444 54 10 c 24,66,67
 39.1861 -6.65126 39.1861 -6.65126 26 8 c 24,46,47
EndSplineSet
Validated: 2081
EndChar

StartChar: viNsut2
Encoding: 58436 58436 56
Width: 952
VWidth: 0
Flags: W
LayerCount: 2
Fore
SplineSet
432 -126 m 0,0,1
 390.289 -124.826 390.289 -124.826 430 -82 c 24,2,3
 488.215 -19.2193 488.215 -19.2193 534 -16 c 0,4,5
 695.106 -2.5745 695.106 -2.5745 740 -34 c 0,6,7
 799 -76 799 -76 728 -106 c 0,8,9
 674.907 -128.927 674.907 -128.927 432 -126 c 0,0,1
406 106 m 24,10,11
 376.825 105.409 376.825 105.409 390 138 c 24,12,13
 412.686 194.119 412.686 194.119 444 200 c 24,14,15
 635 230 635 230 708 220 c 0,16,17
 738.791 214.388 738.791 214.388 686 144 c 0,18,19
 667 118 667 118 406 106 c 24,10,11
28 0 m 24,20,21
 -0.140863 21.1057 -0.140863 21.1057 32 50 c 24,22,23
 516.693 485.734 516.693 485.734 622 534 c 0,24,25
 672.06 556.944 672.06 556.944 653.03 577.972 c 0,26,27
 627.989 605.643 627.989 605.643 642 636 c 0,28,29
 663.245 678.49 663.245 678.49 716 690 c 0,30,31
 765 700 765 700 810 622 c 24,32,33
 824.08 596.534 824.08 596.534 742 536 c 24,34,35
 705.762 509.275 705.762 509.275 650 504 c 0,36,37
 576 496 576 496 80 14 c 24,38,39
 49.4325 -16.0744 49.4325 -16.0744 28 0 c 24,20,21
EndSplineSet
Validated: 33
EndChar

StartChar: ciM
Encoding: 58438 58438 57
Width: 1270
VWidth: 0
Flags: W
LayerCount: 2
Fore
SplineSet
691 -64 m 16,0,1
 660.917 -36.2917 660.917 -36.2917 660.917 -17.3576 c 0,2,3
 660.917 -12.375 660.917 -12.375 663 -8 c 8,4,5
 683 35 683 35 753 66 c 16,6,7
 767.737 72.7368 767.737 72.7368 781.055 72.7368 c 0,8,9
 799.368 72.7368 799.368 72.7368 815 60 c 8,10,11
 970 -66 970 -66 1081 -196 c 16,12,13
 1095.88 -213.262 1095.88 -213.262 1095.88 -232.65 c 0,14,15
 1095.88 -245.833 1095.88 -245.833 1089 -260 c 8,16,17
 1072 -295 1072 -295 1027 -308 c 16,18,19
 1019.53 -310.133 1019.53 -310.133 1011.92 -310.133 c 0,20,21
 991 -310.133 991 -310.133 969 -294 c 8,22,23
 826 -190 826 -190 691 -64 c 16,0,1
557 218 m 0,24,25
 533.888 226.062 533.888 226.062 533.888 247.993 c 0,26,27
 533.888 266.863 533.888 266.863 551 296 c 8,28,29
 571 330 571 330 643 362 c 16,30,31
 662.95 371.025 662.95 371.025 675.229 371.025 c 0,32,33
 688.8 371.025 688.8 371.025 693 360 c 0,34,35
 705.645 326.129 705.645 326.129 705.645 300.416 c 0,36,37
 705.645 269.194 705.645 269.194 687 250 c 0,38,39
 648.768 210.378 648.768 210.378 600.873 210.378 c 0,40,41
 579.866 210.378 579.866 210.378 557 218 c 0,24,25
-9 -10 m 0,42,43
 -21.2917 -13.125 -21.2917 -13.125 -29.1562 -13.125 c 0,44,45
 -43.1274 -13.125 -43.1274 -13.125 -43.1275 -3.26298 c 0,46,47
 -43.1275 7.97059 -43.1275 7.97059 -25 32 c 0,48,49
 363 545 363 545 829 818 c 0,50,51
 864.143 838.571 864.143 838.571 883.122 838.571 c 0,52,53
 886.286 838.571 886.286 838.571 889 838 c 0,54,55
 895 836.667 895 836.667 895 829.778 c 0,56,57
 895 816 895 816 871 780 c 8,58,59
 806 683 806 683 755 678 c 0,60,61
 678 671 678 671 673 666 c 0,62,63
 138 131 138 131 57 30 c 0,64,65
 33 0 33 0 -9 -10 c 0,42,43
EndSplineSet
Validated: 1
Comment: "climacus melodic" 
EndChar

StartChar: ci
Encoding: 58439 58439 58
Width: 1136
VWidth: 0
Flags: W
LayerCount: 2
Fore
SplineSet
777 24 m 0,0,1
 808.333 47.0104 808.333 47.0104 834.873 47.0104 c 0,2,3
 862.542 47.0104 862.542 47.0104 885 22 c 0,4,5
 900.859 4.59434 900.859 4.59434 900.859 -13.1105 c 0,6,7
 900.859 -41.1792 900.859 -41.1792 861 -70 c 0,8,9
 821.52 -98.6633 821.52 -98.6633 791.4 -98.6633 c 0,10,11
 765.827 -98.6633 765.827 -98.6633 747 -78 c 0,12,13
 730.593 -59.7288 730.593 -59.7288 730.593 -40.9015 c 0,14,15
 730.593 -9.23729 730.593 -9.23729 777 24 c 0,0,1
593 236 m 0,16,17
 633.346 281.654 633.346 281.654 667.491 281.654 c 0,18,19
 697.667 281.654 697.667 281.654 723 246 c 0,20,21
 741.127 220.284 741.127 220.284 741.127 195.635 c 0,22,23
 741.127 161.814 741.127 161.814 707 130 c 0,24,25
 682.289 107.227 682.289 107.227 656.638 107.227 c 0,26,27
 629.351 107.227 629.351 107.227 601 133 c 0,28,29
 571.343 159.961 571.343 159.961 571.343 187.794 c 0,30,31
 571.343 211.578 571.343 211.578 593 236 c 0,16,17
-9 -8 m 0,32,33
 -17.6471 -1.41176 -17.6471 -1.41176 -17.6471 9.58477 c 0,34,35
 -17.6471 25.2941 -17.6471 25.2941 0 50 c 0,36,37
 395 604 395 604 927 856 c 16,38,39
 950.46 866.58 950.46 866.58 967.572 866.58 c 0,40,41
 987.66 866.58 987.66 866.58 999 852 c 0,42,43
 1010.84 836.935 1010.84 836.935 1010.84 825.729 c 0,44,45
 1010.84 805.696 1010.84 805.696 973 798 c 0,46,47
 605 724 605 724 41 18 c 0,48,49
 17.2963 -11.6296 17.2963 -11.6296 1.27435 -11.6296 c 0,50,51
 -4.33333 -11.6296 -4.33333 -11.6296 -9 -8 c 0,32,33
EndSplineSet
Validated: 1
Comment: "climacus" 
EndChar

StartChar: cilsc3
Encoding: 58440 58440 59
Width: 1450
VWidth: 0
Flags: W
LayerCount: 2
Fore
SplineSet
1124 1438 m 8,0,1
 1184 1508 1184 1508 1274 1550 c 0,2,3
 1285.03 1555.13 1285.03 1555.13 1294.74 1555.13 c 0,4,5
 1322.9 1555.13 1322.9 1555.13 1340 1512 c 0,6,7
 1341.45 1496.18 1341.45 1496.18 1341.45 1484.26 c 0,8,9
 1341.45 1447.86 1341.45 1447.86 1327.88 1447.86 c 0,10,11
 1321.46 1447.86 1321.46 1447.86 1312 1456 c 0,12,13
 1301.82 1464.91 1301.82 1464.91 1281.11 1464.91 c 0,14,15
 1269.27 1464.91 1269.27 1464.91 1254 1462 c 0,16,17
 1190 1447 1190 1447 1176 1412 c 0,18,19
 1173.22 1405.04 1173.22 1405.04 1173.22 1398.09 c 0,20,21
 1173.22 1365.04 1173.22 1365.04 1236 1332 c 0,22,23
 1249 1325.96 1249 1325.96 1268.04 1325.96 c 0,24,25
 1290 1325.96 1290 1325.96 1320 1334 c 0,26,27
 1333.26 1337.44 1333.26 1337.44 1340.37 1337.44 c 0,28,29
 1348.59 1337.44 1348.59 1337.44 1348.59 1332.85 c 0,30,31
 1348.59 1325.24 1348.59 1325.24 1326 1305 c 0,32,33
 1278 1262 1278 1262 1224 1252 c 0,34,35
 1217.47 1250.99 1217.47 1250.99 1210.92 1250.99 c 0,36,37
 1159.25 1250.99 1159.25 1250.99 1106 1314 c 0,38,39
 1087.74 1335.58 1087.74 1335.58 1087.74 1360.62 c 0,40,41
 1087.74 1395.89 1087.74 1395.89 1124 1438 c 8,0,1
698 -70 m 0,42,43
 727.719 -38.2314 727.719 -38.2314 759.538 -38.2314 c 0,44,45
 789.818 -38.2314 789.818 -38.2314 822 -67 c 0,46,47
 854.802 -96.157 854.802 -96.157 854.802 -126.941 c 0,48,49
 854.802 -155.281 854.802 -155.281 827 -185 c 0,50,51
 794.467 -219.133 794.467 -219.133 761.364 -219.133 c 0,52,53
 732.4 -219.133 732.4 -219.133 703 -193 c 0,54,55
 668.701 -162.339 668.701 -162.339 668.701 -130.327 c 0,56,57
 668.701 -100.74 668.701 -100.74 698 -70 c 0,42,43
567 185 m 0,58,59
 598.295 211.752 598.295 211.752 625.004 211.752 c 0,60,61
 651.209 211.752 651.209 211.752 673 186 c 0,62,63
 691.925 163.71 691.925 163.71 691.925 141.421 c 0,64,65
 691.925 110.71 691.925 110.71 656 80 c 0,66,67
 622.898 51.9907 622.898 51.9907 594.983 51.9907 c 0,68,69
 568.083 51.9907 568.083 51.9907 546 78 c 0,70,71
 528.239 98.9908 528.239 98.9908 528.239 120.47 c 0,72,73
 528.239 152.202 528.239 152.202 567 185 c 0,58,59
-18 -17 m 0,74,75
 -22.6875 -10.4375 -22.6875 -10.4375 -22.6875 -1.04297 c 0,76,77
 -22.6875 19.625 -22.6875 19.625 0 54 c 8,78,79
 390 645 390 645 836 856 c 0,80,81
 854.375 865.188 854.375 865.188 868.922 865.188 c 0,82,83
 887.625 865.188 887.625 865.188 900 850 c 0,84,85
 911.365 836.284 911.365 836.284 911.365 825.025 c 0,86,87
 911.365 807.554 911.365 807.554 884 796 c 0,88,89
 531 641 531 641 40 0 c 0,90,91
 18.026 -28.6883 18.026 -28.6883 1.26801 -28.6883 c 0,92,93
 -9.42857 -28.6883 -9.42857 -28.6883 -18 -17 c 0,74,75
EndSplineSet
Validated: 1
Comment: "climacus celeriter" 
EndChar

StartChar: visu2suw1
Encoding: 58441 58441 60
Width: 1282
VWidth: 0
Flags: W
LayerCount: 2
Fore
SplineSet
809 -276 m 0,0,1
 761.474 -242.847 761.474 -242.847 813 -198 c 24,2,3
 866.761 -151.208 866.761 -151.208 917 -182 c 0,4,5
 1053.81 -268.059 1053.81 -268.059 1085 -298 c 0,6,7
 1161 -370 1161 -370 1033 -382 c 24,8,9
 976.186 -385.931 976.186 -385.931 809 -276 c 0,0,1
665 -80 m 24,10,11
 614.168 -41.4657 614.168 -41.4657 623 -10 c 24,12,13
 637.958 43.2875 637.958 43.2875 697 34 c 24,14,15
 779.622 21.0033 779.622 21.0033 801 -38 c 24,16,17
 817.072 -82.36 817.072 -82.36 747 -104 c 24,18,19
 711.231 -115.046 711.231 -115.046 665 -80 c 24,10,11
473 108 m 24,20,21
 429.701 156.712 429.701 156.712 455 190 c 0,22,23
 493 240 493 240 535 224 c 24,24,25
 611.164 197.795 611.164 197.795 617 146 c 24,26,27
 622.097 100.762 622.097 100.762 551 82 c 24,28,29
 506.54 70.2675 506.54 70.2675 473 108 c 24,20,21
43 28 m 24,30,31
 16.6247 47.1821 16.6247 47.1821 33 64 c 0,32,33
 489 504 489 504 867 700 c 24,34,35
 931.032 734.127 931.032 734.127 917 678 c 24,36,37
 907.452 639.806 907.452 639.806 843 604 c 24,38,39
 820.091 591.273 820.091 591.273 773 598 c 0,40,41
 757 600 757 600 729 578 c 0,42,43
 483.698 426.479 483.698 426.479 77 32 c 24,44,45
 59.3133 16.1358 59.3133 16.1358 43 28 c 24,30,31
EndSplineSet
Validated: 33
EndChar

StartChar: ci1
Encoding: 58442 58442 61
Width: 1220
VWidth: 0
Flags: W
LayerCount: 2
Fore
SplineSet
142 86 m 0,0,1
 85.3158 -34.8431 85.3158 -34.8431 20 32 c 24,2,3
 3.96515 48.6705 3.96515 48.6705 38 106 c 0,4,5
 304 548 304 548 726 850 c 24,6,7
 776.763 885.696 776.763 885.696 806 868 c 24,8,9
 813.496 863.463 813.496 863.463 802 804 c 24,10,11
 794 752 794 752 712 724 c 0,12,13
 669.144 709.366 669.144 709.366 644 706 c 24,14,15
 637.864 702.89 637.864 702.89 566 650 c 0,16,17
 326 476 326 476 142 86 c 0,0,1
900 -332 m 24,18,19
 873.024 -296.505 873.024 -296.505 916 -240 c 24,20,21
 956.187 -187.161 956.187 -187.161 1008 -190 c 24,22,23
 1067.84 -193.279 1067.84 -193.279 1062 -248 c 24,24,25
 1055.71 -306.965 1055.71 -306.965 992 -340 c 24,26,27
 930.368 -371.957 930.368 -371.957 900 -332 c 24,18,19
726 -68 m 24,28,29
 684.376 -42.1647 684.376 -42.1647 716 0 c 24,30,31
 760.268 59.0234 760.268 59.0234 828 68 c 24,32,33
 880.487 74.9572 880.487 74.9572 882 22 c 24,34,35
 883.831 -42.0973 883.831 -42.0973 832 -72 c 24,36,37
 780.403 -101.767 780.403 -101.767 726 -68 c 24,28,29
588 200 m 24,38,39
 542.662 237.986 542.662 237.986 550 260 c 24,40,41
 569.495 318.485 569.495 318.485 632 332 c 24,42,43
 701.282 346.98 701.282 346.98 698 292 c 24,44,45
 695.982 258.203 695.982 258.203 624 198 c 24,46,47
 607.179 183.931 607.179 183.931 588 200 c 24,38,39
EndSplineSet
Validated: 33
Comment: "climacus (virga subtripunctis)" 
EndChar

StartChar: visu5
Encoding: 58443 58443 62
Width: 1920
VWidth: 0
Flags: W
LayerCount: 2
Fore
SplineSet
1626 -578 m 24,0,1
 1574.67 -533.327 1574.67 -533.327 1610 -498 c 24,2,3
 1640.67 -467.327 1640.67 -467.327 1692 -512 c 24,4,5
 1748.67 -561.327 1748.67 -561.327 1718 -592 c 24,6,7
 1682.67 -627.327 1682.67 -627.327 1626 -578 c 24,0,1
1304 -410 m 24,8,9
 1266.38 -356.811 1266.38 -356.811 1308 -336 c 24,10,11
 1374.38 -302.811 1374.38 -302.811 1412 -356 c 24,12,13
 1432.38 -384.811 1432.38 -384.811 1366 -418 c 24,14,15
 1324.38 -438.811 1324.38 -438.811 1304 -410 c 24,8,9
1022 -266 m 24,16,17
 968.328 -257.343 968.328 -257.343 990 -214 c 24,18,19
 1008.33 -177.343 1008.33 -177.343 1062 -186 c 24,20,21
 1132.33 -197.343 1132.33 -197.343 1114 -234 c 24,22,23
 1092.33 -277.343 1092.33 -277.343 1022 -266 c 24,16,17
746 -64 m 24,24,25
 711.229 -7.91792 711.229 -7.91792 772 22 c 24,26,27
 841.229 56.0821 841.229 56.0821 876 0 c 24,28,29
 903.229 -43.918 903.229 -43.918 834 -78 c 24,30,31
 773.229 -107.918 773.229 -107.918 746 -64 c 24,24,25
526 116 m 24,32,33
 481.545 165.261 481.545 165.261 536 200 c 24,34,35
 597.545 239.261 597.545 239.261 642 190 c 24,36,37
 671.545 157.261 671.545 157.261 610 118 c 24,38,39
 555.545 83.2613 555.545 83.2613 526 116 c 24,32,33
50 24 m 24,40,41
 22.6793 44.8353 22.6793 44.8353 62 104 c 0,42,43
 282 428 282 428 736 668 c 24,44,45
 788.945 695.324 788.945 695.324 802 648 c 24,46,47
 805.683 634.65 805.683 634.65 752 610 c 24,48,49
 387.891 449.364 387.891 449.364 106 42 c 0,50,51
 79.0356 3.03351 79.0356 3.03351 50 24 c 24,40,41
EndSplineSet
Validated: 2081
EndChar

StartChar: ciB
Encoding: 58445 58445 63
Width: 1008
VWidth: 0
Flags: W
LayerCount: 2
Fore
SplineSet
541 -128 m 24,0,1
 533.494 -96.101 533.494 -96.101 561 -80 c 24,2,3
 648.764 -28.6258 648.764 -28.6258 705 -32 c 24,4,5
 783.635 -36.7181 783.635 -36.7181 761 -92 c 0,6,7
 663 -332 663 -332 243 -612 c 25,8,9
 611 -314 611 -314 637 -218 c 0,10,11
 647.636 -174.636 647.636 -174.636 639 -166 c 0,12,13
 627 -156 627 -156 577 -148 c 24,14,15
 544.185 -141.538 544.185 -141.538 541 -128 c 24,0,1
575.959 130.002 m 24,16,17
 511.255 130.968 511.255 130.968 539 210 c 24,18,19
 558.296 264.966 558.296 264.966 623 264 c 24,20,21
 692.296 262.966 692.296 262.966 673 208 c 24,22,23
 645.255 128.968 645.255 128.968 575.959 130.002 c 24,16,17
47 12 m 24,24,25
 2.23698 10.0952 2.23698 10.0952 21 34 c 0,26,27
 446.507 586.341 446.507 586.341 791 726 c 0,28,29
 865 756 865 756 855 694 c 24,30,31
 850.448 662.469 850.448 662.469 633 532 c 0,32,33
 615.75 522.566 615.75 522.566 545 508 c 0,34,35
 461 494 461 494 67 24 c 24,36,37
 56.7913 12 56.7913 12 47 12 c 24,24,25
EndSplineSet
Validated: 33
Comment: "climacus liquescens" 
EndChar

StartChar: ciS
Encoding: 58446 58446 64
Width: 1260
VWidth: 0
Flags: W
LayerCount: 2
Fore
SplineSet
706 66 m 0,0,1
 827.897 87.1207 827.897 87.1207 951.25 87.1207 c 0,2,3
 1032.31 87.1207 1032.31 87.1207 1114 78 c 0,4,5
 1165.84 72.24 1165.84 72.24 1165.84 51.9648 c 0,6,7
 1165.84 44.08 1165.84 44.08 1158 34 c 8,8,9
 1138 8 1138 8 1008 0 c 0,10,11
 770 -15 770 -15 712 -26 c 0,12,13
 688.276 -30.4138 688.276 -30.4138 671.249 -30.4138 c 0,14,15
 627.955 -30.4138 627.955 -30.4138 627.955 -1.87909 c 0,16,17
 627.955 -0.954524 627.955 -0.954524 628 0 c 8,18,19
 631 53 631 53 706 66 c 0,0,1
528 288 m 0,20,21
 564.735 324.735 564.735 324.735 598.471 324.735 c 0,22,23
 619.837 324.735 619.837 324.735 640 310 c 0,24,25
 661.827 294.409 661.827 294.409 661.827 273.659 c 0,26,27
 661.827 247.827 661.827 247.827 628 214 c 0,28,29
 597.756 183.756 597.756 183.756 568.215 183.756 c 0,30,31
 547.942 183.756 547.942 183.756 528 198 c 0,32,33
 502 217 502 217 502 239.5 c 128,-1,34
 502 262 502 262 528 288 c 0,20,21
-34 -50 m 0,35,36
 -51.5152 -34.5455 -51.5152 -34.5455 -51.5152 -14.3141 c 0,37,38
 -51.5152 4.72727 -51.5152 4.72727 -36 28 c 0,39,40
 249 455 249 455 774 794 c 16,41,42
 808.375 815.875 808.375 815.875 832.594 815.875 c 0,43,44
 847.125 815.875 847.125 815.875 858 808 c 0,45,46
 868.776 799.81 868.776 799.81 868.776 786.047 c 0,47,48
 868.776 767.879 868.776 767.879 850 740 c 8,49,50
 831 712 831 712 770 682 c 16,51,52
 764.429 682.643 764.429 682.643 758.857 682.643 c 0,53,-1
 718 674 l 0,54,55
 428 551 428 551 18 -20 c 0,56,57
 -6.48387 -54.129 -6.48387 -54.129 -23.2612 -54.129 c 0,58,59
 -29.0968 -54.129 -29.0968 -54.129 -34 -50 c 0,35,36
EndSplineSet
Validated: 1
Comment: "climacus modified" 
EndChar

StartChar: visu1suu1
Encoding: 58447 58447 65
Width: 1258
VWidth: 0
Flags: W
LayerCount: 2
Fore
SplineSet
663 -80 m 0,0,1
 608.67 -101.355 608.67 -101.355 619 -76 c 0,2,3
 648 32 648 32 685 34 c 24,4,5
 894.744 88.2215 894.744 88.2215 945 78 c 24,6,7
 1005 67 1005 67 1015 74 c 0,8,9
 1030.36 87.8689 1030.36 87.8689 1025 112 c 0,10,11
 1021.52 162.307 1021.52 162.307 1051 196 c 0,12,13
 1093.72 218.459 1093.72 218.459 1075 174 c 0,14,15
 1046.54 92.3759 1046.54 92.3759 1067 12 c 24,16,17
 1081 -43 1081 -43 1093 -68 c 0,18,19
 1118.77 -114.71 1118.77 -114.71 1051 -102 c 24,20,21
 1021 -96 1021 -96 983 -48 c 0,22,23
 962.662 -19.6081 962.662 -19.6081 911 -28 c 24,24,25
 718 -57 718 -57 663 -80 c 0,0,1
493 114 m 24,26,27
 451.683 164.171 451.683 164.171 475 200 c 24,28,29
 513.242 258.762 513.242 258.762 575 240 c 24,30,31
 640.668 220.051 640.668 220.051 633 152 c 24,32,33
 629.058 117.016 629.058 117.016 559 98 c 24,34,35
 515.827 86.2816 515.827 86.2816 493 114 c 24,26,27
31 24 m 24,36,37
 7.1644 44.6575 7.1644 44.6575 21 64 c 0,38,39
 322 507 322 507 641 702 c 24,40,41
 683.532 728.858 683.532 728.858 689 676 c 24,42,43
 692.396 621.456 692.396 621.456 653 586 c 0,44,45
 643 577 643 577 557 570 c 0,46,47
 539.262 568.039 539.262 568.039 505 542 c 0,48,49
 371.372 448.632 371.372 448.632 51 38 c 24,50,51
 36.021 19.6484 36.021 19.6484 31 24 c 24,36,37
EndSplineSet
Validated: 33
EndChar

StartChar: visu1suu1su2
Encoding: 58448 58448 66
Width: 1494
VWidth: 0
Flags: W
LayerCount: 2
Fore
SplineSet
1219 -590 m 24,0,1
 1168.24 -550.113 1168.24 -550.113 1203 -510 c 24,2,3
 1246.24 -460.113 1246.24 -460.113 1297 -500 c 24,4,5
 1330.24 -526.113 1330.24 -526.113 1287 -576 c 24,6,7
 1252.24 -616.113 1252.24 -616.113 1219 -590 c 24,0,1
991 -350 m 24,8,9
 950.038 -314.003 950.038 -314.003 987 -272 c 24,10,11
 1038.04 -214.003 1038.04 -214.003 1079 -250 c 24,12,13
 1104.04 -272.003 1104.04 -272.003 1053 -330 c 24,14,15
 1016.04 -372.003 1016.04 -372.003 991 -350 c 24,8,9
715 -100 m 24,16,17
 662.973 -88.7653 662.973 -88.7653 721 -32 c 24,18,19
 750.274 -3.3619 750.274 -3.3619 807 -10 c 0,20,21
 977.621 -28.6158 977.621 -28.6158 1025 -32 c 0,22,23
 1053 -34 1053 -34 1075 -14 c 24,24,-1
 1127 30 l 24,25,26
 1142.69 37.8461 1142.69 37.8461 1151 24 c 24,27,28
 1109.76 -69.3928 1109.76 -69.3928 1059 -124 c 24,29,30
 1019 -167.03 1019 -167.03 1019 -118 c 0,31,32
 1019 -92 1019 -92 1013 -92 c 0,33,34
 1003.18 -93.2847 1003.18 -93.2847 979 -96 c 0,35,36
 792 -114.5 792 -114.5 715 -100 c 24,16,17
595 208 m 24,37,38
 546.699 253.824 546.699 253.824 595 282 c 24,39,40
 666.699 323.824 666.699 323.824 715 278 c 24,41,42
 744.699 249.824 744.699 249.824 673 208 c 24,43,44
 624.699 179.824 624.699 179.824 595 208 c 24,37,38
47 34 m 24,45,46
 11.5678 43.7438 11.5678 43.7438 47 86 c 0,47,48
 317 400 317 400 811 652 c 24,49,50
 838.314 665.954 838.314 665.954 851 652 c 24,51,52
 855.856 646.658 855.856 646.658 831 630 c 24,53,54
 271 268 271 268 127 64 c 0,55,56
 95.9213 20.5467 95.9213 20.5467 47 34 c 24,45,46
EndSplineSet
Validated: 2081
EndChar

StartChar: visu1sut1suy1
Encoding: 58449 58449 67
Width: 1518
VWidth: 0
Flags: W
LayerCount: 2
Fore
SplineSet
923.888 -244 m 24,0,1
 900.658 -232.385 900.658 -232.385 914 -212 c 24,2,3
 939.048 -173.728 939.048 -173.728 980.5 -157.5 c 24,4,5
 1006.36 -147.375 1006.36 -147.375 1031.5 -166 c 0,6,7
 1082.74 -207.005 1082.74 -207.005 1172 -234 c 0,8,9
 1202.19 -243.321 1202.19 -243.321 1226 -234 c 0,10,11
 1302.4 -204.094 1302.4 -204.094 1320 -204 c 24,12,13
 1358.44 -203.796 1358.44 -203.796 1336 -216 c 0,14,15
 1148.25 -309.621 1148.25 -309.621 1102 -348 c 24,16,17
 1074.03 -371.207 1074.03 -371.207 1084 -330 c 0,18,19
 1091.8 -297.761 1091.8 -297.761 1082 -296 c 0,20,21
 997.517 -280.814 997.517 -280.814 923.888 -244 c 24,0,1
762 -26 m 0,22,23
 709.093 -26.8653 709.093 -26.8653 718 12 c 24,24,25
 731.263 69.8768 731.263 69.8768 784 70 c 0,26,27
 994.744 73.0765 994.744 73.0765 1000 72 c 0,28,29
 1045.3 53.7531 1045.3 53.7531 972 0 c 24,30,31
 942 -22 942 -22 762 -26 c 0,22,23
600 236 m 24,32,33
 561.345 287.192 561.345 287.192 624 322 c 24,34,35
 687.345 357.192 687.345 357.192 726 306 c 24,36,37
 761.345 259.192 761.345 259.192 698 224 c 24,38,39
 635.345 189.192 635.345 189.192 600 236 c 24,32,33
52 20 m 24,40,41
 26.4121 29.9508 26.4121 29.9508 46 52 c 0,42,43
 414 490 414 490 890 750 c 24,44,45
 916.229 764.4 916.229 764.4 932 746 c 24,46,47
 941.517 734.897 941.517 734.897 926 708 c 24,48,49
 896 656 896 656 806 630 c 0,50,51
 796.609 630 796.609 630 764 630 c 0,52,53
 748 630 748 630 728 610 c 0,54,55
 410.801 379.447 410.801 379.447 82 38 c 24,56,57
 59.9203 16.9199 59.9203 16.9199 52 20 c 24,40,41
EndSplineSet
Validated: 33
EndChar

StartChar: visu1sut1su2
Encoding: 58450 58450 68
Width: 1416
VWidth: 0
Flags: W
LayerCount: 2
Fore
SplineSet
1029 -526 m 24,0,1
 991 -518 991 -518 999 -486 c 0,2,3
 1016 -426.291 1016 -426.291 1103 -442 c 24,4,5
 1190.71 -457.837 1190.71 -457.837 1143 -512 c 24,6,7
 1114.76 -544.055 1114.76 -544.055 1029 -526 c 24,0,1
987 -216 m 24,8,9
 934.474 -198.222 934.474 -198.222 975 -164 c 24,10,11
 1031.46 -116.321 1031.46 -116.321 1077 -140 c 24,12,13
 1127 -166 1127 -166 1105 -208 c 0,14,15
 1082.47 -248.311 1082.47 -248.311 987 -216 c 24,8,9
747 0 m 24,16,17
 697.299 1.67908 697.299 1.67908 715 30 c 0,18,19
 756.253 96.0043 756.253 96.0043 789 104 c 24,20,21
 790.501 102.792 790.501 102.792 861 102 c 0,22,23
 1033 98 1033 98 1067 110 c 0,24,25
 1149.14 137.96 1149.14 137.96 1011 20 c 0,26,27
 928.867 -6.14414 928.867 -6.14414 747 0 c 24,16,17
629 336 m 24,28,29
 582.009 374.079 582.009 374.079 625 414 c 24,30,31
 666.008 452.079 666.008 452.079 713 414 c 24,32,33
 782.008 358.079 782.008 358.079 741 320 c 24,34,35
 698.008 280.079 698.008 280.079 629 336 c 24,28,29
35 22 m 24,36,37
 -2.83319 39.0859 -2.83319 39.0859 27 80 c 0,38,39
 517 750 517 750 853 922 c 24,40,41
 906.459 949.918 906.459 949.918 893 904 c 24,42,43
 877.798 852.134 877.798 852.134 819 806 c 24,44,45
 807.588 797.046 807.588 797.046 763 802 c 0,46,47
 745 804 745 804 721 784 c 0,48,49
 591.715 692.911 591.715 692.911 89 52 c 24,50,51
 56.8384 12.1375 56.8384 12.1375 35 22 c 24,36,37
EndSplineSet
Validated: 2081
EndChar

StartChar: visu1sut1su1sut1
Encoding: 58451 58451 69
Width: 1512
VWidth: 0
Flags: W
LayerCount: 2
Fore
SplineSet
1119 -638 m 24,0,1
 1046.35 -635.368 1046.35 -635.368 1041 -608 c 24,2,3
 1030.76 -555.67 1030.76 -555.67 1101 -546 c 24,4,5
 1202.91 -531.969 1202.91 -531.969 1317 -570 c 24,6,7
 1387.93 -593.642 1387.93 -593.642 1317 -618 c 24,8,9
 1245.43 -642.581 1245.43 -642.581 1119 -638 c 24,0,1
985 -306 m 24,10,11
 935.854 -255.684 935.854 -255.684 983 -226 c 24,12,13
 1043.85 -187.684 1043.85 -187.684 1093 -238 c 24,14,15
 1127.85 -273.684 1127.85 -273.684 1067 -312 c 24,16,17
 1019.85 -341.684 1019.85 -341.684 985 -306 c 24,10,11
715 -110 m 24,18,19
 671.18 -105.59 671.18 -105.59 689 -74 c 24,20,21
 708.379 -39.6458 708.379 -39.6458 759 -32 c 24,22,23
 974.082 0.486337 974.082 0.486337 1073 -16 c 24,24,25
 1127.65 -25.1089 1127.65 -25.1089 1083 -86 c 24,26,27
 1071.41 -101.799 1071.41 -101.799 1007 -106 c 24,28,29
 805.707 -119.128 805.707 -119.128 715 -110 c 24,18,19
645 214 m 24,30,31
 603.72 263.971 603.72 263.971 663 302 c 24,32,33
 709.72 331.971 709.72 331.971 751 282 c 24,34,35
 785.72 239.971 785.72 239.971 739 210 c 24,36,37
 679.72 171.971 679.72 171.971 645 214 c 24,30,31
19 18 m 24,38,39
 -2.95092 57.5116 -2.95092 57.5116 25 90 c 0,40,41
 335 452 335 452 945 708 c 24,42,43
 989 726.782 989 726.782 989 694 c 24,44,45
 989 662.219 989 662.219 945 648 c 24,46,47
 611 542 611 542 55 36 c 0,48,49
 24.3725 8.32946 24.3725 8.32946 19 18 c 24,38,39
EndSplineSet
Validated: 2081
EndChar

StartChar: visuu1su2
Encoding: 58452 58452 70
Width: 1262
VWidth: 0
Flags: W
LayerCount: 2
Fore
SplineSet
734 -360 m 0,0,1
 734 -325 734 -325 844 -272 c 16,2,3
 873.077 -257.981 873.077 -257.981 892.448 -257.981 c 0,4,5
 910.385 -257.981 910.385 -257.981 920 -270 c 0,6,7
 929.68 -282.32 929.68 -282.32 929.68 -301.222 c 0,8,9
 929.68 -325.28 929.68 -325.28 914 -360 c 8,10,11
 891 -411 891 -411 848 -430 c 16,12,13
 843.5 -432 843.5 -432 837.625 -432 c 0,14,15
 820 -432 820 -432 790 -414 c 8,16,17
 735 -381 735 -381 734 -360 c 0,0,1
727 -126 m 0,18,19
 719.771 -117.049 719.771 -117.049 719.771 -105.017 c 0,20,21
 719.771 -82.0984 719.771 -82.0984 746 -48 c 8,22,23
 787 6 787 6 828 30 c 0,24,25
 849.635 42.0192 849.635 42.0192 863.411 42.0192 c 0,26,27
 878.288 42.0192 878.288 42.0192 884 28 c 0,28,29
 885.422 24.6222 885.422 24.6222 885.422 19.0321 c 0,30,31
 885.422 -6.82222 885.422 -6.82222 855 -80 c 8,32,33
 837 -120 837 -120 810 -130 c 16,34,35
 781.94 -140.58 781.94 -140.58 762.132 -140.58 c 0,36,37
 738.88 -140.58 738.88 -140.58 727 -126 c 0,18,19
523 198 m 0,38,39
 512.44 204.813 512.44 204.813 512.44 215.804 c 0,40,41
 512.44 237.077 512.44 237.077 552 274 c 0,42,43
 599 318 599 318 684 346 c 24,44,45
 725 358 725 358 936 358 c 0,46,47
 956 358 956 358 992 402 c 0,48,49
 1006.86 420.286 1006.86 420.286 1025.63 420.286 c 0,50,51
 1039.71 420.286 1039.71 420.286 1056 410 c 0,52,53
 1082.18 393.091 1082.18 393.091 1082.18 378.562 c 0,54,55
 1082.18 366.455 1082.18 366.455 1064 356 c 0,56,57
 1003 321 1003 321 1000 306 c 0,58,59
 999 300.5 999 300.5 999 285.5 c 128,-1,60
 999 270.5 999 270.5 1000 246 c 0,61,62
 1000.03 245.133 1000.03 245.133 1000.03 244.298 c 0,63,64
 1000.03 221.857 1000.03 221.857 975.99 221.857 c 0,65,66
 974.071 221.857 974.071 221.857 972 222 c 8,67,68
 950 225 950 225 920 252 c 16,69,70
 904.906 265.781 904.906 265.781 870.863 265.781 c 0,71,72
 853.031 265.781 853.031 265.781 830 262 c 0,73,74
 766 252 766 252 681 239 c 0,75,76
 585 226 585 226 576 220 c 0,77,78
 539.765 196.941 539.765 196.941 527.266 196.941 c 0,79,80
 524.588 196.941 524.588 196.941 523 198 c 0,38,39
14 12 m 0,81,82
 -21.1486 23.7162 -21.1486 23.7162 -21.1486 44.9321 c 0,83,84
 -21.1486 54.5 -21.1486 54.5 -14 66 c 0,85,86
 240 475 240 475 980 968 c 16,87,88
 1039.18 1008.09 1039.18 1008.09 1052.81 1008.09 c 0,89,90
 1053.45 1008.09 1053.45 1008.09 1054 1008 c 0,91,92
 1082.93 1003.5 1082.93 1003.5 1082.93 983.296 c 0,93,94
 1082.93 972.071 1082.93 972.071 1074 956 c 8,95,96
 1029 874 1029 874 974 862 c 0,97,98
 948.542 869.042 948.542 869.042 931.885 869.042 c 0,99,100
 917.792 869.042 917.792 869.042 910 864 c 0,101,102
 412 542 412 542 74 36 c 16,103,104
 56 9 56 9 31.25 9 c 0,105,106
 23 9 23 9 14 12 c 0,81,82
EndSplineSet
Validated: 1
Comment: "climacus modified" 
EndChar

StartChar: visuu2su2
Encoding: 58453 58453 71
Width: 1066
VWidth: 0
Flags: W
LayerCount: 2
Fore
SplineSet
812 -374 m 24,0,1
 878.974 -395.959 878.974 -395.959 878 -432 c 24,2,3
 876.265 -496.193 876.265 -496.193 808 -522 c 24,4,5
 736.076 -549.191 736.076 -549.191 714 -494 c 24,6,7
 700.422 -460.055 700.422 -460.055 756 -392 c 24,8,9
 779.423 -363.319 779.423 -363.319 812 -374 c 24,0,1
680 -168 m 24,10,11
 731.863 -155.797 731.863 -155.797 744 -196 c 24,12,13
 756.782 -238.34 756.782 -238.34 712 -274 c 24,14,15
 678.401 -300.754 678.401 -300.754 636 -282 c 24,16,17
 594.28 -263.547 594.28 -263.547 608 -228 c 24,18,19
 626.279 -180.64 626.279 -180.64 680 -168 c 24,10,11
460 -66 m 24,20,21
 379.146 -79.6983 379.146 -79.6983 526.055 39.0158 c 24,22,23
 610 64 610 64 728 68 c 0,24,25
 753.816 68.8751 753.816 68.8751 794 134 c 24,26,27
 832.407 192.146 832.407 192.146 844 126 c 24,28,29
 858.388 43.9061 858.388 43.9061 828 -60 c 24,30,31
 817.711 -95.1828 817.711 -95.1828 782 -86 c 24,32,33
 787.561 -69.0979 787.561 -69.0979 758 -42 c 24,34,35
 734 -20 734 -20 702 -28 c 0,36,37
 676.967 -34.9489 676.967 -34.9489 460 -66 c 24,20,21
458 170 m 24,38,39
 418.264 172.547 418.264 172.547 426 212 c 24,40,41
 437.232 269.282 437.232 269.282 478 272 c 0,42,43
 698 286 698 286 718 304 c 24,44,-1
 756 360 l 24,45,46
 780.824 379.15 780.824 379.15 788 358 c 24,47,48
 808.73 296.902 808.73 296.902 794 248 c 24,49,50
 780.074 201.767 780.074 201.767 738 192 c 24,51,52
 603.15 160.696 603.15 160.696 458 170 c 24,38,39
754.61 692.759 m 0,53,54
 752.635 689.781 752.635 689.781 686 646 c 0,55,56
 596 570 596 570 60 14 c 24,57,58
 33.6427 -11.6427 33.6427 -11.6427 22 0 c 24,59,60
 -11.037 33.037 -11.037 33.037 14 60 c 0,61,62
 533.797 600.659 533.797 600.659 672 700 c 0,63,64
 806.61 796.759 806.61 796.759 754.61 692.759 c 0,53,54
EndSplineSet
Validated: 2081
EndChar

StartChar: visut1sux1
Encoding: 58454 58454 72
Width: 1104
VWidth: 0
Flags: W
LayerCount: 2
Fore
SplineSet
741 64 m 24,0,1
 715.035 100.31 715.035 100.31 765 136 c 24,2,3
 860.789 204.421 860.789 204.421 881 164 c 24,4,5
 931.154 63.6923 931.154 63.6923 845 -24 c 24,6,7
 656.771 -215.59 656.771 -215.59 433 -292 c 25,8,9
 554.693 -250.446 554.693 -250.446 763 -52 c 24,10,11
 803.537 -13.3822 803.537 -13.3822 771 30 c 0,12,13
 765 38 765 38 741 64 c 24,0,1
547 252 m 24,14,15
 479.719 246.696 479.719 246.696 495 304 c 24,16,17
 506.303 346.386 506.303 346.386 571 342 c 0,18,19
 665.811 342 665.811 342 695 342 c 0,20,21
 726.714 342 726.714 342 881 378 c 0,22,23
 941.95 391.331 941.95 391.331 891 320 c 0,24,25
 861 278 861 278 547 252 c 24,14,15
21 18 m 24,26,27
 -10.0605 22.1974 -10.0605 22.1974 23 72 c 24,28,29
 223.805 374.495 223.805 374.495 333 488 c 24,30,31
 485 646 485 646 617 732 c 0,32,33
 639 746.635 639 746.635 639 772 c 0,34,35
 644.225 809.61 644.225 809.61 675 810 c 24,36,37
 767.543 811.171 767.543 811.171 797 774 c 24,38,39
 820.003 744.972 820.003 744.972 759 704 c 24,40,41
 734.029 687.229 734.029 687.229 663 684 c 0,42,43
 619 682 619 682 585 662 c 24,44,45
 356.842 490.606 356.842 490.606 97 62 c 0,46,47
 66.8153 11.8087 66.8153 11.8087 21 18 c 24,26,27
EndSplineSet
Validated: 33
EndChar

StartChar: ciS1
Encoding: 58455 58455 73
Width: 1106
VWidth: 0
Flags: W
LayerCount: 2
Fore
SplineSet
688 -116 m 0,0,1
 742.4 -92.88 742.4 -92.88 803.274 -92.88 c 0,2,3
 831.92 -92.88 831.92 -92.88 862 -98 c 0,4,5
 956.861 -113.81 956.861 -113.81 956.861 -146.238 c 0,6,7
 956.861 -152.781 956.861 -152.781 953 -160 c 8,8,9
 933 -198 933 -198 800 -214 c 16,10,11
 744.92 -220.48 744.92 -220.48 705.262 -220.48 c 0,12,13
 634.76 -220.48 634.76 -220.48 613 -200 c 0,14,15
 603.059 -190.824 603.059 -190.824 603.059 -180.867 c 0,16,17
 603.059 -151.765 603.059 -151.765 688 -116 c 0,0,1
716 254 m 0,18,19
 871.374 252.094 871.374 252.094 871.374 161.142 c 0,20,21
 871.374 156.678 871.374 156.678 871 152 c 0,22,23
 867.138 97.931 867.138 97.931 759.799 97.931 c 0,24,25
 755.966 97.931 755.966 97.931 752 98 c 0,26,27
 577.994 100.983 577.994 100.983 577.994 141.535 c 0,28,-1
 578 142 l 0,29,30
 581.931 254.034 581.931 254.034 711.418 254.034 c 0,31,32
 713.69 254.034 713.69 254.034 716 254 c 0,18,19
-12 -28 m 0,33,34
 -25.0179 -7.26786 -25.0179 -7.26786 -25.0179 10.6747 c 0,35,36
 -25.0179 29.9464 -25.0179 29.9464 -10 46 c 8,37,38
 465 554 465 554 794 784 c 0,39,40
 839.027 816.446 839.027 816.446 877.039 816.446 c 0,41,42
 896.432 816.446 896.432 816.446 914 808 c 0,43,44
 935.235 797.941 935.235 797.941 935.235 772.268 c 0,45,46
 935.235 752 935.235 752 922 722 c 8,47,48
 904 682 904 682 842 670 c 0,49,50
 830 668 830 668 776 668 c 0,51,52
 683 668 683 668 26 -12 c 16,53,54
 6.22727 -32.4545 6.22727 -32.4545 -4.24793 -32.4545 c 0,55,56
 -9.13636 -32.4545 -9.13636 -32.4545 -12 -28 c 0,33,34
EndSplineSet
Validated: 1
Comment: "climacus modified" 
EndChar

StartChar: visut2suy1
Encoding: 58456 58456 74
Width: 1512
VWidth: 0
Flags: W
LayerCount: 2
Fore
SplineSet
961 -350 m 24,0,1
 925.218 -322.887 925.218 -322.887 959 -292 c 24,2,3
 997.146 -257.124 997.146 -257.124 1031 -286 c 0,4,5
 1083.45 -338.764 1083.45 -338.764 1195 -428 c 0,6,7
 1205 -436 1205 -436 1235 -436 c 0,8,9
 1261 -436 1261 -436 1305 -402 c 24,10,11
 1356.61 -401.931 1356.61 -401.931 1331 -418 c 0,12,13
 1227 -482 1227 -482 1169 -524 c 24,14,15
 1156.24 -532.477 1156.24 -532.477 1139 -498 c 0,16,17
 1127 -474 1127 -474 961 -350 c 24,0,1
723 -98 m 0,18,19
 683.021 -89.2352 683.021 -89.2352 709 -42 c 24,20,21
 724.873 -13.1392 724.873 -13.1392 767 -18 c 0,22,23
 873 -32 873 -32 911 -42 c 24,24,25
 957.501 -56.1116 957.501 -56.1116 935 -96 c 24,26,27
 919.08 -124.223 919.08 -124.223 867 -120 c 24,28,29
 807 -114 807 -114 723 -98 c 0,18,19
603 160 m 24,30,31
 526.041 185.042 526.041 185.042 607 228 c 24,32,33
 630.21 240.316 630.21 240.316 701 212 c 0,34,35
 715.194 206.868 715.194 206.868 853 210 c 0,36,37
 941 212 941 212 859 146 c 24,38,39
 796.383 97.0737 796.383 97.0737 603 160 c 24,30,31
65 34 m 24,40,41
 36.8785 49.1423 36.8785 49.1423 71 82 c 0,42,43
 439 454 439 454 841 638 c 24,44,45
 900.374 667.286 900.374 667.286 875 614 c 24,46,47
 855 572 855 572 747 530 c 0,48,49
 701.867 511.842 701.867 511.842 681 512 c 0,50,51
 519 444 519 444 123 54 c 24,52,53
 89.2056 20.9663 89.2056 20.9663 65 34 c 24,40,41
EndSplineSet
Validated: 33
EndChar

StartChar: visut2su2
Encoding: 58457 58457 75
Width: 1062
VWidth: 0
Flags: W
LayerCount: 2
Fore
SplineSet
743 -394 m 24,0,1
 725.236 -336.759 725.236 -336.759 761 -314 c 24,2,3
 803.557 -286.918 803.557 -286.918 853 -324 c 24,4,5
 895.324 -355.743 895.324 -355.743 873 -398 c 24,6,7
 855.149 -431.789 855.149 -431.789 797 -430 c 24,8,9
 753.76 -428.67 753.76 -428.67 743 -394 c 24,0,1
687 -190 m 24,10,11
 639.914 -192.316 639.914 -192.316 655 -148 c 24,12,13
 671.914 -98.3157 671.914 -98.3157 719 -96 c 24,14,15
 793.914 -92.3157 793.914 -92.3157 777 -142 c 24,16,17
 761.914 -186.316 761.914 -186.316 687 -190 c 24,10,11
563 32 m 0,18,19
 529.866 39.5366 529.866 39.5366 559 72 c 24,20,21
 596.132 113.375 596.132 113.375 633 110 c 0,22,23
 801.635 94.5615 801.635 94.5615 807 80 c 24,24,25
 833 5 833 5 769 0 c 0,26,27
 723.149 -2.62689 723.149 -2.62689 563 32 c 0,18,19
489 224 m 24,28,29
 451.33 233.712 451.33 233.712 489 266 c 152,-1,30
 526.665 298.284 526.665 298.284 573 296 c 0,31,32
 739.171 285.393 739.171 285.393 767 268 c 0,33,34
 806 242 806 242 745 200 c 24,35,36
 699.225 169.801 699.225 169.801 489 224 c 24,28,29
31 42 m 24,37,38
 8.22893 64.7711 8.22893 64.7711 31 84 c 0,39,40
 510 468 510 468 903 650 c 0,41,42
 981.557 686.483 981.557 686.483 929 618 c 24,43,44
 913.073 597.247 913.073 597.247 837 564 c 24,45,46
 833.16 562.322 833.16 562.322 794 559 c 0,47,48
 778.937 557.944 778.937 557.944 753 544 c 0,49,50
 582.21 452.183 582.21 452.183 57 62 c 24,51,-1
 31 42 l 24,37,38
EndSplineSet
Validated: 2081
EndChar

StartChar: visut3
Encoding: 58458 58458 76
Width: 1106
VWidth: 0
Flags: W
LayerCount: 2
Fore
SplineSet
773 -238 m 24,0,1
 873.458 -254.29 873.458 -254.29 879 -268 c 24,2,3
 896.152 -310.428 896.152 -310.428 811 -332 c 24,4,5
 708.258 -358.028 708.258 -358.028 579 -344 c 24,6,7
 528.927 -338.566 528.927 -338.566 553 -304 c 24,8,9
 588.919 -252.424 588.919 -252.424 657 -232 c 24,10,11
 684.719 -223.684 684.719 -223.684 773 -238 c 24,0,1
653 16 m 0,12,13
 784 19 784 19 795 0 c 24,14,15
 828.55 -50.9664 828.55 -50.9664 779 -84 c 24,16,17
 750 -104 750 -104 631 -106 c 0,18,19
 534.553 -106.843 534.553 -106.843 543 -60 c 24,20,21
 556.168 13.0205 556.168 13.0205 653 16 c 0,12,13
609 148 m 24,22,23
 539.831 143.303 539.831 143.303 501 162 c 24,24,25
 468.493 177.651 468.493 177.651 501 200 c 24,26,27
 558.075 239.239 558.075 239.239 629 250 c 24,28,29
 728.396 265.081 728.396 265.081 791 244 c 24,30,31
 837.285 228.414 837.285 228.414 825 184 c 24,32,33
 778.58 159.515 778.58 159.515 609 148 c 24,22,23
9 16 m 24,34,35
 -17.8362 18.4396 -17.8362 18.4396 11 54 c 0,36,37
 236 330 236 330 867 702 c 0,38,39
 924.184 735.967 924.184 735.967 935 690 c 0,40,41
 941.884 656.879 941.884 656.879 867 598 c 24,42,43
 845.716 581.265 845.716 581.265 804 587 c 0,44,45
 765.968 592.194 765.968 592.194 729 578 c 0,46,47
 608.477 529.713 608.477 529.713 77 48 c 24,48,49
 33.1866 13.8012 33.1866 13.8012 9 16 c 24,34,35
EndSplineSet
Validated: 33
EndChar

StartChar: visut3suw1
Encoding: 58459 58459 77
Width: 1412
VWidth: 0
Flags: W
LayerCount: 2
Fore
SplineSet
714 -706 m 24,0,1
 688.894 -682.659 688.894 -682.659 704 -660 c 24,2,3
 739.075 -607.388 739.075 -607.388 798 -580 c 24,4,5
 822.03 -568.831 822.03 -568.831 846 -594 c 0,6,7
 1032 -792 1032 -792 1162 -832 c 24,8,9
 1221.04 -849.593 1221.04 -849.593 1072 -920 c 24,10,11
 1023.38 -935.886 1023.38 -935.886 960 -898 c 24,12,13
 849.422 -831.901 849.422 -831.901 714 -706 c 24,0,1
672 -414 m 24,14,15
 610 -404 610 -404 618 -374 c 0,16,17
 636.344 -321.356 636.344 -321.356 764 -316 c 24,18,19
 866.972 -311.679 866.972 -311.679 904 -362 c 24,20,21
 933.122 -401.576 933.122 -401.576 842 -422 c 24,22,23
 791.616 -433.293 791.616 -433.293 672 -414 c 24,14,15
608 -98 m 24,24,25
 516.935 -92.4415 516.935 -92.4415 598 -44 c 24,26,27
 686.762 9.04044 686.762 9.04044 772 0 c 24,28,29
 867.242 -16.9603 867.242 -16.9603 862 -72 c 0,30,31
 858 -114 858 -114 608 -98 c 24,24,25
578 164 m 24,32,33
 525.868 176.767 525.868 176.767 554 214 c 24,34,35
 580.893 249.594 580.893 249.594 646 254 c 24,36,37
 828.809 271.642 828.809 271.642 820 232 c 24,38,39
 808 178 808 178 750 166 c 0,40,41
 650.418 146.265 650.418 146.265 578 164 c 24,32,33
46 24 m 24,42,43
 18.2081 42.1716 18.2081 42.1716 36 70 c 0,44,45
 280 440 280 440 654 688 c 24,46,47
 681.88 706.12 681.88 706.12 696 692 c 24,48,49
 711.472 676.528 711.472 676.528 686 656 c 24,50,51
 340 386 340 386 88 36 c 0,52,53
 67.7702 9.76567 67.7702 9.76567 46 24 c 24,42,43
EndSplineSet
Validated: 2081
EndChar

StartChar: visut3suy1
Encoding: 58460 58460 78
Width: 1840
VWidth: 0
Flags: W
LayerCount: 2
Fore
SplineSet
1146 -408 m 0,0,1
 1122.96 -394.689 1122.96 -394.689 1138 -362 c 24,2,3
 1153.92 -327.385 1153.92 -327.385 1192 -308 c 24,4,5
 1225.58 -290.907 1225.58 -290.907 1248 -306 c 0,6,7
 1287.32 -333.322 1287.32 -333.322 1368 -392 c 0,8,9
 1385.86 -404.99 1385.86 -404.99 1428 -408 c 0,10,11
 1466 -410 1466 -410 1582 -344 c 24,12,13
 1616.87 -347.633 1616.87 -347.633 1598 -358 c 0,14,15
 1420.13 -469.936 1420.13 -469.936 1308 -526 c 0,16,17
 1304.66 -527.672 1304.66 -527.672 1276 -504 c 24,18,19
 1190 -432 1190 -432 1146 -408 c 0,0,1
868 -218 m 24,20,21
 831.97 -215.933 831.97 -215.933 862 -178 c 24,22,23
 900.735 -129.072 900.735 -129.072 944 -122 c 0,24,25
 1152 -88 1152 -88 1174 -102 c 0,26,27
 1216 -128 1216 -128 1106 -192 c 24,28,29
 1046.39 -228.235 1046.39 -228.235 868 -218 c 24,20,21
722 -22 m 0,30,31
 681.912 -24.2234 681.912 -24.2234 720 22 c 24,32,33
 742.185 47.9726 742.185 47.9726 804 74 c 24,34,35
 823.671 82.2824 823.671 82.2824 872 86 c 24,36,37
 1022.8 97.5999 1022.8 97.5999 1038 92 c 0,38,39
 1096.22 59.8243 1096.22 59.8243 958 16 c 24,40,41
 876 -10 876 -10 722 -22 c 0,30,31
608 210 m 24,42,43
 559.788 220.561 559.788 220.561 596 278 c 24,44,45
 606.64 294.877 606.64 294.877 666 302 c 24,46,47
 827.143 321.337 827.143 321.337 896 314 c 24,48,49
 945.874 308.685 945.874 308.685 910 276 c 24,50,51
 879.286 248.016 879.286 248.016 806 232 c 24,52,53
 656.611 199.352 656.611 199.352 608 210 c 24,42,43
48 34 m 24,54,55
 3.0305 44.9386 3.0305 44.9386 30 76 c 0,56,57
 312 416 312 416 750 682 c 24,58,59
 783.165 702.602 783.165 702.602 802 680 c 24,60,61
 811.574 668.511 811.574 668.511 780 646 c 24,62,63
 342 340 342 340 104 58 c 0,64,65
 76.4099 27.0895 76.4099 27.0895 48 34 c 24,54,55
EndSplineSet
Validated: 2081
EndChar

StartChar: visut4
Encoding: 58461 58461 79
Width: 1160
VWidth: 0
Flags: W
LayerCount: 2
Fore
SplineSet
1013 -564 m 0,0,1
 850.714 -559.429 850.714 -559.429 795 -568 c 0,2,3
 769 -572 769 -572 735 -574 c 24,4,5
 705.094 -574.615 705.094 -574.615 791 -516 c 24,6,7
 894.163 -466.138 894.163 -466.138 975 -458 c 24,8,9
 1075.34 -447.898 1075.34 -447.898 1089 -486 c 24,10,11
 1118.02 -566.958 1118.02 -566.958 1013 -564 c 0,0,1
819 -228 m 0,12,13
 953 -242 953 -242 967 -274 c 24,14,15
 997.182 -333.273 997.182 -333.273 971 -342 c 24,16,17
 904.298 -364.234 904.298 -364.234 745 -348 c 24,18,19
 654.287 -338.755 654.287 -338.755 657 -310 c 24,20,21
 658.822 -290.682 658.822 -290.682 755 -242 c 24,22,23
 789.286 -224.645 789.286 -224.645 819 -228 c 0,12,13
783 -8 m 24,24,25
 918.747 -35.5909 918.747 -35.5909 929 -50 c 24,26,27
 959.965 -93.519 959.965 -93.519 857 -112 c 24,28,29
 739.893 -133.019 739.893 -133.019 617 -106 c 24,30,31
 549.388 -91.1349 549.388 -91.1349 575 -50 c 24,32,33
 595.078 -17.7535 595.078 -17.7535 683 0 c 24,34,35
 713.419 6.14239 713.419 6.14239 783 -8 c 24,24,25
733 146 m 24,36,37
 620.43 136.379 620.43 136.379 581 148 c 24,38,39
 516.446 167.026 516.446 167.026 543 202 c 24,40,41
 575.338 244.592 575.338 244.592 663 256 c 24,42,43
 780.869 271.339 780.869 271.339 835 240 c 24,44,45
 870.7 219.331 870.7 219.331 815 168 c 24,46,47
 797.07 151.476 797.07 151.476 733 146 c 24,36,37
21 0 m 24,48,49
 6.03194 35.379 6.03194 35.379 21 52 c 0,50,51
 335 444 335 444 763 712 c 24,52,53
 812.405 743.427 812.405 743.427 823 718 c 24,54,55
 831.101 698.558 831.101 698.558 783 664 c 0,56,57
 373 380 373 380 43 0 c 24,58,59
 28.128 -16.8481 28.128 -16.8481 21 0 c 24,48,49
EndSplineSet
Validated: 2081
EndChar

StartChar: ds
Encoding: 58462 58462 80
Width: 581
VWidth: 0
Flags: W
LayerCount: 2
Fore
SplineSet
325 99 m 0,0,1
 323.5 177 323.5 177 444.5 207 c 24,2,3
 545.995 230.316 545.995 230.316 509 151.5 c 0,4,5
 419.369 -47.0233 419.369 -47.0233 313.5 -116.5 c 25,6,7
 384 -15 384 -15 401 53 c 0,8,9
 410.249 93.3704 410.249 93.3704 388 89 c 24,10,11
 325.501 79.2166 325.501 79.2166 325 99 c 0,0,1
7.5 85 m 0,12,13
 -16.7559 155.131 -16.7559 155.131 114.5 167 c 0,14,15
 208.5 175.5 208.5 175.5 182.5 96.5 c 0,16,17
 119.728 -84.6889 119.728 -84.6889 26 -130.5 c 25,18,19
 69.5 -87 69.5 -87 90 0 c 0,20,21
 98.9257 33.5942 98.9257 33.5942 79 36.5 c 0,22,23
 21.5267 47.5055 21.5267 47.5055 7.5 85 c 0,12,13
EndSplineSet
Comment: "distropha" 
EndChar

StartChar: dslsx6
Encoding: 58463 58463 81
Width: 1294
VWidth: 0
Flags: W
LayerCount: 2
Fore
SplineSet
669 182 m 0,0,1
 669.405 182.024 669.405 182.024 669.806 182.024 c 0,2,3
 686.262 182.024 686.262 182.024 697 142 c 0,4,5
 698.932 135.432 698.932 135.432 706.238 135.432 c 0,6,7
 717.841 135.432 717.841 135.432 743 152 c 0,8,9
 753 159 753 159 864 282 c 0,10,11
 886.781 306.469 886.781 306.469 886.781 320.971 c 0,12,13
 886.781 323.656 886.781 323.656 886 326 c 0,14,15
 862 402 862 402 779 441 c 0,16,17
 738.093 460.148 738.093 460.148 738.093 480.054 c 0,18,19
 738.093 483.019 738.093 483.019 739 486 c 8,20,21
 744 502 744 502 801 515 c 16,22,23
 816.545 518.682 816.545 518.682 828.242 518.682 c 0,24,25
 845.136 518.682 845.136 518.682 854 511 c 0,26,27
 904 468 904 468 943 446 c 0,28,29
 960.417 435.972 960.417 435.972 974.769 435.972 c 0,30,31
 987.611 435.972 987.611 435.972 998 444 c 8,32,-1
 1105 572 l 16,33,34
 1131.6 596.5 1131.6 596.5 1147.42 596.5 c 0,35,36
 1154.2 596.5 1154.2 596.5 1159 592 c 0,37,38
 1176.79 575.579 1176.79 575.579 1176.79 543.241 c 0,39,40
 1176.79 528.316 1176.79 528.316 1173 510 c 0,41,42
 1156.94 458.34 1156.94 458.34 1143.81 458.34 c 0,43,44
 1138.13 458.34 1138.13 458.34 1133 468 c 0,45,46
 1124.54 483.385 1124.54 483.385 1107.79 483.385 c 0,47,48
 1102.77 483.385 1102.77 483.385 1097 482 c 0,49,50
 1038 469 1038 469 1007 394 c 16,51,52
 1000.43 378.159 1000.43 378.159 1000.43 367.991 c 0,53,54
 1000.43 351.841 1000.43 351.841 1017 350 c 0,55,56
 1113 341 1113 341 1115 337 c 0,57,58
 1116.68 333.421 1116.68 333.421 1116.68 329.355 c 0,59,60
 1116.68 314.105 1116.68 314.105 1093 292 c 0,61,62
 1079.4 279.2 1079.4 279.2 1009.48 279.2 c 0,63,64
 992 279.2 992 279.2 971 280 c 0,65,66
 965.286 280.19 965.286 280.19 959.971 280.19 c 0,67,68
 909.476 280.19 909.476 280.19 895 263 c 0,69,70
 811 162 811 162 729 88 c 0,71,72
 705.8 66.975 705.8 66.975 675.241 66.975 c 0,73,74
 663.65 66.975 663.65 66.975 651 70 c 0,75,76
 630.515 74.7273 630.515 74.7273 630.515 104.285 c 0,77,78
 630.515 112.242 630.515 112.242 632 122 c 8,79,80
 642 180 642 180 669 182 c 0,0,1
293 170 m 0,81,82
 293 185 293 185 381 246 c 16,83,84
 413 268.261 413 268.261 433.386 268.261 c 0,85,86
 442.304 268.261 442.304 268.261 449 264 c 0,87,88
 467.283 252.022 467.283 252.022 467.283 227.325 c 0,89,90
 467.283 212.848 467.283 212.848 461 194 c 8,91,92
 431 103 431 103 423 90 c 0,93,94
 407.387 63.0323 407.387 63.0323 407.387 35.5609 c 0,95,96
 407.387 24.3226 407.387 24.3226 410 13 c 0,97,98
 413 0 413 0 507 0 c 16,99,100
 540.882 -9.17647 540.882 -9.17647 540.882 -15.3633 c 0,101,102
 540.882 -17.9412 540.882 -17.9412 535 -20 c 0,103,104
 491.25 -35.625 491.25 -35.625 432.656 -35.625 c 0,105,106
 397.5 -35.625 397.5 -35.625 357 -30 c 0,107,108
 322.429 -25.2857 322.429 -25.2857 322.429 -9.45918 c 0,109,110
 322.429 -5.14286 322.429 -5.14286 325 0 c 8,111,112
 335 21 335 21 347 30 c 0,113,114
 366 44 366 44 371 124 c 16,115,116
 371.045 125.955 371.045 125.955 371.045 127.818 c 0,117,118
 371.045 166.023 371.045 166.023 351.943 166.023 c 0,119,120
 351.477 166.023 351.477 166.023 351 166 c 0,121,122
 336.75 165.5 336.75 165.5 326 165.5 c 0,123,124
 293.75 165.5 293.75 165.5 293 170 c 0,81,82
-36 146 m 0,125,126
 -36.5378 146.941 -36.5378 146.941 -36.5378 148.126 c 0,127,128
 -36.5378 164.571 -36.5378 164.571 67 228 c 0,129,130
 98.2 247.2 98.2 247.2 117.88 247.2 c 0,131,132
 122.8 247.2 122.8 247.2 127 246 c 8,133,134
 163 235 163 235 183 195 c 16,135,136
 192.818 174.818 192.818 174.818 192.818 154.339 c 0,137,138
 192.818 137.273 192.818 137.273 186 120 c 0,139,140
 159 49 159 49 17 -70 c 25,141,-1
 91 38 l 0,142,143
 100.941 65.5294 100.941 65.5294 100.941 83.41 c 0,144,145
 100.941 112.294 100.941 112.294 75 116 c 0,146,147
 -27 130 -27 130 -36 146 c 0,125,126
EndSplineSet
Validated: 1
Comment: "distropha expectare" 
EndChar

StartChar: dsN
Encoding: 58464 58464 82
Width: 814
VWidth: 0
Flags: W
LayerCount: 2
Fore
SplineSet
373 210 m 0,0,1
 379 247 379 247 465 290 c 16,2,3
 478.37 296.685 478.37 296.685 490.008 296.685 c 0,4,5
 511.444 296.685 511.444 296.685 527 274 c 0,6,7
 542.364 251.545 542.364 251.545 542.364 224.901 c 0,8,9
 542.364 206.455 542.364 206.455 535 186 c 8,10,11
 509 114 509 114 487 74 c 0,12,13
 481.182 64.5455 481.182 64.5455 481.182 56.6777 c 0,14,15
 481.182 42.9091 481.182 42.9091 499 34 c 0,16,17
 503.267 31.8667 503.267 31.8667 514.076 31.8667 c 0,18,19
 543.8 31.8667 543.8 31.8667 623 48 c 0,20,21
 627.375 48.7812 627.375 48.7812 631.018 48.7812 c 0,22,23
 649.133 48.7812 649.133 48.7812 649.133 29.4578 c 0,24,25
 649.133 27.8 649.133 27.8 649 26 c 8,26,27
 647 2 647 2 619 -10 c 24,28,29
 526 -49 526 -49 405 -78 c 16,30,31
 394.538 -80.4615 394.538 -80.4615 385.97 -80.4615 c 0,32,33
 366.692 -80.4615 366.692 -80.4615 357 -68 c 0,34,35
 348.5 -57.5 348.5 -57.5 348.5 -45 c 128,-1,36
 348.5 -32.5 348.5 -32.5 357 -18 c 8,37,38
 418 86 418 86 427 110 c 0,39,40
 435.526 133.211 435.526 133.211 435.526 147.446 c 0,41,42
 435.526 163.263 435.526 163.263 425 168 c 0,43,44
 372.845 191.707 372.845 191.707 372.845 208.22 c 0,45,46
 372.845 209.121 372.845 209.121 373 210 c 0,0,1
-7 156 m 0,47,48
 -10.7651 158.861 -10.7651 158.861 -10.7651 163.084 c 0,49,50
 -10.7651 186.898 -10.7651 186.898 109 254 c 0,51,52
 139.857 271.357 139.857 271.357 167.408 271.357 c 0,53,54
 182.714 271.357 182.714 271.357 197 266 c 8,55,56
 246 248 246 248 249 202 c 16,57,58
 249.521 194.188 249.521 194.188 249.521 186.549 c 0,59,60
 249.521 120.854 249.521 120.854 211 68 c 8,61,62
 70 -127 70 -127 -19 -168 c 25,63,64
 129 10 129 10 133 32 c 0,65,66
 137 53.6667 137 53.6667 137 68.8889 c 0,67,68
 137 99.3333 137 99.3333 121 104 c 0,69,70
 19 134 19 134 -7 156 c 0,47,48
EndSplineSet
Validated: 1
Comment: "distropha cum episema" 
EndChar

StartChar: dsB
Encoding: 58465 58465 83
Width: 762
VWidth: 0
Flags: W
LayerCount: 2
Fore
SplineSet
415 276 m 0,0,1
 414.695 277.037 414.695 277.037 414.695 278.222 c 0,2,3
 414.695 296.476 414.695 296.476 487 350 c 8,4,5
 521 375 521 375 551 376 c 16,6,7
 555.167 376.167 555.167 376.167 559.056 376.167 c 0,8,9
 601.833 376.167 601.833 376.167 611 356 c 0,10,11
 621.667 332.889 621.667 332.889 621.667 310.568 c 0,12,13
 621.667 282.667 621.667 282.667 605 256 c 0,14,15
 241 -302 241 -302 -461 -732 c 25,16,17
 363 -90 363 -90 495 190 c 0,18,19
 499.654 199.731 499.654 199.731 499.654 210.536 c 0,20,21
 499.654 225.269 499.654 225.269 491 242 c 8,22,-1
 451 252 l 16,23,24
 446.667 251 446.667 251 442.778 251 c 0,25,26
 423.333 251 423.333 251 415 276 c 0,0,1
121 274 m 16,27,28
 120.89 274.915 120.89 274.915 120.89 275.888 c 0,29,30
 120.89 301.524 120.89 301.524 197 368 c 0,31,32
 224.9 392.3 224.9 392.3 252.8 392.3 c 0,33,-1
 259 392 l 8,34,35
 321 386 321 386 355 354 c 16,36,37
 375.167 335.056 375.167 335.056 375.167 314.617 c 0,38,39
 375.167 301.611 375.167 301.611 367 288 c 8,40,41
 252 93 252 93 199 88 c 25,42,-1
 243 196 l 24,43,-1
 183 250 l 24,44,-1
 121 274 l 16,27,28
EndSplineSet
Validated: 1
Comment: "distropha liquescens" 
EndChar

StartChar: taB
Encoding: 58466 58466 84
Width: 584
VWidth: 0
Flags: W
LayerCount: 2
Fore
SplineSet
316 313 m 0,0,1
 95 248 95 248 73 164 c 0,2,3
 68 143.5 68 143.5 68 129.75 c 128,-1,4
 68 116 68 116 73 109 c 8,5,6
 96 74 96 74 160 66 c 0,7,8
 173.839 64.6607 173.839 64.6607 187.591 64.6607 c 0,9,10
 327.857 64.6607 327.857 64.6607 459 204 c 0,11,12
 469.552 213.966 469.552 213.966 481.134 213.966 c 0,13,14
 489.31 213.966 489.31 213.966 498 209 c 0,15,16
 507.025 203.3 507.025 203.3 507.025 196.697 c 0,17,18
 507.025 189.4 507.025 189.4 496 181 c 0,19,20
 222.952 -28.6129 222.952 -28.6129 89.3634 -28.6129 c 0,21,22
 77.6452 -28.6129 77.6452 -28.6129 67 -27 c 0,23,24
 1 -17 1 -17 -19 19 c 0,25,26
 -42.12 59.8 -42.12 59.8 -42.12 89.5024 c 0,27,28
 -42.12 103.48 -42.12 103.48 -37 115 c 0,29,30
 42 268 42 268 263 329 c 0,31,32
 283.429 334.762 283.429 334.762 296.175 334.762 c 0,33,34
 307.762 334.762 307.762 334.762 313 330 c 0,35,36
 321.828 323.379 321.828 323.379 321.828 318.889 c 0,37,38
 321.828 315.241 321.828 315.241 316 313 c 0,0,1
EndSplineSet
Validated: 1
Comment: "epiphonus" 
EndChar

StartChar: suv1
Encoding: 58467 58467 85
Width: 664
VWidth: 0
Flags: W
LayerCount: 2
Fore
SplineSet
44 -126 m 0,0,1
 29.3867 -134.697 29.3867 -134.697 26 -98 c 0,2,3
 10.583 77.252 10.583 77.252 10 86 c 0,4,5
 6 146 6 146 52 102 c 0,6,7
 73.6357 80.3643 73.6357 80.3643 90 84 c 0,8,9
 286.61 91.7197 286.61 91.7197 418 110 c 0,10,11
 451.29 114.632 451.29 114.632 450 134 c 0,12,13
 447.26 175.044 447.26 175.044 468 208 c 24,14,15
 523.38 290.526 523.38 290.526 508 208 c 0,16,17
 485.65 88.0664 485.65 88.0664 474 -60 c 24,18,19
 466.28 -99.3535 466.28 -99.3535 448 -98 c 24,20,21
 408.12 -95.0449 408.12 -95.0449 420 -56 c 0,22,23
 434 -12 434 -12 426 -4 c 0,24,25
 411.9 15.5146 411.9 15.5146 396 16 c 24,26,27
 225.631 21.1943 225.631 21.1943 98 6 c 24,28,29
 58.6318 1.31445 58.6318 1.31445 60 -24 c 0,30,31
 68 -110 68 -110 44 -126 c 0,0,1
EndSplineSet
Validated: 33
EndChar

StartChar: gr
Encoding: 58468 58468 86
Width: 482
VWidth: 0
Flags: W
LayerCount: 2
Fore
SplineSet
27 30 m 24,0,1
 -4.32903 47.7834 -4.32903 47.7834 25 86 c 24,2,3
 40.5997 106.327 40.5997 106.327 93 116 c 24,4,5
 121.353 121.234 121.353 121.234 135.082 106.321 c 24,6,7
 220.404 13.6424 220.404 13.6424 297.082 -105.679 c 0,8,9
 316.661 -135.704 316.661 -135.704 294.078 -165.465 c 24,10,11
 270.65 -196.34 270.65 -196.34 221.582 -205.179 c 24,12,13
 188.781 -211.087 188.781 -211.087 179.082 -186.179 c 0,14,15
 116.082 -25.6784 116.082 -25.6784 27 30 c 24,0,1
EndSplineSet
Validated: 33
Comment: "gravis" 
EndChar

StartChar: grNlsc6
Encoding: 58469 58469 87
Width: 1136
VWidth: 0
Flags: W
LayerCount: 2
Fore
SplineSet
665 68 m 24,0,1
 625.516 127.824 625.516 127.824 637 176 c 0,2,3
 671.965 315.99 671.965 315.99 873 372 c 0,4,5
 933.038 388.727 933.038 388.727 967 356 c 24,6,7
 998.691 325.461 998.691 325.461 983 266 c 24,8,9
 972.111 224.737 972.111 224.737 929 212 c 24,10,11
 904.404 204.733 904.404 204.733 895 240 c 0,12,13
 883.954 282.804 883.954 282.804 811 294 c 24,14,15
 774 299 774 299 753 264 c 0,16,17
 717.731 207.113 717.731 207.113 741.965 136.99 c 24,18,19
 755.679 97.3064 755.679 97.3064 821.965 60.9902 c 0,20,21
 842.948 50.8084 842.948 50.8084 899 56 c 24,22,23
 972.016 63.85 972.016 63.85 921 30 c 0,24,25
 826.705 -32.5656 826.705 -32.5656 769 -24 c 24,26,27
 721.019 -16.8779 721.019 -16.8779 665 68 c 24,0,1
167 -224 m 24,28,29
 158.401 -79.7122 158.401 -79.7122 59 26 c 0,30,31
 51.8993 32.9932 51.8993 32.9932 0 54 c 24,32,33
 -18.7863 62.3066 -18.7863 62.3066 11 82 c 24,34,35
 78.1699 126.41 78.1699 126.41 121 134 c 24,36,37
 152.581 139.597 152.581 139.597 169 110 c 24,38,39
 237.887 -14.1772 237.887 -14.1772 273 -140 c 0,40,41
 284.846 -182.448 284.846 -182.448 313 -180 c 0,42,43
 359 -176 359 -176 463 -162 c 0,44,45
 507.944 -157.26 507.944 -157.26 491 -216 c 24,46,47
 475.582 -263.281 475.582 -263.281 429 -246 c 24,48,49
 359.15 -219.663 359.15 -219.663 337 -230 c 0,50,51
 262 -264 262 -264 199 -284 c 0,52,53
 171.673 -291.765 171.673 -291.765 167 -224 c 24,28,29
EndSplineSet
Validated: 33
Comment: "gravis celeriter" 
EndChar

StartChar: grN
Encoding: 58470 58470 88
Width: 620
VWidth: 0
Flags: W
LayerCount: 2
Fore
SplineSet
171 -194 m 0,0,1
 76.5 -31.5 76.5 -31.5 25 0 c 24,2,3
 -4.67242 19.3482 -4.67242 19.3482 31 62 c 24,4,5
 64.7146 102.311 64.7146 102.311 117 110 c 24,6,7
 146.585 114.351 146.585 114.351 167 82 c 24,8,9
 242.465 -88.6092 242.465 -88.6092 247 -96 c 0,10,11
 272 -142 272 -142 307 -134 c 24,12,-1
 423 -100 l 0,13,14
 497.648 -97.4259 497.648 -97.4259 445 -136 c 0,15,16
 390.575 -175.101 390.575 -175.101 257 -198 c 0,17,18
 239 -201 239 -201 217 -220 c 24,19,20
 195.661 -236.389 195.661 -236.389 171 -194 c 0,0,1
EndSplineSet
Validated: 33
Comment: "gravis with episema" 
EndChar

StartChar: tsM
Encoding: 58471 58471 89
Width: 1154
VWidth: 0
Flags: W
LayerCount: 2
Fore
SplineSet
793 830 m 0,0,1
 813 862 813 862 867 902 c 16,2,3
 890 919 890 919 915 919 c 0,4,5
 917 919.2 917 919.2 919.08 919.2 c 0,6,7
 927.4 919.2 927.4 919.2 937 916 c 8,8,9
 993 897 993 897 999 862 c 16,10,11
 1000 856 1000 856 1000 850 c 0,12,13
 1000.03 849 1000.03 849 1000.03 847.973 c 0,14,15
 1000.03 817.161 1000.03 817.161 971 762 c 0,16,17
 913 652 913 652 815 560 c 25,18,19
 887 687 887 687 887 718 c 0,20,21
 887 722 887 722 887 726 c 0,22,23
 887.4 729.4 887.4 729.4 887.4 732.64 c 0,24,25
 887.4 761.8 887.4 761.8 855 778 c 0,26,27
 791.781 809.61 791.781 809.61 791.781 825.8 c 0,28,29
 791.781 828.049 791.781 828.049 793 830 c 0,0,1
465 790 m 0,30,31
 464.84 790.72 464.84 790.72 464.84 791.517 c 0,32,33
 464.84 810.64 464.84 810.64 557 874 c 0,34,35
 595.75 900.694 595.75 900.694 634.5 900.694 c 0,36,-1
 647 900 l 8,37,38
 694 895 694 895 713 858 c 16,39,40
 728.574 827.389 728.574 827.389 728.574 803.123 c 0,41,42
 728.574 782.204 728.574 782.204 717 766 c 0,43,44
 587 594 587 594 493 554 c 17,45,46
 611.033 677.934 611.033 677.934 611.033 712.861 c 0,47,48
 611.033 713.443 611.033 713.443 611 714 c 0,49,50
 610 757 610 757 571 764 c 24,51,52
 467 782 467 782 465 790 c 0,30,31
-21 98 m 0,53,54
 -24.6667 103.667 -24.6667 103.667 -24.6667 110.5 c 0,55,56
 -24.6667 144.667 -24.6667 144.667 67 208 c 0,57,58
 94.5 226.75 94.5 226.75 124.734 226.75 c 0,59,60
 142.875 226.75 142.875 226.75 162 220 c 0,61,62
 213 202 213 202 229 170 c 16,63,64
 243.821 137.308 243.821 137.308 243.821 109.556 c 0,65,66
 243.821 73.641 243.821 73.641 219 46 c 0,67,68
 90 -97 90 -97 -21 -154 c 25,69,70
 118 -15 118 -15 133 22 c 0,71,72
 137.402 33.122 137.402 33.122 137.402 41.8816 c 0,73,74
 137.402 70.9268 137.402 70.9268 89 74 c 8,75,76
 -9 80 -9 80 -21 98 c 0,53,54
EndSplineSet
Validated: 1
Comment: "tristropha melodic" 
EndChar

StartChar: tsMN
Encoding: 58472 58472 90
Width: 1544
VWidth: 0
Flags: W
LayerCount: 2
Fore
SplineSet
876 988 m 0,0,1
 835.835 981.012 835.835 981.012 882 1024 c 24,2,3
 992.467 1092.71 992.467 1092.71 1040 1090 c 24,4,5
 1132.15 1084.76 1132.15 1084.76 1128 1010 c 24,6,7
 1122.44 950.519 1122.44 950.519 1026 838 c 24,8,9
 984 789 984 789 1004 766 c 0,10,11
 1011.03 759.749 1011.03 759.749 1060 766 c 24,12,13
 1284.96 784.554 1284.96 784.554 1302 788 c 0,14,15
 1341.24 795.031 1341.24 795.031 1306 756 c 24,16,17
 1245.81 693.731 1245.81 693.731 1186 668 c 24,18,19
 1162.11 657.722 1162.11 657.722 1134 682 c 24,20,21
 1112 701 1112 701 1088 702 c 0,22,23
 1065.26 704.899 1065.26 704.899 922 670 c 0,24,25
 873.876 662.042 873.876 662.042 878 714 c 24,26,27
 880.632 747.158 880.632 747.158 932 796 c 24,28,29
 1007.54 870.277 1007.54 870.277 1020 919 c 0,30,31
 1031 961 1031 961 994 996 c 0,32,33
 981.157 1006.3 981.157 1006.3 876 988 c 0,0,1
452 918 m 0,34,35
 375.335 920.488 375.335 920.488 418 958 c 0,36,37
 487 995 487 995 580 1016 c 24,38,39
 667.503 1034.4 667.503 1034.4 692 952 c 24,40,41
 711.367 886.857 711.367 886.857 646 794 c 24,42,43
 540.158 643.645 540.158 643.645 478 648 c 25,44,45
 555 721 555 721 564 772 c 0,46,47
 578.89 845.184 578.89 845.184 558 880 c 0,48,49
 536 917 536 917 452 918 c 0,34,35
154 358 m 24,50,51
 52.0573 347.75 52.0573 347.75 92 398 c 0,52,53
 123 437 123 437 232 458 c 24,54,55
 338.296 476.792 338.296 476.792 370 370 c 24,56,57
 392.112 295.519 392.112 295.519 308 202 c 24,58,59
 142.998 18.544 142.998 18.544 66 32 c 25,60,61
 217 129 217 129 234 186 c 0,62,63
 254.296 249.279 254.296 249.279 242 300 c 0,64,65
 225.078 369.029 225.078 369.029 154 358 c 24,50,51
EndSplineSet
Validated: 33
EndChar

StartChar: lsal
Encoding: 58473 58473 91
Width: 1034
VWidth: 0
Flags: W
LayerCount: 2
Fore
SplineSet
231 168 m 0,0,1
 228.667 169.361 228.667 169.361 225.35 169.361 c 0,2,3
 211.611 169.361 211.611 169.361 181 146 c 8,4,5
 143 117 143 117 137 94 c 16,6,7
 136.265 91.2059 136.265 91.2059 136.265 88.8443 c 0,8,9
 136.265 75.95 136.265 75.95 158.185 75.95 c 0,10,11
 159.55 75.95 159.55 75.95 161 76 c 8,12,13
 198 77 198 77 213 88 c 0,14,15
 231 99 231 99 235 118 c 16,16,17
 239.167 135.917 239.167 135.917 239.167 147.583 c 0,18,19
 239.167 163.917 239.167 163.917 231 168 c 0,0,1
105 344 m 0,20,21
 104.989 344.193 104.989 344.193 104.989 344.387 c 0,22,23
 104.989 361.261 104.989 361.261 191 384 c 0,24,25
 214.586 390.224 214.586 390.224 233.236 390.224 c 0,26,27
 271.517 390.224 271.517 390.224 289 364 c 0,28,29
 305 340 305 340 325 334 c 0,30,31
 346 327.875 346 327.875 360.875 327.875 c 0,32,33
 363 327.875 363 327.875 365 328 c 0,34,35
 381.071 326.929 381.071 326.929 381.071 318.395 c 0,36,37
 381.071 311 381.071 311 369 298 c 0,38,39
 338.912 265.971 338.912 265.971 331.433 265.971 c 0,40,41
 331.206 265.971 331.206 265.971 331 266 c 0,42,43
 312.717 238.891 312.717 238.891 312.717 203.039 c 0,44,45
 312.717 182.022 312.717 182.022 319 158 c 8,46,47
 338 86 338 86 379 84 c 16,48,49
 395.354 83.0122 395.354 83.0122 413.803 83.0122 c 0,50,51
 563.451 83.0122 563.451 83.0122 851 148 c 0,52,53
 866.86 151.38 866.86 151.38 877.042 151.38 c 0,54,55
 895.298 151.38 895.298 151.38 895.298 140.513 c 0,56,57
 895.298 134.131 895.298 134.131 889 124 c 0,58,59
 875 102 875 102 355 16 c 0,60,61
 329.941 11.7647 329.941 11.7647 312.107 11.7647 c 0,62,63
 279.412 11.7647 279.412 11.7647 271 26 c 0,64,65
 265 36 265 36 263 52 c 0,66,67
 262 56 262 56 231 56 c 24,68,69
 230 56 230 56 67 0 c 0,70,71
 53.8889 -4 53.8889 -4 44.1852 -4 c 0,72,73
 16.5507 -4 16.5507 -4 16.5507 28.4405 c 0,74,75
 16.5507 35.8696 16.5507 35.8696 18 45 c 0,76,77
 27 104 27 104 161 192 c 0,78,79
 221.016 231.355 221.016 231.355 221.016 262.966 c 0,80,81
 221.016 263.484 221.016 263.484 221 264 c 0,82,83
 220 293 220 293 197 316 c 0,84,85
 178.385 334.615 178.385 334.615 159.769 334.615 c 0,86,-1
 153 334 l 0,87,88
 138.846 331.538 138.846 331.538 128.858 331.538 c 0,89,90
 106.385 331.538 106.385 331.538 105 344 c 0,20,21
EndSplineSet
Validated: 1
Comment: "altius" 
EndChar

StartChar: lsam
Encoding: 58474 58474 92
Width: 1230
VWidth: 0
Flags: W
LayerCount: 2
Fore
SplineSet
135.5 75.5 m 0,0,1
 173.996 73.3529 173.996 73.3529 194 82 c 24,2,3
 215.087 91.1149 215.087 91.1149 213 109 c 24,4,5
 209.63 137.885 209.63 137.885 187 142 c 0,6,7
 169.279 145.222 169.279 145.222 156 138 c 0,8,9
 127 121 127 121 110 93 c 24,10,11
 101.5 76 101.5 76 135.5 75.5 c 0,0,1
17 32 m 0,12,13
 44 122 44 122 123 150 c 0,14,15
 158.172 162.626 158.172 162.626 157 172 c 0,16,17
 156.475 176.202 156.475 176.202 117 198 c 24,18,19
 103.927 205.219 103.927 205.219 123 220 c 0,20,21
 163 251 163 251 185 258 c 24,22,23
 227.799 271.847 227.799 271.847 244 249 c 0,24,25
 285 195 285 195 321 130 c 24,26,27
 379.537 76.9082 379.537 76.9082 459 54 c 24,28,29
 489.236 45.2834 489.236 45.2834 543 66 c 24,30,31
 559.541 72.3737 559.541 72.3737 568 96 c 24,32,33
 575.377 116.605 575.377 116.605 572 147 c 24,34,35
 569.291 171.379 569.291 171.379 560 168 c 0,36,37
 549 164 549 164 530 162 c 0,38,39
 485.473 157.978 485.473 157.978 514.489 184.981 c 0,40,41
 536 205 536 205 621 250 c 24,42,43
 648.193 264.209 648.193 264.209 668 240 c 0,44,45
 678.118 227.633 678.118 227.633 680 203 c 24,46,47
 681.975 177.139 681.975 177.139 702 180 c 0,48,49
 711.86 181.517 711.86 181.517 749 210 c 24,50,51
 779.589 233.459 779.589 233.459 825 238 c 0,52,53
 842.924 239.493 842.924 239.493 847 213 c 0,54,55
 850.5 193.5 850.5 193.5 854 191 c 0,56,57
 863.414 183.939 863.414 183.939 889.207 200.72 c 0,58,59
 931.766 228.408 931.766 228.408 1017 257 c 24,60,61
 1040.15 264.765 1040.15 264.765 1054 256 c 24,62,63
 1070.05 245.844 1070.05 245.844 1066 226 c 0,64,65
 1053.42 164.39 1053.42 164.39 1063 154 c 24,66,67
 1079.42 136.195 1079.42 136.195 1082 130 c 0,68,69
 1082.54 128.708 1082.54 128.708 1109 134 c 0,70,71
 1127.03 137.606 1127.03 137.606 1112 125 c 0,72,73
 1058.43 80.0645 1058.43 80.0645 1007 68 c 24,74,75
 956.815 56.2272 956.815 56.2272 962.753 98.0353 c 0,76,77
 970.994 156.056 970.994 156.056 971 158 c 24,78,79
 971.052 175.207 971.052 175.207 963 180 c 24,80,81
 950.99 187.149 950.99 187.149 929 183 c 24,82,83
 921.892 181.659 921.892 181.659 910 170 c 0,84,85
 872 134 872 134 796 11 c 24,86,87
 779.344 -5.34963 779.344 -5.34963 747 10 c 24,88,89
 728.627 18.7193 728.627 18.7193 737 39 c 0,90,91
 761.196 91.3425 761.196 91.3425 765 110 c 152,-1,92
 768.789 128.586 768.789 128.586 758 142 c 24,93,94
 747.975 154.463 747.975 154.463 728 156 c 24,95,96
 714.545 157.035 714.545 157.035 706 146 c 0,97,98
 644.817 70.2306 644.817 70.2306 591 -5 c 0,99,100
 568.49 -36.4663 568.49 -36.4663 536 -25 c 0,101,102
 523.024 -20.4205 523.024 -20.4205 525 0 c 24,103,104
 526.337 13.8193 526.337 13.8193 520.25 15.75 c 0,105,106
 516.092 17.0687 516.092 17.0687 504 12 c 0,107,108
 420.5 -23 420.5 -23 386 -18 c 0,109,110
 314.112 -4.69673 314.112 -4.69673 255.5 57 c 0,111,112
 248.85 64 248.85 64 239 64 c 0,113,114
 230 64 230 64 213 53 c 24,115,116
 142.333 11.6103 142.333 11.6103 90 10 c 0,117,118
 9.25169 7.95354 9.25169 7.95354 17 32 c 0,12,13
EndSplineSet
Validated: 33
Comment: "altius mediocriter" 
EndChar

StartChar: lsb
Encoding: 58475 58475 93
Width: 1010
VWidth: 0
Flags: W
LayerCount: 2
Fore
SplineSet
233 30 m 0,0,1
 232.652 34.2609 232.652 34.2609 232.652 41.5161 c 0,2,3
 232.652 117.696 232.652 117.696 271 524 c 0,4,5
 271.333 527.333 271.333 527.333 271.333 530.611 c 0,6,7
 271.333 547 271.333 547 263 562 c 8,8,9
 248 589 248 589 233 590 c 0,10,11
 146 597 146 597 23 599 c 0,12,13
 -43.6488 608.971 -43.6488 608.971 -43.6488 619.768 c 0,14,15
 -43.6488 629.545 -43.6488 629.545 11 640 c 0,16,17
 86.65 654.45 86.65 654.45 195.535 654.45 c 0,18,19
 214.75 654.45 214.75 654.45 235 654 c 0,20,21
 237.562 653.938 237.562 653.938 239.977 653.938 c 0,22,23
 276.188 653.938 276.188 653.938 279 668 c 0,24,25
 280 673 280 673 295 868 c 24,26,27
 298 913 298 913 345 948 c 16,28,29
 365.238 962.881 365.238 962.881 386.893 962.881 c 0,30,31
 401.619 962.881 401.619 962.881 417 956 c 0,32,33
 459.087 937.826 459.087 937.826 459.087 901.354 c 0,34,35
 459.087 899.696 459.087 899.696 459 898 c 8,36,37
 456 837 456 837 431 808 c 0,38,39
 411.469 786.906 411.469 786.906 411.469 731.633 c 0,40,41
 411.469 716.156 411.469 716.156 413 698 c 8,42,43
 416 658 416 658 443 658 c 0,44,45
 657 656 657 656 839 650 c 0,46,47
 886.149 647.881 886.149 647.881 886.149 639.026 c 0,48,49
 886.149 631.167 886.149 631.167 849 618 c 0,50,51
 821.308 608.154 821.308 608.154 684.55 608.154 c 0,52,53
 599.077 608.154 599.077 608.154 471 612 c 0,54,55
 469.708 612.042 469.708 612.042 468.417 612.042 c 0,56,-1
 409 590 l 8,57,58
 374 564 374 564 367 534 c 24,59,60
 316 304 316 304 309 138 c 0,61,62
 308.889 135.5 308.889 135.5 308.889 133.117 c 0,63,64
 308.889 92.6111 308.889 92.6111 341 86 c 0,65,66
 356.6 82.8 356.6 82.8 376.36 82.8 c 0,67,68
 406 82.8 406 82.8 445 90 c 0,69,70
 482 97 482 97 489 138 c 0,71,72
 489.781 142.844 489.781 142.844 489.781 147.053 c 0,73,74
 489.781 169.781 489.781 169.781 467 174 c 0,75,76
 442 179 442 179 389 182 c 0,77,78
 372.469 182.719 372.469 182.719 372.469 194.803 c 0,79,80
 372.469 199.531 372.469 199.531 375 206 c 0,81,82
 378 214 378 214 427 218 c 16,83,84
 463.5 220.5 463.5 220.5 488 220.5 c 128,-1,85
 512.5 220.5 512.5 220.5 525 218 c 0,86,87
 575.276 207.759 575.276 207.759 575.276 166.312 c 0,88,89
 575.276 163.241 575.276 163.241 575 160 c 8,90,91
 570 102 570 102 511 60 c 24,92,93
 466 28 466 28 377 20 c 0,94,95
 325.722 15.3056 325.722 15.3056 292.701 15.3056 c 0,96,97
 234.278 15.3056 234.278 15.3056 233 30 c 0,0,1
EndSplineSet
Validated: 1
Comment: "bene" 
EndChar

StartChar: lsc
Encoding: 58476 58476 94
Width: 444
VWidth: 0
Flags: W
LayerCount: 2
Fore
SplineSet
47 34 m 0,0,1
 10.55 58.3 10.55 58.3 10.55 88.0675 c 0,2,3
 10.55 102.4 10.55 102.4 19 118 c 8,4,5
 94 256 94 256 185 284 c 0,6,7
 227.231 296.462 227.231 296.462 239.746 296.462 c 0,8,9
 245.016 296.462 245.016 296.462 245.016 294.251 c 0,10,11
 245.016 294.129 245.016 294.129 245 294 c 0,12,13
 236.988 229.012 236.988 229.012 203.615 229.012 c 0,14,15
 199.5 229.012 199.5 229.012 195 230 c 0,16,17
 190.074 230.907 190.074 230.907 185.316 230.907 c 0,18,19
 153.37 230.907 153.37 230.907 129 190 c 0,20,21
 126 185 126 185 95 126 c 0,22,23
 90.5862 117.724 90.5862 117.724 90.5862 110.209 c 0,24,25
 90.5862 90.4828 90.5862 90.4828 121 76 c 0,26,27
 148.176 63.0294 148.176 63.0294 179.168 63.0294 c 0,28,29
 198.353 63.0294 198.353 63.0294 219 68 c 8,30,-1
 275 76 l 16,31,32
 289.5 70.5 289.5 70.5 289.5 63 c 128,-1,33
 289.5 55.5 289.5 55.5 275 46 c 8,34,35
 228 15 228 15 177 12 c 16,36,37
 162.938 11.2188 162.938 11.2188 150.096 11.2188 c 0,38,39
 80.75 11.2188 80.75 11.2188 47 34 c 0,0,1
EndSplineSet
Validated: 1
Comment: "celeriter" 
EndChar

StartChar: lscm
Encoding: 58477 58477 95
Width: 938
VWidth: 0
Flags: W
LayerCount: 2
Fore
SplineSet
379 84 m 0,0,1
 375 86.5 375 86.5 375 95.5 c 128,-1,2
 375 104.5 375 104.5 379 120 c 8,3,4
 381 128 381 128 407 179 c 0,5,6
 410.857 187.143 410.857 187.143 410.857 192.898 c 0,7,8
 410.857 200.571 410.857 200.571 404 204 c 0,9,10
 400 206 400 206 379 218 c 0,11,12
 375.4 220.7 375.4 220.7 375.4 225.38 c 0,13,14
 375.4 236.3 375.4 236.3 395 258 c 8,15,16
 407 271 407 271 436 276 c 0,17,18
 438.897 276.552 438.897 276.552 441.641 276.552 c 0,19,20
 458.793 276.552 458.793 276.552 470 255 c 0,21,22
 478.1 238.8 478.1 238.8 487.01 238.8 c 0,23,24
 488 238.8 488 238.8 489 239 c 0,25,26
 514 243 514 243 527 256 c 0,27,28
 560 289 560 289 592 299 c 0,29,30
 596.706 300.471 596.706 300.471 602.363 300.471 c 0,31,32
 615.941 300.471 615.941 300.471 635 292 c 0,33,34
 659 281 659 281 668 267 c 0,35,36
 675.192 255.885 675.192 255.885 687.942 255.885 c 0,37,38
 694.692 255.885 694.692 255.885 703 259 c 0,39,40
 729 269 729 269 758 287 c 16,41,42
 789.5 298.25 789.5 298.25 804.125 298.25 c 0,43,44
 809 298.25 809 298.25 812 297 c 8,45,46
 830 290 830 290 833 257 c 16,47,48
 834.25 245.75 834.25 245.75 834.25 235.812 c 0,49,50
 834.25 206 834.25 206 823 188 c 8,51,52
 793 140 793 140 785 123 c 0,53,54
 782.935 118.613 782.935 118.613 782.935 114.559 c 0,55,56
 782.935 102.903 782.935 102.903 800 94 c 0,57,58
 823 82 823 82 827 78 c 0,59,60
 829.222 75.7778 829.222 75.7778 829.222 73.7531 c 0,61,62
 829.222 66.6667 829.222 66.6667 802 62 c 0,63,64
 755.333 54 755.333 54 733.111 54 c 0,65,66
 722 54 722 54 717 56 c 0,67,68
 709.462 58.6923 709.462 58.6923 709.462 70.0828 c 0,69,70
 709.462 79.8462 709.462 79.8462 715 96 c 8,71,72
 737 160 737 160 761 185 c 0,73,74
 766.828 190.828 766.828 190.828 766.828 199.067 c 0,75,76
 766.828 209.207 766.828 209.207 758 223 c 0,77,78
 748.588 238.059 748.588 238.059 729.433 238.059 c 0,79,80
 728.235 238.059 728.235 238.059 727 238 c 8,81,82
 697 237 697 237 682 221 c 24,83,84
 626 162 626 162 594 97 c 0,85,86
 589.371 87.7429 589.371 87.7429 582.098 87.7429 c 0,87,88
 575.229 87.7429 575.229 87.7429 566 96 c 0,89,90
 565.5 96.3333 565.5 96.3333 565.5 97.2778 c 0,91,92
 565.5 102 565.5 102 578 122 c 0,93,94
 604 163 604 163 607 203 c 16,95,96
 607.045 204.091 607.045 204.091 607.045 205.149 c 0,97,98
 607.045 227.364 607.045 227.364 587 235 c 0,99,100
 579.348 237.783 579.348 237.783 570.97 237.783 c 0,101,102
 555.261 237.783 555.261 237.783 537 228 c 0,103,104
 501 210 501 210 493 202 c 0,105,106
 465 174 465 174 409 98 c 16,107,108
 396.781 81.4688 396.781 81.4688 386.629 81.4688 c 0,109,110
 382.656 81.4688 382.656 81.4688 379 84 c 0,0,1
71 26 m 0,111,112
 21.7193 41.807 21.7193 41.807 21.7193 109.488 c 0,113,114
 21.7193 114.596 21.7193 114.596 22 120 c 8,115,116
 25 177 25 177 82 237 c 24,117,118
 115 271 115 271 181 288 c 16,119,120
 189.75 290.25 189.75 290.25 196.188 290.25 c 0,121,122
 214.108 290.25 214.108 290.25 214.108 272.814 c 0,123,124
 214.108 271.459 214.108 271.459 214 270 c 0,125,126
 213 258 213 258 186 252 c 24,127,128
 131 236 131 236 108 209 c 0,129,130
 87.1667 184.833 87.1667 184.833 87.1667 140.528 c 0,131,132
 87.1667 131.667 87.1667 131.667 88 122 c 0,133,134
 92.8148 71.9259 92.8148 71.9259 118.03 71.9259 c 0,135,136
 119 71.9259 119 71.9259 120 72 c 8,137,138
 176 76 176 76 203 85 c 0,139,140
 215 89 215 89 251 90 c 0,141,142
 253.083 90.1667 253.083 90.1667 254.799 90.1667 c 0,143,144
 262.792 90.1667 262.792 90.1667 262.792 86.5468 c 0,145,146
 262.792 81.6226 262.792 81.6226 248 70 c 0,147,148
 212 42 212 42 128 29 c 0,149,150
 100 24.5455 100 24.5455 84.5537 24.5455 c 0,151,152
 75.7273 24.5455 75.7273 24.5455 71 26 c 0,111,112
EndSplineSet
Validated: 1
EndChar

StartChar: lsco
Encoding: 58478 58478 96
Width: 1230
VWidth: 0
Flags: W
LayerCount: 2
Fore
SplineSet
382 78 m 0,0,1
 394.727 50.1591 394.727 50.1591 424.539 50.1591 c 0,2,3
 432.205 50.1591 432.205 50.1591 441 52 c 8,4,5
 510 66 510 66 535 85 c 128,-1,6
 560 104 560 104 569 153 c 0,7,8
 569.8 157.267 569.8 157.267 569.8 161.231 c 0,9,10
 569.8 187 569.8 187 536 200 c 0,11,12
 519.386 206.568 519.386 206.568 501.28 206.568 c 0,13,14
 472.523 206.568 472.523 206.568 440 190 c 0,15,16
 420 180 420 180 395 150 c 0,17,18
 375.851 127.66 375.851 127.66 375.851 104.504 c 0,19,20
 375.851 91.383 375.851 91.383 382 78 c 0,0,1
451 643 m 16,21,22
 357 634 357 634 325 634 c 0,23,24
 316 634 316 634 313 635 c 0,25,26
 294 641 294 641 294 646 c 0,27,28
 293.944 646.389 293.944 646.389 293.944 646.793 c 0,29,30
 293.944 653.667 293.944 653.667 310 665 c 8,31,32
 318 671 318 671 391 678 c 24,33,34
 989 738 989 738 1038 738 c 16,35,36
 1053 738 1053 738 1053 738 c 0,37,38
 1059 738.429 1059 738.429 1064.33 738.429 c 0,39,40
 1096.29 738.429 1096.29 738.429 1104 723 c 0,41,42
 1105 721 1105 721 1105 719 c 0,43,44
 1105 709 1105 709 1066 704 c 8,45,46
 994 695 994 695 451 643 c 16,21,22
58 20 m 0,47,48
 9 33 9 33 9 85 c 0,49,50
 9 92 9 92 10 99 c 0,51,52
 20 172 20 172 131 229 c 16,53,54
 197 263 197 263 220 263 c 0,55,56
 226 263 226 263 229 261 c 0,57,58
 251 246 251 246 251 235 c 0,59,60
 251.053 234.579 251.053 234.579 251.053 234.172 c 0,61,62
 251.053 226.842 251.053 226.842 234 224 c 0,63,64
 196 217 196 217 140 192 c 24,65,66
 106 176 106 176 81 122 c 0,67,68
 76 110 76 110 76 102 c 0,69,70
 77 81 77 81 98 68 c 0,71,72
 135 45 135 45 176 45 c 0,73,74
 179 45 179 45 183 45 c 8,75,76
 272 45 272 45 280 60 c 0,77,78
 319 135 319 135 402 208 c 0,79,80
 462 261 462 261 546 261 c 0,81,82
 556 261 556 261 564 260 c 8,83,84
 637 250 637 250 637 194 c 16,85,86
 637 190 637 190 637 186 c 0,87,88
 637.232 182.464 637.232 182.464 637.232 178.954 c 0,89,90
 637.232 121.928 637.232 121.928 576 72 c 8,91,92
 521 27 521 27 398 0 c 16,93,94
 389 -2 389 -2 380 -2 c 0,95,96
 340 1 340 1 305 26 c 8,97,98
 295 33 295 33 285 33 c 0,99,100
 283 33 283 33 283 33 c 0,101,102
 282.455 33.0909 282.455 33.0909 281.62 33.0909 c 0,103,104
 273.273 33.0909 273.273 33.0909 236 24 c 0,105,106
 182 11 182 11 135 11 c 0,107,108
 93 11 93 11 58 20 c 0,47,48
EndSplineSet
Validated: 1
Comment: "coniunguntur" 
EndChar

StartChar: lscw
Encoding: 58479 58479 97
Width: 1768
VWidth: 0
Flags: W
LayerCount: 2
Fore
SplineSet
11 52 m 0,0,1
 1.52909 90.7446 1.52909 90.7446 18 116 c 0,2,3
 93 231 93 231 183 247 c 0,4,5
 234.18 257.65 234.18 257.65 253 238 c 24,6,7
 278.03 211.866 278.03 211.866 251 176 c 24,8,9
 213.456 126.182 213.456 126.182 201 169 c 0,10,11
 195.692 187.245 195.692 187.245 181 190 c 0,12,13
 163.015 194.164 163.015 194.164 146 187 c 0,14,15
 100.53 166.43 100.53 166.43 87 114 c 0,16,17
 73.7709 62.7371 73.7709 62.7371 116 66 c 0,18,19
 804.707 119.214 804.707 119.214 965 120 c 0,20,21
 1188.4 121.095 1188.4 121.095 1448 97 c 0,22,23
 1681.08 70.8275 1681.08 70.8275 1644 57 c 0,24,25
 1570.91 29.7424 1570.91 29.7424 1239 50 c 0,26,27
 985.592 65.4662 985.592 65.4662 931 62 c 24,28,29
 123.812 12.7812 123.812 12.7812 106 11 c 0,30,31
 76 8 76 8 60 13 c 0,32,33
 17.6087 29.1699 17.6087 29.1699 11 52 c 0,0,1
EndSplineSet
Validated: 33
Comment: "celeriter long" 
EndChar

StartChar: lsd
Encoding: 58480 58480 98
Width: 1128
VWidth: 0
Flags: W
LayerCount: 2
Fore
SplineSet
194 88 m 0,0,1
 244 80 244 80 260 81 c 0,2,3
 288.856 80.1338 288.856 80.1338 293 96 c 0,4,5
 297 111.315 297 111.315 297 203 c 0,6,7
 297 236.562 297 236.562 284 239 c 0,8,9
 269.759 242.748 269.759 242.748 189 236 c 0,10,11
 138.975 231.584 138.975 231.584 128 211 c 0,12,13
 119.974 193.97 119.974 193.97 124 158 c 0,14,15
 130.248 98.2004 130.248 98.2004 194 88 c 0,0,1
523.5 300.5 m 0,16,17
 475.098 305.616 475.098 305.616 454.5 293 c 0,18,19
 415 269 415 269 406 245 c 0,20,21
 405.184 243.546 405.184 243.546 375 117 c 0,22,23
 365.596 77.5744 365.596 77.5744 424 62 c 0,24,25
 436.692 58.6155 436.692 58.6155 465 64 c 0,26,27
 518.478 74.1723 518.478 74.1723 468 46 c 24,28,29
 372.015 -2.32823 372.015 -2.32823 322 -8 c 24,30,31
 289.047 -11.7369 289.047 -11.7369 274 24 c 0,32,33
 264.545 46.4546 264.545 46.4546 262 49 c 24,34,35
 251.833 59.1667 251.833 59.1667 239 58 c 0,36,37
 220 57 220 57 173 32 c 24,38,39
 56.8871 26.9271 56.8871 26.9271 33 49 c 24,40,41
 -17.0774 95.2741 -17.0774 95.2741 15 178 c 24,42,43
 42.6758 249.374 42.6758 249.374 128 294 c 24,44,45
 131.564 295.864 131.564 295.864 254 303 c 0,46,47
 292.51 305.245 292.51 305.245 287 328 c 0,48,49
 283.175 343.795 283.175 343.795 269 344 c 0,50,51
 223.557 344.656 223.557 344.656 195 356 c 0,52,53
 149.984 373.883 149.984 373.883 202 387 c 0,54,55
 304.707 412.9 304.707 412.9 341 429 c 0,56,57
 365.954 440.07 365.954 440.07 370 463 c 0,58,59
 392.818 589.64 392.818 589.64 387 597 c 0,60,61
 380.548 605.161 380.548 605.161 361 640 c 0,62,63
 351.998 656.043 351.998 656.043 387 677 c 24,64,65
 465.232 723.84 465.232 723.84 518 734 c 24,66,67
 554.045 740.94 554.045 740.94 548 708 c 24,68,69
 517.664 542.7 517.664 542.7 469 467 c 0,70,71
 444.244 428.491 444.244 428.491 463 411 c 0,72,73
 488.595 387.131 488.595 387.131 678 357 c 0,74,75
 778.417 341.026 778.417 341.026 807 385 c 0,76,77
 816.947 400.234 816.947 400.234 806 409 c 0,78,79
 791.176 420.87 791.176 420.87 807 444 c 128,-1,80
 822.917 467.266 822.917 467.266 900 497 c 0,81,82
 920.983 505.094 920.983 505.094 929 461 c 24,83,84
 935 428 935 428 953 430 c 0,85,86
 953.004 430 953.004 430 1006 450 c 0,87,88
 1048.48 466.03 1048.48 466.03 1014 435 c 24,89,90
 938.141 365.857 938.141 365.857 855 352 c 0,91,92
 840.72 349.525 840.72 349.525 819 353 c 0,93,94
 811.387 353.883 811.387 353.883 787 337 c 0,95,96
 739.543 303.557 739.543 303.557 642 295.5 c 0,97,98
 600.138 291.876 600.138 291.876 523.5 300.5 c 0,16,17
EndSplineSet
Validated: 33
Comment: "deprimatur" 
EndChar

StartChar: lse
Encoding: 58481 58481 99
Width: 724
VWidth: 0
Flags: W
LayerCount: 2
Fore
SplineSet
159 196 m 0,0,1
 207 203 207 203 207 216 c 0,2,3
 207 245 207 245 189 250 c 0,4,5
 160 249 160 249 143 240 c 0,6,7
 119 227 119 227 113 202 c 0,8,9
 112.827 201.308 112.827 201.308 112.827 200.675 c 0,10,11
 112.827 194 112.827 194 132.111 194 c 0,12,13
 142.667 194 142.667 194 159 196 c 0,0,1
11 80 m 16,14,15
 10.619 87.3333 10.619 87.3333 10.619 94.4308 c 0,16,17
 10.619 161.857 10.619 161.857 45 208 c 8,18,19
 94 274 94 274 185 310 c 16,20,21
 210.208 320.083 210.208 320.083 234.576 320.083 c 0,22,23
 263.375 320.083 263.375 320.083 291 306 c 0,24,25
 305.7 298.3 305.7 298.3 305.7 273.94 c 0,26,27
 305.7 263.5 305.7 263.5 303 250 c 8,28,29
 299 232 299 232 293 220 c 9,30,-1
 537 268 l 16,31,32
 546.545 269.136 546.545 269.136 554.748 269.136 c 0,33,34
 582.636 269.136 582.636 269.136 595 256 c 0,35,36
 602.806 247.484 602.806 247.484 602.806 240.73 c 0,37,38
 602.806 228.452 602.806 228.452 577 222 c 8,39,40
 183 167 183 167 129 144 c 24,41,42
 101 132 101 132 95 122 c 0,43,44
 91.6207 114.759 91.6207 114.759 91.6207 108.333 c 0,45,46
 91.6207 88.1379 91.6207 88.1379 125 76 c 0,47,48
 134.333 72.6667 134.333 72.6667 146.778 72.6667 c 0,49,50
 171.667 72.6667 171.667 72.6667 209 86 c 8,51,52
 290 116 290 116 305 120 c 0,53,54
 341.756 129.779 341.756 129.779 354.633 129.779 c 0,55,56
 361.576 129.779 361.576 129.779 361.576 126.935 c 0,57,58
 361.576 119.414 361.576 119.414 313 92 c 8,59,60
 232 46 232 46 149 32 c 16,61,62
 127.324 28.4412 127.324 28.4412 107.531 28.4412 c 0,63,64
 66.1471 28.4412 66.1471 28.4412 33 44 c 0,65,66
 14 53 14 53 11 80 c 16,14,15
EndSplineSet
Validated: 1
Comment: "equaliter" 
EndChar

StartChar: lseq
Encoding: 58482 58482 100
Width: 796
VWidth: 0
Flags: W
LayerCount: 2
Fore
SplineSet
256 482 m 0,0,1
 205 494 205 494 270 530 c 0,2,3
 302.603 547.141 302.603 547.141 600 566 c 24,4,5
 670.223 570.453 670.223 570.453 680 556 c 24,6,7
 722.252 493.54 722.252 493.54 646 498 c 0,8,9
 507 507 507 507 445 499 c 0,10,11
 274.928 478.434 274.928 478.434 256 482 c 0,0,1
392 100 m 0,12,13
 439.366 60.3623 439.366 60.3623 456 84 c 0,14,15
 475.155 112.276 475.155 112.276 468 140 c 0,16,17
 456.973 182.73 456.973 182.73 438 182 c 0,18,19
 400 181 400 181 380 150 c 24,20,21
 359.924 121.698 359.924 121.698 392 100 c 0,12,13
108 170 m 0,22,23
 145.795 175.178 145.795 175.178 148 184 c 0,24,25
 153.235 232.859 153.235 232.859 139.965 237.506 c 0,26,27
 110 248 110 248 94 222 c 0,28,29
 61.7482 161.741 61.7482 161.741 108 170 c 0,22,23
42 20 m 0,30,31
 -28 72 -28 72 0 202 c 0,32,33
 12.1067 252.114 12.1067 252.114 148 300 c 24,34,35
 174.797 309.443 174.797 309.443 210 276 c 24,36,37
 221.089 265.465 221.089 265.465 228 224 c 0,38,39
 233.865 185.874 233.865 185.874 260 202 c 0,40,41
 304.526 229.473 304.526 229.473 432 246 c 24,42,43
 469.108 250.811 469.108 250.811 492 230 c 0,44,45
 503 220 503 220 560 242 c 24,46,47
 597.786 242 597.786 242 598 230 c 24,48,49
 598.45 204.816 598.45 204.816 562 130 c 24,50,51
 558.292 122.39 558.292 122.39 522 74 c 0,52,53
 511.827 60.4362 511.827 60.4362 450 -354 c 0,54,55
 445.07 -387.049 445.07 -387.049 466 -388 c 24,56,-1
 496 -388 l 24,57,58
 514.852 -399.089 514.852 -399.089 500 -408 c 24,59,60
 364.403 -489.358 364.403 -489.358 346 -478 c 0,61,62
 302.178 -449.747 302.178 -449.747 318.507 -439.997 c 0,63,64
 371.896 -408.116 371.896 -408.116 381 -397 c 0,65,66
 388.934 -387.312 388.934 -387.312 392 -326 c 0,67,68
 395 -266 395 -266 440 -84 c 24,69,70
 456.679 -15.2751 456.679 -15.2751 436 0 c 0,71,72
 420.12 11.7301 420.12 11.7301 397 11 c 0,73,74
 315 7 315 7 286 26 c 0,75,76
 231.522 64.3404 231.522 64.3404 258 112 c 0,77,78
 272.378 136.649 272.378 136.649 298 158 c 0,79,80
 316.706 181.833 316.706 181.833 278 174 c 0,81,82
 192 156 192 156 96 130 c 24,83,84
 66.479 121.408 66.479 121.408 82 92 c 24,85,86
 97.7361 62.1843 97.7361 62.1843 134 58 c 0,87,88
 164 54 164 54 190 62 c 24,89,90
 237.268 62.5912 237.268 62.5912 206 46 c 0,91,92
 90.9172 -15.1377 90.9172 -15.1377 42 20 c 0,30,31
EndSplineSet
Validated: 33
Comment: "equaliter" 
EndChar

StartChar: lsew
Encoding: 58483 58483 101
Width: 2278
VWidth: 0
Flags: W
LayerCount: 2
Fore
SplineSet
182 256 m 24,0,1
 244.5 260 244.5 260 246 266 c 0,2,3
 250.459 284.426 250.459 284.426 238 300 c 0,4,5
 214.057 329.929 214.057 329.929 182 304 c 0,6,7
 114.145 251.075 114.145 251.075 182 256 c 24,0,1
102 -18 m 24,8,9
 20 -11.4107 20 -11.4107 20 70 c 24,10,11
 20 218.338 20 218.338 102 318 c 24,12,13
 166.818 396.779 166.818 396.779 280 386 c 24,14,15
 336.519 380.617 336.519 380.617 354 334 c 0,16,17
 366 302 366 302 406 292 c 0,18,19
 490.893 268.287 490.893 268.287 1838 368 c 0,20,21
 1872.63 370.69 1872.63 370.69 1860 336 c 0,22,23
 1849.27 304.527 1849.27 304.527 160 206 c 0,24,25
 142.029 205.034 142.029 205.034 124 184 c 0,26,27
 95.865 134.469 95.865 134.469 122 92 c 0,28,29
 138.527 66.4527 138.527 66.4527 174 70 c 0,30,31
 220.997 73.1986 220.997 73.1986 228 76 c 0,32,33
 304.98 106.204 304.98 106.204 244 52 c 0,34,35
 156.404 -22.3718 156.404 -22.3718 102 -18 c 24,8,9
EndSplineSet
Validated: 33
Comment: "equaliter long" 
EndChar

StartChar: lsfid
Encoding: 58484 58484 102
Width: 1680
VWidth: 0
Flags: W
LayerCount: 2
Fore
SplineSet
623 130 m 0,0,1
 574.178 190.186 574.178 190.186 677 276 c 24,2,3
 749.878 336.823 749.878 336.823 889 352 c 24,4,5
 944 358 944 358 967 356 c 0,6,7
 982.453 354.105 982.453 354.105 985 380 c 24,8,9
 994.087 472.387 994.087 472.387 991 600 c 24,10,11
 990.296 629.099 990.296 629.099 979 628 c 24,12,13
 813 605 813 605 789 608 c 0,14,15
 748.766 611.24 748.766 611.24 767 630 c 0,16,17
 845.328 664.881 845.328 664.881 973 674 c 0,18,19
 1006.36 676.382 1006.36 676.382 1007 686 c 0,20,21
 1009.61 724.161 1009.61 724.161 995 880 c 24,22,23
 992.13 913.092 992.13 913.092 1021 938 c 24,24,25
 1053.81 966.306 1053.81 966.306 1097 968 c 24,26,27
 1126.54 969.158 1126.54 969.158 1123 942 c 24,28,29
 1102 781 1102 781 1087 734 c 0,30,31
 1072.7 695.089 1072.7 695.089 1109 706 c 24,32,33
 1426.88 801.547 1426.88 801.547 1453 844 c 0,34,35
 1494.9 912.095 1494.9 912.095 1466.95 940.048 c 128,-1,36
 1439 968 1439 968 1437 980 c 0,37,38
 1432.69 995.927 1432.69 995.927 1463 1002 c 24,39,40
 1535.77 1016.58 1535.77 1016.58 1551 1000 c 0,41,42
 1589.5 958.088 1589.5 958.088 1567 908 c 0,43,44
 1535.6 838.107 1535.6 838.107 1395 782 c 24,45,46
 1181.47 698.391 1181.47 698.391 1109 670 c 0,47,48
 1080.59 658.868 1080.59 658.868 1081 632 c 0,49,50
 1081.15 622.267 1081.15 622.267 1047 228 c 24,51,52
 1044.02 193.631 1044.02 193.631 1061 188 c 0,53,54
 1083.84 180.425 1083.84 180.425 1133 184 c 0,55,56
 1220.06 190.332 1220.06 190.332 1137 156 c 24,57,58
 1074.68 130.241 1074.68 130.241 983 122 c 24,59,60
 959.701 119.906 959.701 119.906 959 140 c 24,61,62
 969.615 207.846 969.615 207.846 977 294 c 24,63,64
 979.814 326.827 979.814 326.827 971 330 c 0,65,66
 946 339 946 339 939 328 c 0,67,68
 924.136 299.108 924.136 299.108 917 300 c 0,69,70
 834.813 304.934 834.813 304.934 813 300 c 24,71,72
 730 281 730 281 701 258 c 0,73,74
 676.122 235.394 676.122 235.394 711 190 c 0,75,76
 728.535 167.178 728.535 167.178 803 192 c 0,77,78
 829 201 829 201 857 216 c 0,79,80
 877 225 877 225 857 198 c 0,81,82
 817.13 148.71 817.13 148.71 737 122 c 0,83,84
 654.243 96.6024 654.243 96.6024 623 130 c 0,0,1
23 8 m 0,85,86
 9.69769 2.88478 9.69769 2.88478 9 46 c 0,87,88
 9 168.335 9 168.335 37 178 c 0,89,90
 64.4232 187.466 64.4232 187.466 71 218 c 0,91,92
 80.2867 261.115 80.2867 261.115 67 260 c 0,93,94
 29.9772 256.016 29.9772 256.016 33 264 c 0,95,96
 105.897 456.552 105.897 456.552 249 528 c 0,97,98
 322.871 564.882 322.871 564.882 347 528 c 0,99,100
 388.742 464.197 388.742 464.197 367 434 c 0,101,102
 358.329 421.165 358.329 421.165 293 396 c 0,103,104
 261.449 383.847 261.449 383.847 233 440 c 0,105,106
 221.39 462.917 221.39 462.917 195 440 c 0,107,108
 157 406 157 406 157 364 c 0,109,110
 156.044 313.669 156.044 313.669 127 282 c 0,111,112
 105.551 259.769 105.551 259.769 187 236 c 0,113,114
 214.659 227.336 214.659 227.336 384 295 c 0,115,116
 441.036 318 441.036 318 471 302 c 24,117,118
 483.567 294.155 483.567 294.155 455 236 c 24,119,120
 424.132 173.162 424.132 173.162 443 168 c 0,121,122
 459.928 163.368 459.928 163.368 487 154 c 0,123,124
 502.745 148.552 502.745 148.552 475 124 c 24,125,126
 398.323 65.3646 398.323 65.3646 351 50 c 24,127,128
 310.13 36.7304 310.13 36.7304 321 74 c 0,129,130
 344.968 151.039 344.968 151.039 357 202 c 24,131,132
 362.792 226.532 362.792 226.532 341 238 c 0,133,134
 317.858 250.178 317.858 250.178 295 236 c 0,135,136
 205.977 180.783 205.977 180.783 171 182 c 0,137,138
 159.086 182.414 159.086 182.414 127 182 c 0,139,140
 100.929 181.663 100.929 181.663 109 144 c 0,141,142
 118.933 96.5042 118.933 96.5042 101 64 c 0,143,144
 82.7879 30.9906 82.7879 30.9906 23 8 c 0,85,86
EndSplineSet
Validated: 33
Comment: "fideliter" 
EndChar

StartChar: lsfr
Encoding: 58485 58485 103
Width: 630
VWidth: 0
Flags: W
LayerCount: 2
Fore
SplineSet
39 -18 m 16,0,1
 37.3333 -18.2 37.3333 -18.2 35.8622 -18.2 c 0,2,3
 24.7955 -18.2 24.7955 -18.2 24.7955 -6.88172 c 0,4,-1
 24.7955 -6.88172 l 0,5,6
 24.7955 2.86364 24.7955 2.86364 33 21 c 0,7,8
 69 100 69 100 83 198 c 0,9,10
 87 226 87 226 90 239 c 0,11,12
 91.44 245.24 91.44 245.24 91.44 250.04 c 0,13,14
 91.44 265.24 91.44 265.24 77 266 c 0,15,16
 38.4792 268.688 38.4792 268.688 38.4792 276.19 c 0,17,18
 38.4792 277.062 38.4792 277.062 39 278 c 0,19,20
 50 296 50 296 79 340 c 0,21,22
 223 562 223 562 283 590 c 0,23,24
 302.556 598.963 302.556 598.963 318.792 598.963 c 0,25,26
 342.407 598.963 342.407 598.963 359 580 c 0,27,28
 386.769 548.577 386.769 548.577 386.769 507.541 c 0,29,30
 386.769 492.423 386.769 492.423 383 476 c 8,31,32
 371 423 371 423 313 376 c 0,33,34
 308.574 372.404 308.574 372.404 305.679 372.404 c 0,35,36
 300.2 372.404 300.2 372.404 300.2 385.28 c 0,37,38
 300.2 390.2 300.2 390.2 301 397 c 0,39,40
 302 408 302 408 325 476 c 0,41,42
 325.8 478 325.8 478 325.8 480.8 c 0,43,44
 325.8 492 325.8 492 313 516 c 0,45,46
 301.188 538.781 301.188 538.781 283.68 538.781 c 0,47,48
 280.438 538.781 280.438 538.781 277 538 c 0,49,50
 249 532 249 532 233 500 c 24,51,52
 190 415 190 415 173 324 c 16,53,54
 170.618 311.824 170.618 311.824 170.618 302.31 c 0,55,56
 170.618 275.882 170.618 275.882 189 270 c 0,57,58
 193.333 268.667 193.333 268.667 200.778 268.667 c 0,59,60
 215.667 268.667 215.667 268.667 243 274 c 8,61,-1
 447 320 l 16,62,63
 448.579 320.105 448.579 320.105 450.075 320.105 c 0,64,65
 477 320.105 477 320.105 477 286 c 8,66,67
 477 284 477 284 290 248 c 24,68,69
 178 226 178 226 167 226 c 0,70,71
 136 226 136 226 129 200 c 128,-1,72
 122 174 122 174 83 28 c 24,73,74
 72 -13 72 -13 39 -18 c 16,0,1
EndSplineSet
Validated: 1
Comment: "frendor" 
EndChar

StartChar: lsg
Encoding: 58486 58486 104
Width: 808
VWidth: 0
Flags: W
LayerCount: 2
Fore
SplineSet
165 128 m 0,0,1
 229 160 229 160 216 178 c 0,2,3
 196.779 209.658 196.779 209.658 141 184 c 24,4,5
 77.2716 153.463 77.2716 153.463 65 136 c 0,6,7
 39 98 39 98 119 116 c 0,8,9
 158.558 124.374 158.558 124.374 165 128 c 0,0,1
35 -342 m 0,10,11
 107.441 -329.384 107.441 -329.384 157 -304 c 0,12,13
 256.776 -252.895 256.776 -252.895 263 -228 c 0,14,15
 272.715 -187.751 272.715 -187.751 241 -160 c 0,16,17
 197.839 -143.929 197.839 -143.929 153 -152 c 0,18,19
 82.2085 -159.621 82.2085 -159.621 -27 -230 c 0,20,21
 -91.1489 -271.34 -91.1489 -271.34 -87 -312 c 0,22,23
 -82 -361 -82 -361 35 -342 c 0,10,11
363 178 m 0,24,25
 281.49 177.542 281.49 177.542 231 65 c 0,26,27
 197.394 -10.2484 197.394 -10.2484 243 -58 c 0,28,29
 260 -78 260 -78 327 -142 c 24,30,31
 373.095 -186.031 373.095 -186.031 331 -240 c 0,32,33
 258.011 -333.576 258.011 -333.576 87 -406 c 0,34,35
 17 -432 17 -432 -37 -422 c 24,36,37
 -179.82 -395.552 -179.82 -395.552 -167 -336 c 24,38,39
 -144.148 -229.851 -144.148 -229.851 25 -134 c 0,40,41
 85 -100 85 -100 141 -104 c 0,42,43
 166.775 -105.138 166.775 -105.138 163 -72 c 24,44,45
 155 -6 155 -6 163 28 c 0,46,47
 165.862 38.0258 165.862 38.0258 179 66 c 0,48,49
 181.724 77.8391 181.724 77.8391 163 82 c 0,50,51
 157.85 82.9363 157.85 82.9363 76.9251 54.4682 c 0,52,53
 -36.6341 14.5199 -36.6341 14.5199 -13 96 c 24,54,55
 4.00417 154.623 4.00417 154.623 129 234 c 24,56,57
 195.273 276.086 195.273 276.086 261 270 c 0,58,59
 312.021 265.276 312.021 265.276 347 240 c 0,60,61
 421.131 186.432 421.131 186.432 603 266 c 24,62,63
 652.951 287.853 652.951 287.853 663 286 c 0,64,65
 710.096 277.314 710.096 277.314 671 246 c 0,66,67
 635 215 635 215 553 192 c 0,68,69
 506.524 178.82 506.524 178.82 363 178 c 0,24,25
EndSplineSet
Validated: 33
Comment: "gutture" 
EndChar

StartChar: lsi
Encoding: 58487 58487 105
Width: 388
VWidth: 0
Flags: W
LayerCount: 2
Fore
SplineSet
129 250 m 0,0,1
 131 273 131 273 219 292 c 16,2,3
 228.5 294 228.5 294 235.625 294 c 0,4,5
 257 294 257 294 257 276 c 0,6,7
 257.038 274.308 257.038 274.308 257.038 272.636 c 0,8,9
 257.038 230.846 257.038 230.846 233 202 c 0,10,11
 169 124 169 124 169 116 c 24,12,13
 170 76 170 76 177 68 c 0,14,15
 190 59 190 59 201 44 c 0,16,17
 203.88 40.16 203.88 40.16 203.88 36.7808 c 0,18,19
 203.88 26.08 203.88 26.08 175 20 c 0,20,21
 131.731 11.3462 131.731 11.3462 101.109 11.3462 c 0,22,23
 78.6538 11.3462 78.6538 11.3462 63 16 c 0,24,25
 42.2576 22.1667 42.2576 22.1667 42.2576 33.9904 c 0,26,27
 42.2576 43.2576 42.2576 43.2576 55 56 c 0,28,29
 107 108 107 108 155 174 c 16,30,31
 169.205 193.886 169.205 193.886 169.205 206.025 c 0,32,33
 169.205 215.25 169.205 215.25 161 220 c 0,34,35
 128.182 239.864 128.182 239.864 128.182 247.793 c 0,36,37
 128.182 249.045 128.182 249.045 129 250 c 0,0,1
EndSplineSet
Validated: 1
Comment: "iusum" 
EndChar

